SplineFontDB: 3.0
FontName: HM_FTXnazli_Shadow
FullName: HM_FTXnazli_Shadow
FamilyName: HM_FTXnazli_Shadow
Weight: Shadow
Copyright: Copyright (c) Hossein, 2013. All rights reserved.
Version: 0.1
ItalicAngle: 0
UnderlinePosition: -540
UnderlineWidth: 60
Ascent: 1638
Descent: 410
sfntRevision: 0x00010000
LayerCount: 2
Layer: 0 1 "Back"  1
Layer: 1 1 "Fore"  0
XUID: [1021 102 1371595031 6992056]
FSType: 0
OS2Version: 2
OS2_WeightWidthSlopeOnly: 0
OS2_UseTypoMetrics: 1
CreationTime: 1194658560
ModificationTime: 1360912894
PfmFamily: 17
TTFWeight: 400
TTFWidth: 5
LineGap: 0
VLineGap: 0
Panose: 2 0 5 3 8 0 0 2 0 3
OS2TypoAscent: 2100
OS2TypoAOffset: 0
OS2TypoDescent: -1000
OS2TypoDOffset: 0
OS2TypoLinegap: 0
OS2WinAscent: 2100
OS2WinAOffset: 0
OS2WinDescent: 1000
OS2WinDOffset: 0
HheadAscent: 2100
HheadAOffset: 0
HheadDescent: -1000
HheadDOffset: 0
OS2SubXSize: 1434
OS2SubYSize: 1331
OS2SubXOff: 0
OS2SubYOff: 293
OS2SupXSize: 1434
OS2SupYSize: 1331
OS2SupXOff: 0
OS2SupYOff: 928
OS2StrikeYSize: 102
OS2StrikeYPos: 512
OS2Vendor: 'pars'
OS2CodePages: 20000051.41000000
OS2UnicodeRanges: 00002003.80000000.00000008.00000000
Lookup: 4 0 1 "gsub_ligature_dfl_liga_arab_FAR_Lookup_01"  {"gsub_ligature_dfl_liga_arab_FAR_Lookup_01_Subtable_01"  } ['liga' ('arab' <'FAR ' > ) ]
Lookup: 4 0 1 "gsub_ligature_dfl_liga_arab_FAR_Lookup_02"  {"gsub_ligature_dfl_liga_arab_FAR_Lookup_02_Subtable_01"  } ['liga' ('arab' <'FAR ' > ) ]
Lookup: 3 0 0 "gsub_alternate_dfl_aalt_arab_FAR_Lookup_01"  {"gsub_alternate_dfl_aalt_arab_FAR_Lookup_01_Subtable_01"  } ['aalt' ('arab' <'FAR ' > ) ]
Lookup: 1 1 0 "gsub_single_rtl_fina_arab_FAR_Lookup_01"  {"gsub_single_rtl_fina_arab_FAR_Lookup_01_Subtable_01"  } ['fina' ('arab' <'FAR ' > ) ]
Lookup: 1 1 0 "gsub_single_rtl_init_arab_FAR_Lookup_01"  {"gsub_single_rtl_init_arab_FAR_Lookup_01_Subtable_01"  } ['init' ('arab' <'FAR ' > ) ]

StartChar: .notdef
Encoding: 65536 -1 0
Width: 1122
GlyphClass: 2
Flags: W
LayerCount: 2
Fore
SplineSet
624 299 m 0,0,1
 624 269 624 269 602 246.5 c 128,-1,2
 580 224 580 224 548 224 c 0,3,4
 518 224 518 224 496.5 246.5 c 128,-1,5
 475 269 475 269 475 299 c 0,6,7
 475 331 475 331 496.5 352.5 c 128,-1,8
 518 374 518 374 551 374 c 0,9,10
 581 374 581 374 602.5 352.5 c 128,-1,11
 624 331 624 331 624 299 c 0,0,1
732 780 m 0,12,13
 732 737 732 737 708.5 710 c 128,-1,14
 685 683 685 683 648 683 c 0,15,16
 616 683 616 683 597 701.5 c 128,-1,17
 578 720 578 720 578 749 c 0,18,19
 578 770 578 770 588 785 c 128,-1,20
 598 800 598 800 610.5 810.5 c 128,-1,21
 623 821 623 821 633 829 c 128,-1,22
 643 837 643 837 643 843 c 0,23,24
 643 863 643 863 623.5 875 c 128,-1,25
 604 887 604 887 574 887 c 0,26,27
 536 887 536 887 512 866 c 128,-1,28
 488 845 488 845 488 813 c 0,29,30
 488 795 488 795 498.5 769 c 128,-1,31
 509 743 509 743 521.5 718 c 128,-1,32
 534 693 534 693 545.5 673 c 128,-1,33
 557 653 557 653 559 648 c 0,34,35
 570 619 570 619 576.5 583.5 c 128,-1,36
 583 548 583 548 583 513 c 0,37,38
 583 492 583 492 581.5 470.5 c 128,-1,39
 580 449 580 449 578 424 c 1,40,-1
 539 424 l 1,41,-1
 539 442 l 1,42,-1
 543 472 l 1,43,44
 543 505 543 505 498 544 c 0,45,46
 425 609 425 609 416 620 c 0,47,48
 371 673 371 673 371 740 c 0,49,50
 371 781 371 781 386 815.5 c 128,-1,51
 401 850 401 850 426.5 875.5 c 128,-1,52
 452 901 452 901 486.5 915 c 128,-1,53
 521 929 521 929 560 929 c 0,54,55
 595 929 595 929 626.5 918.5 c 128,-1,56
 658 908 658 908 681.5 888.5 c 128,-1,57
 705 869 705 869 718.5 841.5 c 128,-1,58
 732 814 732 814 732 780 c 0,12,13
132 31 m 1,59,-1
 992 31 l 1,60,-1
 992 1122 l 1,61,-1
 132 1122 l 1,62,-1
 132 31 l 1,59,-1
100 0 m 1,63,-1
 100 1154 l 1,64,-1
 1022 1154 l 1,65,-1
 1022 0 l 1,66,-1
 100 0 l 1,63,-1
EndSplineSet
EndChar

StartChar: exclam
Encoding: 33 33 4
Width: 602
VWidth: 1639
GlyphClass: 2
Flags: W
LayerCount: 2
Fore
SplineSet
188.560546875 265.6796875 m 1,0,1
 188.447265625 293.928710938 188.447265625 293.928710938 180.360351562 410 c 0,2,3
 169.48046875 586.412109375 169.48046875 586.412109375 139.360351562 808.51953125 c 1,4,5
 100.1640625 1063.15039062 100.1640625 1063.15039062 100 1161.12011719 c 0,6,7
 100.525390625 1310.82617188 100.525390625 1310.82617188 121.3203125 1374.3203125 c 0,8,9
 141.786132812 1436.04882812 141.786132812 1436.04882812 183.639648438 1451.40039062 c 0,10,11
 195.857421875 1454.91992188 195.857421875 1454.91992188 227.919921875 1454.6796875 c 0,12,13
 288.584960938 1454.6796875 288.584960938 1454.6796875 311.694335938 1427.203125 c 0,14,15
 315.583984375 1422.24316406 315.583984375 1422.24316406 318.120117188 1418.59960938 c 0,14,15
 327.8359375 1404.46777344 327.8359375 1404.46777344 346.50390625 1344.96191406 c 0,16,17
 348.1875 1339.77441406 348.1875 1339.77441406 349.280273438 1336.59960938 c 0,16,17
 351.740234375 1330.04003906 351.740234375 1330.04003906 359.120117188 1317.74023438 c 0,18,19
 366.5 1305.44042969 366.5 1305.44042969 368.959960938 1298.87988281 c 0,18,19
 386.064453125 1254.8359375 386.064453125 1254.8359375 391.919921875 1192.28027344 c 0,20,21
 400.823242188 1065.09179688 400.823242188 1065.09179688 361.92578125 805.075195312 c 0,22,23
 352.348632812 741.057617188 352.348632812 741.057617188 347.639648438 705.200195312 c 0,22,23
 313.200195312 448.224609375 313.200195312 448.224609375 313.200195312 223.040039062 c 1,24,-1
 301.719726562 223.040039062 l 1,25,-1
 301.719726562 221.400390625 l 1,26,27
 342.676757812 210.0234375 342.676757812 210.0234375 361.260742188 160.977539062 c 0,28,29
 363.028320312 155.918945312 363.028320312 155.918945312 364.040039062 152.51953125 c 0,28,29
 364.59375 148.640625 364.59375 148.640625 364.958984375 140.012695312 c 0,30,31
 366.252929688 122.07421875 366.252929688 122.07421875 368.959960938 114.799804688 c 0,30,31
 369.872070312 111.150390625 369.872070312 111.150390625 375.811523438 104.80859375 c 0,32,33
 380.640625 98.982421875 380.640625 98.982421875 382.080078125 96.759765625 c 0,32,33
 394.203125 81.314453125 394.203125 81.314453125 400.120117188 55.759765625 c 1,34,35
 410.987304688 -14.0986328125 410.987304688 -14.0986328125 352.978515625 -51.8115234375 c 0,36,37
 318.586914062 -72.79296875 318.586914062 -72.79296875 278.759765625 -68.8798828125 c 0,36,37
 257.987304688 -66.693359375 257.987304688 -66.693359375 222.27734375 -38.498046875 c 0,38,39
 214.655273438 -32.7109375 214.655273438 -32.7109375 209.879882812 -29.51953125 c 0,38,39
 205.206054688 -26.86328125 205.206054688 -26.86328125 182 -22.9599609375 c 1,40,41
 158.211914062 -14.9365234375 158.211914062 -14.9365234375 137.719726562 4.919921875 c 1,42,43
 110.05078125 38.115234375 110.05078125 38.115234375 109.83984375 96.759765625 c 0,44,45
 109.83984375 181.606445312 109.83984375 181.606445312 156.6015625 213.470703125 c 0,46,47
 161.040039062 216.349609375 161.040039062 216.349609375 163.959960938 218.120117188 c 0,46,47
 197.208984375 231.544921875 197.208984375 231.544921875 268.919921875 229.599609375 c 1,48,-1
 267.280273438 265.6796875 l 1,49,-1
 188.560546875 265.6796875 l 1,0,1
234.48046875 359.16015625 m 1,50,51
 234.48046875 534.399414062 234.48046875 534.399414062 285.646484375 915.43359375 c 0,52,53
 306.1328125 1068.42089844 306.1328125 1068.42089844 314.83984375 1156.20019531 c 1,52,53
 322.458007812 1258.88964844 322.458007812 1258.88964844 286.959960938 1346.44042969 c 1,54,55
 264.674804688 1394.17089844 264.674804688 1394.17089844 234.48046875 1403.83984375 c 1,56,57
 208.700195312 1407.63574219 208.700195312 1407.63574219 180.360351562 1361.20019531 c 0,58,59
 146.047851562 1301.84082031 146.047851562 1301.84082031 145.919921875 1175.87988281 c 0,60,61
 146.162109375 1116.00488281 146.162109375 1116.00488281 167.240234375 975.799804688 c 0,62,63
 172.70703125 935.893554688 172.70703125 935.893554688 184.733398438 856.080078125 c 0,64,65
 208.780273438 695.90625 208.780273438 695.90625 216.440429688 616.639648438 c 0,64,65
 221.181640625 560.778320312 221.181640625 560.778320312 227.919921875 442.799804688 c 0,66,67
 228.064453125 421.737304688 228.064453125 421.737304688 231.200195312 387.040039062 c 0,68,69
 232.001953125 364.13671875 232.001953125 364.13671875 234.48046875 359.16015625 c 1,50,51
237.759765625 180.400390625 m 0,70,71
 200.580078125 180.400390625 200.580078125 180.400390625 170.818359375 136.680664062 c 0,72,73
 158.182617188 118.118164062 158.182617188 118.118164062 157.400390625 101.6796875 c 0,72,73
 157.400390625 64.720703125 157.400390625 64.720703125 202.349609375 34.73828125 c 0,74,75
 221.883789062 22.65234375 221.883789062 22.65234375 237.759765625 21.3203125 c 0,74,75
 274.940429688 21.3203125 274.940429688 21.3203125 304.701171875 65.0400390625 c 0,76,77
 317.336914062 83.6015625 317.336914062 83.6015625 318.120117188 100.040039062 c 0,76,77
 319.818359375 135.698242188 319.818359375 135.698242188 275.741210938 166.21484375 c 0,78,79
 254.698242188 179.737304688 254.698242188 179.737304688 237.759765625 180.400390625 c 0,70,71
EndSplineSet
EndChar

StartChar: percent
Encoding: 37 37 8
Width: 1274
VWidth: 1639
GlyphClass: 2
Flags: W
LayerCount: 2
Fore
SplineSet
859.725585938 1530.12011719 m 1,0,-1
 881.045898438 1523.55957031 l 1,1,-1
 882.685546875 1530.12011719 l 1,2,-1
 904.005859375 1523.55957031 l 1,3,-1
 905.645507812 1530.12011719 l 1,4,-1
 971.245117188 1507.16015625 l 1,5,-1
 964.685546875 1485.83984375 l 1,6,-1
 971.245117188 1484.20019531 l 1,7,-1
 964.685546875 1462.87988281 l 1,8,-1
 971.245117188 1461.24023438 l 1,9,-1
 963.045898438 1433.36035156 l 1,10,-1
 1005.68554688 1418.59960938 l 1,11,-1
 982.725585938 1351.36035156 l 1,12,-1
 948.28515625 1252.95996094 l 1,13,-1
 826.92578125 903.639648438 l 1,14,-1
 584.205078125 213.200195312 l 1,15,-1
 433.325195312 -218.120117188 l 1,16,-1
 364.4453125 -195.16015625 l 1,17,18
 366.6875 -174.978515625 366.6875 -174.978515625 361.744140625 -171.903320312 c 0,19,20
 357.72265625 -170.002929688 357.72265625 -170.002929688 354.60546875 -168.919921875 c 1,19,-1
 352.965820312 -175.48046875 l 1,20,-1
 284.0859375 -152.51953125 l 1,21,-1
 289.005859375 -129.559570312 l 1,22,-1
 284.0859375 -129.559570312 l 1,23,-1
 289.005859375 -106.599609375 l 1,24,-1
 284.0859375 -106.599609375 l 1,25,-1
 302.125976562 -49.2001953125 l 1,26,-1
 341.485351562 62.3203125 l 1,27,-1
 461.205078125 401.799804688 l 1,28,-1
 715.405273438 1120.12011719 l 1,29,-1
 859.725585938 1530.12011719 l 1,0,-1
912.205078125 1466.16015625 m 1,30,-1
 900.725585938 1469.44042969 l 1,31,-1
 833.485351562 1280.83984375 l 1,32,-1
 694.0859375 885.599609375 l 1,33,-1
 343.125976562 -109.879882812 l 1,34,-1
 356.245117188 -113.16015625 l 1,35,-1
 366.0859375 -90.2001953125 l 1,36,-1
 387.405273438 -31.16015625 l 1,37,-1
 487.4453125 252.559570312 l 1,38,-1
 912.205078125 1466.16015625 l 1,30,-1
213.565429688 1402.20019531 m 1,39,40
 330.748046875 1417.07324219 330.748046875 1417.07324219 371.005859375 1348.08007812 c 1,41,42
 380.641601562 1324.38476562 380.641601562 1324.38476562 382.485351562 1312 c 0,43,44
 383.078125 1290.15429688 383.078125 1290.15429688 384.125976562 1287.40039062 c 0,45,46
 387.625 1279.70019531 387.625 1279.70019531 397.576171875 1266.73828125 c 0,47,48
 410.590820312 1248.54882812 410.590820312 1248.54882812 413.645507812 1238.20019531 c 0,47,48
 431.017578125 1175.66113281 431.017578125 1175.66113281 383.518554688 1131.05371094 c 0,49,50
 360.12890625 1110.55273438 360.12890625 1110.55273438 331.645507812 1105.36035156 c 0,49,50
 285.305664062 1098.421875 285.305664062 1098.421875 251.28515625 1121.75976562 c 0,51,52
 246.803710938 1124.74804688 246.803710938 1124.74804688 239.262695312 1132.70019531 c 0,53,54
 229.599609375 1141.97460938 229.599609375 1141.97460938 225.045898438 1144.71972656 c 0,53,54
 220.34375 1147.54101562 220.34375 1147.54101562 207.631835938 1148.87695312 c 0,55,56
 197.700195312 1150.22460938 197.700195312 1150.22460938 193.885742188 1151.28027344 c 0,55,56
 149.3515625 1171.421875 149.3515625 1171.421875 131.565429688 1211.95996094 c 1,57,58
 125.016601562 1231.60742188 125.016601562 1231.60742188 125.005859375 1266.08007812 c 0,59,60
 124.30859375 1385.79589844 124.30859375 1385.79589844 213.565429688 1402.20019531 c 1,39,40
252.92578125 1354.63964844 m 0,61,62
 214.5390625 1350.984375 214.5390625 1350.984375 186.706054688 1309.91210938 c 0,63,64
 174.09765625 1289.62109375 174.09765625 1289.62109375 174.205078125 1272.63964844 c 0,63,64
 175.974609375 1237.25195312 175.974609375 1237.25195312 217.1484375 1207.56835938 c 0,65,66
 238.427734375 1192.2265625 238.427734375 1192.2265625 256.205078125 1193.91992188 c 0,65,66
 294.65234375 1197.58203125 294.65234375 1197.58203125 322.646484375 1239.57617188 c 0,67,68
 334.314453125 1258.63378906 334.314453125 1258.63378906 334.92578125 1274.28027344 c 0,67,68
 334.92578125 1309.83496094 334.92578125 1309.83496094 292.390625 1340.18945312 c 0,69,70
 270.940429688 1355.49804688 270.940429688 1355.49804688 252.92578125 1354.63964844 c 0,61,62
945.005859375 218.120117188 m 1,69,70
 1061.328125 232.869140625 1061.328125 232.869140625 1102.4453125 162.360351562 c 0,71,72
 1104.51269531 158.225585938 1104.51269531 158.225585938 1111.36816406 119.173828125 c 0,73,74
 1113.31445312 110.442382812 1113.31445312 110.442382812 1115.56542969 104.959960938 c 0,73,74
 1118.70703125 96.3203125 1118.70703125 96.3203125 1129.59863281 81.166015625 c 0,75,76
 1141.58007812 63.5556640625 1141.58007812 63.5556640625 1145.0859375 54.1201171875 c 0,75,76
 1162.50097656 -10.3154296875 1162.50097656 -10.3154296875 1112.7265625 -55.0859375 c 0,77,78
 1088.77929688 -75.2353515625 1088.77929688 -75.2353515625 1059.80566406 -80.3603515625 c 1,77,78
 1016.51367188 -84.3720703125 1016.51367188 -84.3720703125 981.0859375 -62.3203125 c 0,79,80
 977.571289062 -59.5087890625 977.571289062 -59.5087890625 970.54296875 -52.078125 c 0,81,82
 961.170898438 -42.171875 961.170898438 -42.171875 956.485351562 -39.3603515625 c 0,81,82
 951.783203125 -36.5390625 951.783203125 -36.5390625 939.072265625 -35.203125 c 0,83,84
 929.139648438 -33.85546875 929.139648438 -33.85546875 925.325195312 -32.7998046875 c 0,83,84
 883.203125 -15.24609375 883.203125 -15.24609375 864.645507812 24.599609375 c 0,85,86
 856.456054688 45.9365234375 856.456054688 45.9365234375 856.4453125 86.919921875 c 0,87,88
 859.005859375 202.024414062 859.005859375 202.024414062 945.005859375 218.120117188 c 1,69,70
984.365234375 170.559570312 m 0,89,90
 946.471679688 168.755859375 946.471679688 168.755859375 917.924804688 125.2578125 c 0,91,92
 906.252929688 105.93359375 906.252929688 105.93359375 905.645507812 90.2001953125 c 0,91,92
 903.947265625 54.541015625 903.947265625 54.541015625 948.024414062 24.0244140625 c 0,93,94
 969.067382812 10.5029296875 969.067382812 10.5029296875 986.005859375 9.83984375 c 0,93,94
 1023.89941406 11.64453125 1023.89941406 11.64453125 1052.44628906 55.142578125 c 0,95,96
 1064.11816406 74.4658203125 1064.11816406 74.4658203125 1064.72558594 90.2001953125 c 0,95,96
 1064.72558594 126.311523438 1064.72558594 126.311523438 1021.95996094 156.375 c 0,97,98
 1001.203125 169.893554688 1001.203125 169.893554688 984.365234375 170.559570312 c 0,89,90
EndSplineSet
EndChar

StartChar: parenleft
Encoding: 40 40 11
Width: 799
VWidth: 1639
GlyphClass: 2
Flags: W
LayerCount: 2
Fore
SplineSet
650.186523438 1239.83984375 m 1,0,1
 674.786132812 1249.6796875 674.786132812 1249.6796875 674.786132812 1249.6796875 c 1,2,3
 693.93359375 1249.6796875 693.93359375 1249.6796875 698.310546875 1228.23144531 c 0,4,5
 698.881835938 1221.55078125 698.881835938 1221.55078125 697.74609375 1216.87988281 c 0,4,5
 691.625976562 1201.14257812 691.625976562 1201.14257812 646.944335938 1140.80859375 c 0,6,7
 642.798828125 1135.10839844 642.798828125 1135.10839844 640.346679688 1131.59960938 c 0,6,7
 537.380859375 978.99609375 537.380859375 978.99609375 518.986328125 947.919921875 c 0,8,9
 369.717773438 689.229492188 369.717773438 689.229492188 358.266601562 452.639648438 c 0,10,11
 354.477539062 377.115234375 354.477539062 377.115234375 374.666992188 275.51953125 c 1,12,13
 390.836914062 184.094726562 390.836914062 184.094726562 414.026367188 131.200195312 c 0,14,15
 465.758789062 13.365234375 465.758789062 13.365234375 617.434570312 -190.807617188 c 0,16,17
 643.45703125 -225.8515625 643.45703125 -225.8515625 653.466796875 -239.440429688 c 0,16,17
 660.15234375 -248.354492188 660.15234375 -248.354492188 663.114257812 -281.229492188 c 0,18,19
 664.427734375 -290.573242188 664.427734375 -290.573242188 666.586914062 -296.83984375 c 0,18,19
 669.15234375 -304.025390625 669.15234375 -304.025390625 681.288085938 -319.69140625 c 0,20,21
 709.727539062 -356.405273438 709.727539062 -356.405273438 692.826171875 -375.559570312 c 0,20,21
 666.920898438 -402.77734375 666.920898438 -402.77734375 607.546875 -357.51953125 c 0,22,23
 602.323242188 -353.24609375 602.323242188 -353.24609375 560.13671875 -335.389648438 c 0,24,25
 553.013671875 -332.138671875 553.013671875 -332.138671875 548.506835938 -329.639648438 c 0,24,25
 505.3828125 -302.810546875 505.3828125 -302.810546875 445.186523438 -242.719726562 c 0,26,27
 117.008789062 87.296875 117.008789062 87.296875 100.786132812 449.360351562 c 0,28,29
 95.6796875 599.46484375 95.6796875 599.46484375 123.74609375 715.040039062 c 0,30,31
 181.586914062 953.884765625 181.586914062 953.884765625 379.586914062 1166.04003906 c 0,32,33
 438.428710938 1228.87988281 438.428710938 1228.87988281 522.266601562 1293.95996094 c 0,34,35
 528.654296875 1298.21777344 528.654296875 1298.21777344 541.946289062 1308.59667969 c 0,36,37
 571.345703125 1330.84863281 571.345703125 1330.84863281 586.2265625 1336.59960938 c 0,36,37
 586.2265625 1338.24023438 586.2265625 1338.24023438 596.06640625 1337.41992188 c 2,38,-1
 605.90625 1336.59960938 l 2,38,39
 609.608398438 1336.59960938 609.608398438 1336.59960938 618.5078125 1337.45019531 c 0,40,41
 647.927734375 1339.09863281 647.927734375 1339.09863281 656.74609375 1331.6796875 c 1,40,41
 663.5703125 1321.67871094 663.5703125 1321.67871094 663.306640625 1300.51953125 c 0,42,43
 660.453125 1257.71484375 660.453125 1257.71484375 657.39453125 1251.34765625 c 0,44,45
 653.77734375 1244.77246094 653.77734375 1244.77246094 650.186523438 1239.83984375 c 1,0,1
587.866210938 1261.16015625 m 1,44,45
 521.55078125 1222.80566406 521.55078125 1222.80566406 423.866210938 1118.48046875 c 0,46,47
 223.938476562 909.137695312 223.938476562 909.137695312 166.38671875 657.639648438 c 0,48,49
 144.990234375 561.0703125 144.990234375 561.0703125 146.70703125 496.919921875 c 0,50,51
 154.451171875 245.545898438 154.451171875 245.545898438 328.74609375 -8.2001953125 c 1,52,53
 406.361328125 -117.950195312 406.361328125 -117.950195312 515.70703125 -219.759765625 c 0,54,55
 574.390625 -274.776367188 574.390625 -274.776367188 594.795898438 -284.690429688 c 0,56,57
 602.965820312 -288.349609375 602.965820312 -288.349609375 609.186523438 -290.280273438 c 1,56,57
 603.236328125 -276.869140625 603.236328125 -276.869140625 576.38671875 -242.719726562 c 0,58,59
 549.891601562 -207.259765625 549.891601562 -207.259765625 518.986328125 -162.360351562 c 0,60,61
 411.829101562 -13.966796875 411.829101562 -13.966796875 361.546875 100.040039062 c 0,62,63
 222.313476562 413.8046875 222.313476562 413.8046875 312.021484375 746.23828125 c 0,64,65
 336.5625 835.919921875 336.5625 835.919921875 376.306640625 918.400390625 c 0,64,65
 429.591796875 1026.81738281 429.591796875 1026.81738281 499.306640625 1131.59960938 c 0,66,67
 510.004882812 1147.96289062 510.004882812 1147.96289062 533.913085938 1180.33398438 c 0,68,69
 572.842773438 1233.50976562 572.842773438 1233.50976562 587.866210938 1261.16015625 c 1,44,45
EndSplineSet
EndChar

StartChar: parenright
Encoding: 41 41 12
Width: 901
VWidth: 1639
GlyphClass: 2
Flags: W
LayerCount: 2
Fore
SplineSet
193.49609375 -336.200195312 m 1,0,1
 180.169921875 -343.145507812 180.169921875 -343.145507812 137.736328125 -342.759765625 c 0,2,3
 114.5390625 -341.482421875 114.5390625 -341.482421875 108.216796875 -336.200195312 c 1,4,5
 99.1015625 -322.375976562 99.1015625 -322.375976562 103.296875 -285.360351562 c 1,6,7
 103.296875 -267.3203125 l 1,8,9
 108.80078125 -247.504882812 108.80078125 -247.504882812 155.271484375 -187.571289062 c 0,10,11
 158.796875 -182.950195312 158.796875 -182.950195312 160.6953125 -180.400390625 c 0,10,11
 232.25 -78.806640625 232.25 -78.806640625 275.49609375 -8.2001953125 c 1,12,13
 432.298828125 267.82421875 432.298828125 267.82421875 442.775390625 480.51953125 c 0,14,15
 448.447265625 610.7421875 448.447265625 610.7421875 385.376953125 785.559570312 c 0,16,17
 334.669921875 925 334.669921875 925 182.642578125 1136.89746094 c 0,18,19
 175.341796875 1147.06933594 175.341796875 1147.06933594 155.775390625 1174.24023438 c 0,18,19
 150.6796875 1181.375 150.6796875 1181.375 138.048828125 1196.54492188 c 0,20,21
 108.724609375 1232.72460938 108.724609375 1232.72460938 101.65625 1251.3203125 c 1,20,21
 98.34375 1266.85253906 98.34375 1266.85253906 101.65625 1293.95996094 c 1,22,23
 102.857421875 1319.91503906 102.857421875 1319.91503906 106.576171875 1325.12011719 c 0,24,25
 120.890625 1338.63671875 120.890625 1338.63671875 170.537109375 1336.59960938 c 0,26,27
 208.806640625 1335.37402344 208.806640625 1335.37402344 255.81640625 1297.24023438 c 0,28,29
 285.08203125 1273.00585938 285.08203125 1273.00585938 357.49609375 1200.48046875 c 0,30,31
 523.193359375 1033.65332031 523.193359375 1033.65332031 623.17578125 772.440429688 c 0,32,33
 685.83203125 607.067382812 685.83203125 607.067382812 696.9765625 500.200195312 c 0,34,35
 727.07421875 188.586914062 727.07421875 188.586914062 522.74609375 -96.0546875 c 0,36,37
 458.5546875 -184.739257812 458.5546875 -184.739257812 378.81640625 -259.120117188 c 0,36,37
 290.431640625 -340.626953125 290.431640625 -340.626953125 227.935546875 -378.83984375 c 1,38,39
 198.37109375 -394.966796875 198.37109375 -394.966796875 185.486328125 -374.409179688 c 0,40,41
 182.400390625 -367.591796875 182.400390625 -367.591796875 182.015625 -360.799804688 c 0,40,41
 182.734375 -358.958984375 182.734375 -358.958984375 193.49609375 -336.200195312 c 1,0,1
177.095703125 -268.959960938 m 1,42,43
 250.37890625 -227.298828125 250.37890625 -227.298828125 364.056640625 -103.3203125 c 0,44,45
 556.580078125 103.694335938 556.580078125 103.694335938 605.55078125 356.512695312 c 0,46,47
 621.470703125 440.70703125 621.470703125 440.70703125 618.255859375 519.879882812 c 0,46,47
 608.154296875 732.560546875 608.154296875 732.560546875 472.296875 949.559570312 c 0,48,49
 370.65234375 1108.953125 370.65234375 1108.953125 247.615234375 1218.51953125 c 0,50,51
 240.740234375 1224.24902344 240.740234375 1224.24902344 226.919921875 1236.16894531 c 0,52,53
 200.185546875 1259.07421875 200.185546875 1259.07421875 186.935546875 1269.36035156 c 0,52,53
 167.857421875 1283.23925781 167.857421875 1283.23925781 155.775390625 1284.12011719 c 1,54,55
 165.06640625 1266.96777344 165.06640625 1266.96777344 228.544921875 1182.29296875 c 0,56,57
 232.23046875 1177.33300781 232.23046875 1177.33300781 234.49609375 1174.24023438 c 0,56,57
 355.9296875 1002.97265625 355.9296875 1002.97265625 400.13671875 908.559570312 c 0,58,59
 525.90625 630.817382812 525.90625 630.817382812 478.85546875 346.040039062 c 0,60,61
 457.09765625 216.244140625 457.09765625 216.244140625 383.736328125 60.6796875 c 0,62,63
 332.076171875 -45.099609375 332.076171875 -45.099609375 265.65625 -141.040039062 c 0,64,65
 255.81640625 -155.252929688 255.81640625 -155.252929688 235.04296875 -183.315429688 c 0,66,67
 193.345703125 -240.059570312 193.345703125 -240.059570312 177.095703125 -268.959960938 c 1,42,43
195.13671875 -334.559570312 m 1,66,-1
 193.49609375 -336.200195312 l 1,67,-1
 195.13671875 -334.559570312 l 1,66,-1
EndSplineSet
EndChar

StartChar: plus
Encoding: 43 43 14
Width: 905
VWidth: 1639
GlyphClass: 2
Flags: W
LayerCount: 2
Fore
SplineSet
365.520507812 897.080078125 m 1,0,-1
 506.560546875 897.080078125 l 1,1,-1
 506.560546875 808.51953125 l 1,2,-1
 541 808.51953125 l 1,3,-1
 541 539.559570312 l 1,4,-1
 862.440429688 539.559570312 l 1,5,-1
 862.440429688 451 l 1,6,-1
 896.879882812 451 l 1,7,-1
 896.879882812 357.51953125 l 1,8,-1
 541 357.51953125 l 1,9,-1
 541 1.6396484375 l 1,10,-1
 445.879882812 1.6396484375 l 1,11,-1
 445.879882812 44.2802734375 l 1,12,-1
 365.520507812 44.2802734375 l 1,13,-1
 365.520507812 357.51953125 l 1,14,-1
 88.3603515625 357.51953125 l 1,15,-1
 88.3603515625 400.16015625 l 1,16,-1
 8 400.16015625 l 1,17,-1
 8 539.559570312 l 1,18,-1
 365.520507812 539.559570312 l 1,19,-1
 365.520507812 897.080078125 l 1,0,-1
460.639648438 851.16015625 m 1,20,-1
 411.440429688 851.16015625 l 1,21,-1
 411.440429688 493.639648438 l 1,22,-1
 53.919921875 493.639648438 l 1,23,-1
 53.919921875 446.080078125 l 1,24,-1
 411.440429688 446.080078125 l 1,25,-1
 411.440429688 90.2001953125 l 1,26,-1
 460.639648438 90.2001953125 l 1,27,-1
 460.639648438 446.080078125 l 1,28,-1
 816.520507812 446.080078125 l 1,29,-1
 816.520507812 493.639648438 l 1,30,-1
 460.639648438 493.639648438 l 1,31,-1
 460.639648438 851.16015625 l 1,20,-1
EndSplineSet
EndChar

StartChar: hyphen
Encoding: 45 45 16
AltUni2: 002212.ffffffff.0 0000ad.ffffffff.0
Width: 1129
VWidth: 1639
GlyphClass: 2
Flags: W
LayerCount: 2
Fore
SplineSet
120 541.200195312 m 1,0,-1
 974.440429688 541.200195312 l 1,1,-1
 974.440429688 452.639648438 l 1,2,-1
 1008.87988281 452.639648438 l 1,3,-1
 1008.87988281 357.51953125 l 1,4,-1
 200.360351562 357.51953125 l 1,5,-1
 200.360351562 400.16015625 l 1,6,-1
 120 400.16015625 l 1,7,-1
 120 541.200195312 l 1,0,-1
928.520507812 495.280273438 m 1,8,-1
 165.919921875 495.280273438 l 1,9,-1
 165.919921875 446.080078125 l 1,10,-1
 928.520507812 446.080078125 l 1,11,-1
 928.520507812 495.280273438 l 1,8,-1
EndSplineSet
EndChar

StartChar: period
Encoding: 46 46 17
Width: 594
VWidth: 1639
GlyphClass: 2
Flags: W
LayerCount: 2
Fore
SplineSet
193.482421875 236.16015625 m 1,0,1
 307.885742188 250.602539062 307.885742188 250.602539062 347.641601562 178.759765625 c 0,2,3
 349.799804688 174.8046875 349.799804688 174.8046875 355.194335938 135.815429688 c 0,4,5
 356.892578125 126.877929688 356.892578125 126.877929688 359.122070312 121.360351562 c 0,4,5
 362.849609375 112.4140625 362.849609375 112.4140625 373.692382812 97.912109375 c 0,6,7
 386.602539062 79.548828125 386.602539062 79.548828125 390.282226562 68.8798828125 c 0,6,7
 406.150390625 5.4052734375 406.150390625 5.4052734375 357.516601562 -38.0107421875 c 0,8,9
 334.3984375 -57.2783203125 334.3984375 -57.2783203125 306.641601562 -62.3203125 c 0,8,9
 260.302734375 -69.2587890625 260.302734375 -69.2587890625 226.282226562 -45.919921875 c 0,10,11
 221.362304688 -42.6396484375 221.362304688 -42.6396484375 213.162109375 -33.6201171875 c 0,12,13
 204.178710938 -24.4423828125 204.178710938 -24.4423828125 200.041992188 -21.3203125 c 1,12,13
 195.122070312 -19.6796875 195.122070312 -19.6796875 184.461914062 -18.0400390625 c 0,14,15
 173.357421875 -16.0810546875 173.357421875 -16.0810546875 168.881835938 -14.759765625 c 0,14,15
 127.930664062 1.4775390625 127.930664062 1.4775390625 108.202148438 44.2802734375 c 0,16,17
 103.404296875 56.166015625 103.404296875 56.166015625 100.001953125 98.400390625 c 1,18,19
 99.54296875 219.427734375 99.54296875 219.427734375 193.482421875 236.16015625 c 1,0,1
224.641601562 186.959960938 m 1,20,21
 183.436523438 178.71875 183.436523438 178.71875 158.958984375 139.254882812 c 0,22,23
 149.1015625 121.627929688 149.1015625 121.627929688 149.202148438 106.599609375 c 0,22,23
 150.927734375 70.359375 150.927734375 70.359375 191.21875 41.353515625 c 0,24,25
 214.169921875 26.1611328125 214.169921875 26.1611328125 232.841796875 27.8798828125 c 0,24,25
 271.983398438 33.7509765625 271.983398438 33.7509765625 298.428710938 73.16015625 c 0,26,27
 310.686523438 91.427734375 310.686523438 91.427734375 309.921875 108.240234375 c 0,26,27
 308.176757812 144.884765625 308.176757812 144.884765625 265.989257812 174.037109375 c 0,28,29
 242.995117188 188.657226562 242.995117188 188.657226562 224.641601562 186.959960938 c 1,20,21
EndSplineSet
EndChar

StartChar: slash
Encoding: 47 47 18
Width: 507
VWidth: 1639
GlyphClass: 2
Flags: W
LayerCount: 2
Fore
SplineSet
7.919921875 -93.48046875 m 1,0,1
 1.359375 -91.83984375 1.359375 -91.83984375 6.6669921875 -74.7470703125 c 0,2,3
 7.919921875 -73.7998046875 7.919921875 -73.7998046875 7.919921875 -72.16015625 c 2,4,-1
 7.919921875 -70.51953125 l 2,2,3
 8.701171875 -65.8916015625 8.701171875 -65.8916015625 22.6796875 -1.6396484375 c 0,4,5
 66.6142578125 186.91015625 66.6142578125 186.91015625 88.2802734375 296.83984375 c 0,6,7
 117.409179688 442.27734375 117.409179688 442.27734375 267.040039062 1105.36035156 c 1,8,9
 296.743164062 1253.47460938 296.743164062 1253.47460938 314.599609375 1325.12011719 c 0,10,11
 317.059570312 1334.95996094 317.059570312 1334.95996094 321.16015625 1353.8203125 c 0,12,13
 325.443359375 1373.28515625 325.443359375 1373.28515625 327.719726562 1382.51953125 c 2,12,13
 334.280273438 1408.75976562 l 1,14,15
 338.123046875 1411.48925781 338.123046875 1411.48925781 367.080078125 1410.40039062 c 2,16,-1
 463.83984375 1410.40039062 l 1,17,-1
 458.919921875 1387.44042969 l 1,18,19
 465.479492188 1385.79980469 465.479492188 1385.79980469 460.172851562 1368.70703125 c 0,20,21
 458.919921875 1367.75976562 458.919921875 1367.75976562 458.919921875 1366.12011719 c 2,22,-1
 458.919921875 1364.48046875 l 1,20,21
 463.655273438 1358.22851562 463.655273438 1358.22851562 455.639648438 1321.83984375 c 1,22,-1
 498.280273438 1321.83984375 l 1,23,-1
 465.479492188 1174.24023438 l 1,24,-1
 403.16015625 890.51953125 l 1,25,-1
 242.439453125 150.879882812 l 1,26,-1
 168.639648438 -182.040039062 l 1,27,-1
 83.359375 -182.040039062 l 1,28,-1
 91.5595703125 -139.400390625 l 1,29,-1
 3 -139.400390625 l 1,30,-1
 7.919921875 -116.440429688 l 1,31,32
 1.359375 -114.799804688 1.359375 -114.799804688 6.6669921875 -97.70703125 c 0,33,34
 7.919921875 -96.759765625 7.919921875 -96.759765625 7.919921875 -95.1201171875 c 2,35,-1
 7.919921875 -93.48046875 l 1,0,1
408.080078125 1364.48046875 m 1,33,-1
 381.83984375 1362.83984375 l 1,34,-1
 373.639648438 1341.51953125 l 1,35,-1
 362.16015625 1284.12011719 l 1,36,-1
 304.759765625 1026.63964844 l 1,37,-1
 148.959960938 314.879882812 l 1,38,-1
 91.5595703125 54.1201171875 l 1,39,-1
 58.759765625 -93.48046875 l 1,40,-1
 88.2802734375 -93.48046875 l 1,41,-1
 162.080078125 239.440429688 l 1,42,-1
 322.799804688 979.080078125 l 1,43,-1
 408.080078125 1364.48046875 l 1,33,-1
EndSplineSet
EndChar

StartChar: colon
Encoding: 58 58 29
Width: 594
VWidth: 1639
GlyphClass: 2
Flags: W
LayerCount: 2
Fore
SplineSet
190.306640625 770.799804688 m 0,0,1
 304.584960938 785.765625 304.584960938 785.765625 346.106445312 716.6796875 c 1,2,3
 355.743164062 692.984375 355.743164062 692.984375 357.586914062 680.599609375 c 0,4,5
 358.178710938 658.83203125 358.178710938 658.83203125 359.2265625 656 c 0,6,7
 362.7265625 648.299804688 362.7265625 648.299804688 372.677734375 635.337890625 c 0,8,9
 385.69140625 617.1484375 385.69140625 617.1484375 388.74609375 606.799804688 c 0,8,9
 406.494140625 542.909179688 406.494140625 542.909179688 358.834960938 497.951171875 c 0,10,11
 335.5 477.435546875 335.5 477.435546875 306.74609375 472.3203125 c 1,10,11
 259.158203125 467.877929688 259.158203125 467.877929688 226.38671875 490.360351562 c 0,12,13
 221.905273438 493.34765625 221.905273438 493.34765625 214.36328125 501.299804688 c 0,14,15
 204.701171875 510.57421875 204.701171875 510.57421875 200.146484375 513.3203125 c 0,14,15
 194.40234375 516.192382812 194.40234375 516.192382812 179.83984375 518.538085938 c 0,16,17
 169.493164062 520.422851562 169.493164062 520.422851562 165.706054688 521.51953125 c 0,16,17
 125.702148438 538.298828125 125.702148438 538.298828125 108.306640625 578.919921875 c 0,18,19
 103.508789062 590.805664062 103.508789062 590.805664062 100.106445312 633.040039062 c 1,20,21
 97.0302734375 749.9453125 97.0302734375 749.9453125 182.9375 769.372070312 c 0,22,23
 187.415039062 770.290039062 187.415039062 770.290039062 190.306640625 770.799804688 c 0,0,1
229.666992188 721.599609375 m 0,22,23
 192.879882812 721.599609375 192.879882812 721.599609375 162.763671875 678.833984375 c 0,24,25
 149.227539062 657.983398438 149.227539062 657.983398438 149.306640625 641.240234375 c 0,24,25
 151.111328125 603.345703125 151.111328125 603.345703125 194.609375 574.799804688 c 0,26,27
 213.3203125 562.51953125 213.3203125 562.51953125 229.666992188 562.51953125 c 0,26,27
 265.778320312 562.51953125 265.778320312 562.51953125 295.841796875 605.286132812 c 0,28,29
 309.359375 626.041992188 309.359375 626.041992188 310.026367188 642.879882812 c 0,28,29
 308.221679688 680.7734375 308.221679688 680.7734375 264.723632812 709.3203125 c 0,30,31
 246.012695312 721.599609375 246.012695312 721.599609375 229.666992188 721.599609375 c 0,22,23
193.586914062 236.16015625 m 1,30,31
 307.990234375 250.602539062 307.990234375 250.602539062 347.74609375 178.759765625 c 0,32,33
 349.904296875 174.8046875 349.904296875 174.8046875 355.298828125 135.815429688 c 0,34,35
 356.997070312 126.877929688 356.997070312 126.877929688 359.2265625 121.360351562 c 0,34,35
 362.954101562 112.4140625 362.954101562 112.4140625 373.796875 97.912109375 c 0,36,37
 386.70703125 79.548828125 386.70703125 79.548828125 390.38671875 68.8798828125 c 0,36,37
 406.254882812 5.4052734375 406.254882812 5.4052734375 357.62109375 -38.0107421875 c 0,38,39
 334.502929688 -57.2783203125 334.502929688 -57.2783203125 306.74609375 -62.3203125 c 0,38,39
 260.407226562 -69.2587890625 260.407226562 -69.2587890625 226.38671875 -45.919921875 c 0,40,41
 221.466796875 -42.6396484375 221.466796875 -42.6396484375 213.266601562 -33.6201171875 c 0,42,43
 204.283203125 -24.4423828125 204.283203125 -24.4423828125 200.146484375 -21.3203125 c 1,42,43
 195.2265625 -19.6796875 195.2265625 -19.6796875 184.56640625 -18.0400390625 c 0,44,45
 173.461914062 -16.0810546875 173.461914062 -16.0810546875 168.986328125 -14.759765625 c 0,44,45
 128.03515625 1.4775390625 128.03515625 1.4775390625 108.306640625 44.2802734375 c 0,46,47
 103.508789062 56.166015625 103.508789062 56.166015625 100.106445312 98.400390625 c 1,48,49
 99.6474609375 219.427734375 99.6474609375 219.427734375 193.586914062 236.16015625 c 1,30,31
224.74609375 186.959960938 m 1,50,51
 183.541015625 178.71875 183.541015625 178.71875 159.063476562 139.254882812 c 0,52,53
 149.206054688 121.627929688 149.206054688 121.627929688 149.306640625 106.599609375 c 0,52,53
 151.032226562 70.359375 151.032226562 70.359375 191.323242188 41.353515625 c 0,54,55
 214.274414062 26.1611328125 214.274414062 26.1611328125 232.946289062 27.8798828125 c 0,54,55
 272.087890625 33.7509765625 272.087890625 33.7509765625 298.533203125 73.16015625 c 0,56,57
 310.791015625 91.427734375 310.791015625 91.427734375 310.026367188 108.240234375 c 0,56,57
 308.28125 144.884765625 308.28125 144.884765625 266.09375 174.037109375 c 0,58,59
 243.099609375 188.657226562 243.099609375 188.657226562 224.74609375 186.959960938 c 1,50,51
EndSplineSet
EndChar

StartChar: equal
Encoding: 61 61 32
Width: 905
VWidth: 1639
GlyphClass: 2
Flags: W
LayerCount: 2
Fore
SplineSet
8 682.240234375 m 1,0,-1
 862.440429688 682.240234375 l 1,1,-1
 862.440429688 593.6796875 l 1,2,-1
 896.879882812 593.6796875 l 1,3,-1
 896.879882812 498.559570312 l 1,4,-1
 88.3603515625 498.559570312 l 1,5,-1
 88.3603515625 541.200195312 l 1,6,-1
 8 541.200195312 l 1,7,-1
 8 682.240234375 l 1,0,-1
816.520507812 636.3203125 m 1,8,-1
 53.919921875 636.3203125 l 1,9,-1
 53.919921875 587.120117188 l 1,10,-1
 816.520507812 587.120117188 l 1,11,-1
 816.520507812 636.3203125 l 1,8,-1
8 377.200195312 m 1,12,-1
 862.440429688 377.200195312 l 1,13,-1
 862.440429688 288.639648438 l 1,14,-1
 896.879882812 288.639648438 l 1,15,-1
 896.879882812 193.51953125 l 1,16,-1
 88.3603515625 193.51953125 l 1,17,-1
 88.3603515625 236.16015625 l 1,18,-1
 8 236.16015625 l 1,19,-1
 8 377.200195312 l 1,12,-1
816.520507812 331.280273438 m 1,20,-1
 53.919921875 331.280273438 l 1,21,-1
 53.919921875 282.080078125 l 1,22,-1
 816.520507812 282.080078125 l 1,23,-1
 816.520507812 331.280273438 l 1,20,-1
EndSplineSet
EndChar

StartChar: bracketleft
Encoding: 91 91 62
Width: 684
VWidth: 1639
GlyphClass: 2
Flags: W
LayerCount: 2
Fore
SplineSet
100 1938.48046875 m 1,0,-1
 549.360351562 1938.48046875 l 1,1,-1
 549.360351562 1849.91992188 l 1,2,-1
 583.799804688 1849.91992188 l 1,3,-1
 583.799804688 1772.83984375 l 1,4,-1
 357.48046875 1772.83984375 l 1,5,-1
 357.48046875 -27.8798828125 l 1,6,-1
 549.360351562 -27.8798828125 l 1,7,-1
 549.360351562 -116.440429688 l 1,8,-1
 583.799804688 -116.440429688 l 1,9,-1
 583.799804688 -191.879882812 l 1,10,-1
 180.360351562 -191.879882812 l 1,11,-1
 180.360351562 -149.240234375 l 1,12,-1
 100 -149.240234375 l 1,13,-1
 100 1938.48046875 l 1,0,-1
503.440429688 1892.55957031 m 1,14,-1
 145.919921875 1892.55957031 l 1,15,-1
 145.919921875 -103.3203125 l 1,16,-1
 503.440429688 -103.3203125 l 1,17,-1
 503.440429688 -73.7998046875 l 1,18,-1
 277.120117188 -73.7998046875 l 1,19,-1
 277.120117188 1861.40039062 l 1,20,-1
 503.440429688 1861.40039062 l 1,21,-1
 503.440429688 1892.55957031 l 1,14,-1
EndSplineSet
EndChar

StartChar: bracketright
Encoding: 93 93 64
Width: 733
VWidth: 1639
GlyphClass: 2
Flags: W
LayerCount: 2
Fore
SplineSet
100 1935.20019531 m 1,0,-1
 498.51953125 1935.20019531 l 1,1,-1
 498.51953125 1846.63964844 l 1,2,-1
 532.959960938 1846.63964844 l 1,3,-1
 532.959960938 -191.879882812 l 1,4,-1
 180.359375 -191.879882812 l 1,5,-1
 180.359375 -149.240234375 l 1,6,-1
 100 -149.240234375 l 1,7,-1
 100 -27.8798828125 l 1,8,-1
 275.479492188 -27.8798828125 l 1,9,-1
 275.479492188 1771.20019531 l 1,10,-1
 180.359375 1771.20019531 l 1,11,-1
 180.359375 1813.83984375 l 1,12,-1
 100 1813.83984375 l 1,13,-1
 100 1935.20019531 l 1,0,-1
452.599609375 1889.28027344 m 1,14,-1
 145.919921875 1889.28027344 l 1,15,-1
 145.919921875 1859.75976562 l 1,16,-1
 321.399414062 1859.75976562 l 1,17,-1
 321.399414062 -73.7998046875 l 1,18,-1
 145.919921875 -73.7998046875 l 1,19,-1
 145.919921875 -103.3203125 l 1,20,-1
 452.599609375 -103.3203125 l 1,21,-1
 452.599609375 1889.28027344 l 1,14,-1
EndSplineSet
EndChar

StartChar: guillemotleft
Encoding: 171 171 175
Width: 1032
VWidth: 1639
GlyphClass: 2
Flags: W
LayerCount: 2
Fore
SplineSet
793.614257812 -31.16015625 m 1,0,1
 796.07421875 -34.4404296875 796.07421875 -34.4404296875 798.534179688 -41.8203125 c 0,2,3
 801.66796875 -49.6064453125 801.66796875 -49.6064453125 803.454101562 -52.48046875 c 0,2,3
 806.450195312 -58.47265625 806.450195312 -58.47265625 814.688476562 -70.5390625 c 0,4,5
 828.8671875 -92.5068359375 828.8671875 -92.5068359375 831.333984375 -103.3203125 c 0,4,5
 834.754882812 -121.228515625 834.754882812 -121.228515625 816.57421875 -126.280273438 c 1,6,7
 799.9375 -127.319335938 799.9375 -127.319335938 757.662109375 -95.2734375 c 0,8,9
 748.134765625 -88.3662109375 748.134765625 -88.3662109375 742.774414062 -85.2802734375 c 0,8,9
 736.213867188 -82 736.213867188 -82 723.09375 -77.900390625 c 0,10,11
 709.427734375 -73.3466796875 709.427734375 -73.3466796875 703.4140625 -70.51953125 c 0,10,11
 622.934570312 -20.7509765625 622.934570312 -20.7509765625 565.654296875 55.759765625 c 0,12,13
 430.975585938 235.8203125 430.975585938 235.8203125 452.963867188 461.995117188 c 0,14,15
 469.412109375 621.393554688 469.412109375 621.393554688 562.374023438 746.200195312 c 0,14,15
 607.629882812 807.240234375 607.629882812 807.240234375 657.494140625 844.599609375 c 1,16,17
 718.975585938 887.63671875 718.975585938 887.63671875 762.454101562 880.6796875 c 0,18,19
 764.9765625 880.6796875 764.9765625 880.6796875 769.650390625 881.598632812 c 0,20,21
 780.462890625 882.13671875 780.462890625 882.13671875 785.4140625 879.040039062 c 0,20,21
 791.056640625 872.749023438 791.056640625 872.749023438 790.333984375 851.16015625 c 2,22,23
 790.333984375 811.799804688 l 1,24,25
 788.594726562 807.426757812 788.594726562 807.426757812 770.654296875 777.360351562 c 1,26,27
 810.481445312 797.2734375 810.481445312 797.2734375 819.334960938 791.20703125 c 1,28,29
 824.963867188 785.094726562 824.963867188 785.094726562 826.4140625 775.719726562 c 0,28,29
 826.4140625 766.858398438 826.4140625 766.858398438 800.392578125 727.302734375 c 0,30,31
 797.997070312 723.461914062 797.997070312 723.461914062 796.89453125 721.599609375 c 0,30,31
 756.620117188 654.038085938 756.620117188 654.038085938 729.654296875 593.6796875 c 1,32,33
 651.489257812 404.654296875 651.489257812 404.654296875 687.014648438 214.83984375 c 0,34,35
 698.885742188 153.999023438 698.885742188 153.999023438 764.319335938 42.4619140625 c 0,36,37
 767.32421875 37.33203125 767.32421875 37.33203125 769.014648438 34.4404296875 c 0,36,37
 795.932617188 -5.9375 795.932617188 -5.9375 797.3125 -14.2509765625 c 0,38,39
 797.577148438 -23.984375 797.577148438 -23.984375 793.614257812 -29.51953125 c 1,38,-1
 793.614257812 -31.16015625 l 1,0,1
421.333984375 774.080078125 m 1,39,40
 473.7109375 800.297851562 473.7109375 800.297851562 477.09375 774.080078125 c 0,41,42
 478.078125 762.268554688 478.078125 762.268554688 452.264648438 725.278320312 c 0,43,44
 447.901367188 718.640625 447.901367188 718.640625 445.934570312 715.040039062 c 0,43,44
 408.594726562 653.85546875 408.594726562 653.85546875 377.053710938 580.559570312 c 1,45,46
 291.67578125 368.224609375 291.67578125 368.224609375 349.173828125 162.360351562 c 0,47,48
 359.658203125 126.142578125 359.658203125 126.142578125 418.041992188 36.9052734375 c 0,49,50
 436.236328125 8.7490234375 436.236328125 8.7490234375 445.934570312 -9.83984375 c 0,49,50
 447.48828125 -12.947265625 447.48828125 -12.947265625 448.932617188 -39.3603515625 c 0,51,52
 449.737304688 -45.5439453125 449.737304688 -45.5439453125 450.854492188 -49.2001953125 c 0,51,52
 453.018554688 -53.9609375 453.018554688 -53.9609375 461.916992188 -66.6494140625 c 0,53,54
 491.580078125 -108.946289062 491.580078125 -108.946289062 477.09375 -124.639648438 c 1,53,54
 465.228515625 -134.432617188 465.228515625 -134.432617188 424.614257812 -108.240234375 c 0,55,56
 411.112304688 -100.325195312 411.112304688 -100.325195312 384.219726562 -85.876953125 c 0,57,58
 316.95703125 -49.212890625 316.95703125 -49.212890625 286.854492188 -22.9599609375 c 0,57,58
 125.624023438 115.487304688 125.624023438 115.487304688 103.041992188 345.720703125 c 0,59,60
 95.0390625 427.319335938 95.0390625 427.319335938 108.09375 508.400390625 c 0,59,60
 138.129882812 681.68359375 138.129882812 681.68359375 265.444335938 805.30078125 c 0,61,62
 281.547851562 820.677734375 281.547851562 820.677734375 296.694335938 833.120117188 c 0,61,62
 344.545898438 872.486328125 344.545898438 872.486328125 377.053710938 879.040039062 c 0,63,64
 377.053710938 880.6796875 377.053710938 880.6796875 386.07421875 879.860351562 c 2,65,-1
 395.09375 879.040039062 l 2,65,66
 397.709960938 879.040039062 397.709960938 879.040039062 405.19921875 879.775390625 c 0,67,68
 429.623046875 881.35546875 429.623046875 881.35546875 436.09375 877.400390625 c 0,67,68
 442.139648438 871.5859375 442.139648438 871.5859375 441.014648438 849.51953125 c 2,69,70
 441.014648438 808.51953125 l 1,71,72
 439.274414062 804.146484375 439.274414062 804.146484375 421.333984375 774.080078125 c 1,39,40
711.614257812 803.599609375 m 1,73,74
 654.526367188 769.369140625 654.526367188 769.369140625 588.614257812 674.040039062 c 1,75,76
 496.774414062 531.8359375 496.774414062 531.8359375 496.774414062 403.440429688 c 0,77,78
 497.78515625 258.784179688 497.78515625 258.784179688 601.734375 116.440429688 c 0,79,80
 664.365234375 29.0517578125 664.365234375 29.0517578125 718.173828125 -3.2802734375 c 1,81,82
 708.54296875 15.3798828125 708.54296875 15.3798828125 687.522460938 51.359375 c 0,83,84
 651.232421875 114.036132812 651.232421875 114.036132812 637.814453125 147.599609375 c 0,83,84
 552.255859375 378.346679688 552.255859375 378.346679688 623.053710938 608.440429688 c 0,85,86
 636.08203125 651.533203125 636.08203125 651.533203125 700.444335938 780.690429688 c 0,87,88
 706.9140625 793.748046875 706.9140625 793.748046875 711.614257812 803.599609375 c 1,73,74
362.293945312 800.3203125 m 1,87,88
 308.936523438 771.658203125 308.936523438 771.658203125 239.293945312 669.120117188 c 0,89,90
 142.918945312 525.538085938 142.918945312 525.538085938 149.09375 385.400390625 c 1,91,92
 157.051757812 247.412109375 157.051757812 247.412109375 252.4140625 114.799804688 c 0,93,94
 317.486328125 22.59765625 317.486328125 22.59765625 368.854492188 -4.919921875 c 1,95,96
 300.491210938 121.01171875 300.491210938 121.01171875 295.431640625 132.637695312 c 0,97,98
 287.533203125 151.13671875 287.533203125 151.13671875 281.934570312 167.280273438 c 0,97,98
 210.551757812 369.120117188 210.551757812 369.120117188 266.133789062 581.276367188 c 0,99,100
 268.456054688 589.981445312 268.456054688 589.981445312 270.454101562 596.959960938 c 0,99,100
 282.87109375 639.940429688 282.87109375 639.940429688 344.276367188 762.702148438 c 0,101,102
 355.008789062 784.3125 355.008789062 784.3125 362.293945312 800.3203125 c 1,87,88
770.654296875 777.360351562 m 1,101,-1
 769.014648438 775.719726562 l 1,102,-1
 770.654296875 777.360351562 l 1,101,-1
EndSplineSet
EndChar

StartChar: guillemotright
Encoding: 187 187 176
Width: 1028
VWidth: 1639
GlyphClass: 2
Flags: W
LayerCount: 2
Fore
SplineSet
554.516601562 -65.599609375 m 1,0,1
 549.399414062 -67.51953125 549.399414062 -67.51953125 539.717773438 -72.82421875 c 0,2,3
 524.149414062 -80.6796875 524.149414062 -80.6796875 516.796875 -82 c 0,2,3
 513.516601562 -82 513.516601562 -82 510.237304688 -82.8203125 c 0,4,5
 506.95703125 -83.6396484375 506.95703125 -83.6396484375 504.497070312 -83.6396484375 c 0,6,7
 502.037109375 -83.6396484375 502.037109375 -83.6396484375 497.9375 -82.8203125 c 0,8,9
 493.836914062 -82 493.836914062 -82 492.197265625 -82 c 0,10,11
 490.556640625 -82 490.556640625 -82 485.63671875 -81.1796875 c 2,12,-1
 480.716796875 -80.3603515625 l 1,4,5
 459.596679688 -80.3603515625 459.596679688 -80.3603515625 458.807617188 -79.66796875 c 0,6,7
 455.958984375 -75.6708984375 455.958984375 -75.6708984375 454.4765625 -72.16015625 c 0,6,7
 452.612304688 -67.4970703125 452.612304688 -67.4970703125 453.134765625 -60.1474609375 c 0,8,9
 453.177734375 -53.58984375 453.177734375 -53.58984375 452.836914062 -50.83984375 c 2,8,9
 452.836914062 -13.1201171875 l 1,10,11
 455.559570312 -3.0439453125 455.559570312 -3.0439453125 482.357421875 36.080078125 c 1,12,13
 525.163085938 112.127929688 525.163085938 112.127929688 543.037109375 150.879882812 c 0,14,15
 603.716796875 290.444335938 603.716796875 290.444335938 603.716796875 395.240234375 c 0,16,17
 603.286132812 462.172851562 603.286132812 462.172851562 580.756835938 544.48046875 c 1,18,19
 552.079101562 639.576171875 552.079101562 639.576171875 461.037109375 787.200195312 c 0,20,21
 447.802734375 811.208984375 447.802734375 811.208984375 447.916992188 852.799804688 c 0,22,23
 449.03515625 875.743164062 449.03515625 875.743164062 451.197265625 879.040039062 c 0,24,25
 460.703125 885.572265625 460.703125 885.572265625 497.1171875 880.6796875 c 0,26,27
 499.577148438 880.6796875 499.577148438 880.6796875 504.497070312 882.3203125 c 0,28,29
 509.963867188 883.708007812 509.963867188 883.708007812 511.876953125 883.959960938 c 0,28,29
 525.89453125 879.415039062 525.89453125 879.415039062 546.317382812 865.919921875 c 0,30,31
 587.965820312 841.876953125 587.965820312 841.876953125 620.1171875 810.16015625 c 0,32,33
 699.0703125 732.658203125 699.0703125 732.658203125 746.397460938 631.400390625 c 0,34,35
 753.567382812 616.034179688 753.567382812 616.034179688 764.1484375 583.782226562 c 0,36,37
 770.8359375 563.62109375 770.8359375 563.62109375 774.27734375 554.3203125 c 0,36,37
 820.8125 442.359375 820.8125 442.359375 826.756835938 365.719726562 c 0,38,39
 839.35546875 174.647460938 839.35546875 174.647460938 720.1640625 14.412109375 c 0,40,41
 696.520507812 -16.8544921875 696.520507812 -16.8544921875 670.95703125 -42.6396484375 c 0,40,41
 626.771484375 -86.0009765625 626.771484375 -86.0009765625 584.037109375 -109.879882812 c 0,42,43
 559.362304688 -125.368164062 559.362304688 -125.368164062 546.317382812 -126.280273438 c 1,44,45
 516.133789062 -122.323242188 516.133789062 -122.323242188 554.516601562 -65.599609375 c 1,0,1
205.197265625 -72.16015625 m 1,46,47
 170.756835938 -86.919921875 170.756835938 -86.919921875 170.756835938 -86.919921875 c 2,48,49
 166.520507812 -87.6796875 166.520507812 -87.6796875 133.037109375 -86.919921875 c 0,50,51
 129.512695312 -86.4794921875 129.512695312 -86.4794921875 123.205078125 -86.76953125 c 0,52,53
 108.858398438 -84.40625 108.858398438 -84.40625 105.157226562 -75.4404296875 c 0,52,53
 105.397460938 -74.5078125 105.397460938 -74.5078125 106.796875 -55.759765625 c 1,54,55
 103.213867188 -26.421875 103.213867188 -26.421875 105.157226562 -18.0400390625 c 0,56,57
 107.055664062 -11.078125 107.055664062 -11.078125 135.0859375 31.529296875 c 0,58,59
 137.0859375 34.6826171875 137.0859375 34.6826171875 137.95703125 36.080078125 c 0,58,59
 176.791015625 105.096679688 176.791015625 105.096679688 198.63671875 152.51953125 c 1,60,61
 253.526367188 284.1171875 253.526367188 284.1171875 256.037109375 387.040039062 c 0,62,63
 257.651367188 453.212890625 257.651367188 453.212890625 231.4375 541.200195312 c 0,64,65
 204.444335938 633.029296875 204.444335938 633.029296875 116.63671875 777.360351562 c 0,66,67
 98.01171875 808.403320312 98.01171875 808.403320312 100.237304688 846.240234375 c 0,68,69
 101.354492188 869.182617188 101.354492188 869.182617188 103.516601562 872.48046875 c 0,70,71
 112.0078125 880.743164062 112.0078125 880.743164062 149.4375 875.759765625 c 0,72,73
 151.405273438 875.759765625 151.405273438 875.759765625 155.340820312 876.809570312 c 0,74,75
 161.791992188 877.716796875 161.791992188 877.716796875 164.197265625 877.400390625 c 0,74,75
 204.106445312 869.479492188 204.106445312 869.479492188 272.4375 805.240234375 c 1,76,77
 349.223632812 729.8828125 349.223632812 729.8828125 398.716796875 626.48046875 c 0,78,79
 405.887695312 611.114257812 405.887695312 611.114257812 416.46875 578.862304688 c 0,80,81
 423.15625 558.701171875 423.15625 558.701171875 426.596679688 549.400390625 c 0,80,81
 473.010742188 440.608398438 473.010742188 440.608398438 479.077148438 362.440429688 c 0,82,83
 493.490234375 143.845703125 493.490234375 143.845703125 337.548828125 -32.591796875 c 0,84,85
 333.788085938 -36.8037109375 333.788085938 -36.8037109375 331.4765625 -39.3603515625 c 0,84,85
 288.953125 -86.1875 288.953125 -86.1875 239.63671875 -114.799804688 c 0,86,87
 236.084960938 -116.322265625 236.084960938 -116.322265625 228.18359375 -120.717773438 c 0,88,89
 208.885742188 -130.61328125 208.885742188 -130.61328125 200.27734375 -131.200195312 c 0,88,89
 172.313476562 -129.868164062 172.313476562 -129.868164062 201.702148438 -78.7255859375 c 0,90,91
 204.319335938 -73.9248046875 204.319335938 -73.9248046875 205.197265625 -72.16015625 c 1,46,47
528.27734375 801.959960938 m 1,90,91
 530.16796875 794.5546875 530.16796875 794.5546875 543.037109375 774.080078125 c 0,92,93
 563.16015625 737.453125 563.16015625 737.453125 574.197265625 719.959960938 c 0,94,95
 603.750976562 665.975585938 603.750976562 665.975585938 629.95703125 578.919921875 c 1,96,97
 681.857421875 386.887695312 681.857421875 386.887695312 621.756835938 193.51953125 c 0,98,99
 598.581054688 119.8359375 598.581054688 119.8359375 533.197265625 -1.6396484375 c 1,100,101
 550.37890625 5.484375 550.37890625 5.484375 580.756835938 36.080078125 c 0,102,103
 630.887695312 86.8857421875 630.887695312 86.8857421875 666.037109375 142.6796875 c 0,104,105
 744.145507812 269.967773438 744.145507812 269.967773438 746.397460938 387.040039062 c 0,106,107
 749.938476562 534.092773438 749.938476562 534.092773438 643.077148438 682.240234375 c 0,108,109
 583.112304688 766.000976562 583.112304688 766.000976562 528.27734375 801.959960938 c 1,90,91
180.596679688 797.040039062 m 1,110,111
 181.370117188 792.633789062 181.370117188 792.633789062 192.077148438 774.080078125 c 0,112,113
 196.997070312 765.879882812 196.997070312 765.879882812 206.016601562 750.299804688 c 0,114,115
 215.426757812 734.103515625 215.426757812 734.103515625 219.95703125 726.51953125 c 0,114,115
 260.561523438 649.556640625 260.561523438 649.556640625 282.27734375 570.719726562 c 0,116,117
 333.454101562 372.81640625 333.454101562 372.81640625 272.4375 180.400390625 c 0,118,119
 253.92578125 123.083007812 253.92578125 123.083007812 183.876953125 -9.83984375 c 1,120,121
 241.813476562 27.1435546875 241.813476562 27.1435546875 300.317382812 109.879882812 c 1,122,123
 391.26171875 243.796875 391.26171875 243.796875 398.716796875 378.83984375 c 0,124,125
 400.2734375 427.58984375 400.2734375 427.58984375 382.317382812 496.919921875 c 0,126,127
 334.486328125 675.654296875 334.486328125 675.654296875 198.053710938 783.870117188 c 0,128,129
 188.579101562 791.262695312 188.579101562 791.262695312 180.596679688 797.040039062 c 1,110,111
208.4765625 -68.8798828125 m 1,128,-1
 205.197265625 -72.16015625 l 1,129,-1
 208.4765625 -68.8798828125 l 1,128,-1
EndSplineSet
EndChar

StartChar: guilsinglleft
Encoding: 8249 8249 195
Width: 566
GlyphClass: 2
Flags: W
LayerCount: 2
Fore
SplineSet
350 70 m 1,0,1
 363 48 363 48 363 35 c 0,2,3
 363 26 363 26 352 26 c 0,4,5
 343 26 343 26 326 33 c 1,6,7
 273 73 273 73 230 128 c 128,-1,8
 187 183 187 183 155 255 c 0,9,10
 126 321 126 321 113.5 385 c 128,-1,11
 101 449 101 449 100 513 c 1,12,13
 100 656 100 656 164 783 c 1,14,15
 231 904 231 904 327 958 c 1,16,17
 354 969 354 969 358 969 c 0,18,19
 366 969 366 969 366 963 c 0,20,21
 366 953 366 953 343 912 c 1,22,23
 224 746 224 746 224 513 c 0,24,25
 224 249 224 249 350 70 c 1,0,1
EndSplineSet
EndChar

StartChar: guilsinglright
Encoding: 8250 8250 196
Width: 569
GlyphClass: 2
Flags: W
LayerCount: 2
Fore
SplineSet
115 70 m 1,0,1
 244 249 244 249 244 513 c 0,2,3
 244 751 244 751 122 913 c 1,4,5
 100 954 100 954 100 963 c 0,6,7
 100 969 100 969 108 969 c 0,8,9
 110 969 110 969 118 966.5 c 128,-1,10
 126 964 126 964 137 958 c 0,11,12
 188 931 188 931 228.5 887 c 128,-1,13
 269 843 269 843 301 783 c 0,14,15
 336 718 336 718 352 650.5 c 128,-1,16
 368 583 368 583 369 513 c 0,17,18
 369 450 369 450 353.5 385 c 128,-1,19
 338 320 338 320 309 255 c 0,20,21
 279 188 279 188 235 130 c 128,-1,22
 191 72 191 72 138 33 c 1,23,24
 124 26 124 26 113 26 c 0,25,26
 101 26 101 26 101 35 c 0,27,28
 101 47 101 47 115 70 c 1,0,1
EndSplineSet
EndChar

StartChar: afii57451
Encoding: 1611 1611 311
AltUni2: 00fe70.ffffffff.0
Width: -28
VWidth: 1639
GlyphClass: 2
Flags: HW
AnchorPoint: "GposMark2BaseAnchorHamzaErabAbove_01_01" 162.96 1587.52 mark 0
AnchorPoint: "GposMark2BaseAnchorHamzaErabBelow_01_01" 162.96 2151.68 mark 0
AnchorPoint: "GposMark2BaseAnchorClassErabAbove_01_02" 162.96 1587.52 mark 0
AnchorPoint: "GposMark2MarkAnchorHamzaErabAbove_01_01" 162.96 1587.52 mark 0
AnchorPoint: "GposMark2MarkAnchorHamzaErabBelow_01_01" 162.96 2151.68 mark 0
AnchorPoint: "GposMark2MarkAnchorShaddaErabAbove_01_02" 162.96 1587.52 mark 0
AnchorPoint: "GposMark2MarkAnchorShaddaErabBelow_01_02" 162.96 2151.68 mark 0
LayerCount: 2
Fore
SplineSet
-65 1861.40039062 m 1,0,-1
 -65 1964.71972656 l 1,1,-1
 -63.3603515625 2004.08007812 l 1,2,-1
 -35.48046875 2015.55957031 l 1,3,-1
 38.3203125 2045.08007812 l 1,4,-1
 217.080078125 2115.59960938 l 1,5,-1
 310.559570312 2151.6796875 l 1,6,-1
 310.559570312 2143.48046875 l 1,7,-1
 333.51953125 2151.6796875 l 1,8,-1
 333.51953125 2143.48046875 l 1,9,-1
 356.479492188 2151.6796875 l 1,10,-1
 356.479492188 2050 l 1,11,-1
 390.919921875 2063.12011719 l 1,12,-1
 390.919921875 1997.51953125 l 2,13,14
 390.327148438 1975.26855469 390.327148438 1975.26855469 389.280273438 1972.91992188 c 0,15,16
 381.604492188 1964.37890625 381.604492188 1964.37890625 361.400390625 1959.79980469 c 1,17,18
 292.51953125 1930.28027344 l 1,19,20
 231.849609375 1906.640625 231.849609375 1906.640625 115.400390625 1858.12011719 c 0,21,22
 106.57421875 1854.40332031 106.57421875 1854.40332031 87.923828125 1845.55664062 c 0,23,24
 38.4111328125 1822.57421875 38.4111328125 1822.57421875 15.3603515625 1818.75976562 c 1,25,-1
 15.3603515625 1874.51953125 l 1,26,-1
 -19.080078125 1861.40039062 l 1,27,-1
 -19.080078125 1869.59960938 l 1,28,-1
 -42.0400390625 1861.40039062 l 1,29,-1
 -42.0400390625 1869.59960938 l 1,30,-1
 -65 1861.40039062 l 1,0,-1
310.559570312 2087.71972656 m 1,31,-1
 213.799804688 2050 l 1,32,-1
 58 1989.3203125 l 1,33,-1
 3.8798828125 1968 l 1,34,-1
 -17.4404296875 1958.16015625 l 1,35,-1
 -19.080078125 1925.36035156 l 1,36,-1
 66.2001953125 1959.79980469 l 1,37,-1
 235.120117188 2028.6796875 l 1,38,-1
 289.240234375 2051.63964844 l 1,39,-1
 308.919921875 2061.48046875 l 1,40,-1
 310.559570312 2087.71972656 l 1,31,-1
-65 1630.16015625 m 1,41,-1
 -65 1733.48046875 l 1,42,-1
 -63.3603515625 1774.48046875 l 1,43,-1
 -35.48046875 1785.95996094 l 1,44,-1
 38.3203125 1815.48046875 l 1,45,-1
 217.080078125 1886 l 1,46,-1
 310.559570312 1922.08007812 l 1,47,-1
 310.559570312 1913.87988281 l 1,48,-1
 333.51953125 1922.08007812 l 1,49,-1
 333.51953125 1913.87988281 l 1,50,-1
 356.479492188 1922.08007812 l 1,51,-1
 356.479492188 1820.40039062 l 1,52,-1
 390.919921875 1833.51953125 l 1,53,-1
 390.919921875 1767.91992188 l 1,54,-1
 389.280273438 1743.3203125 l 1,55,-1
 359.759765625 1728.55957031 l 1,56,-1
 285.959960938 1699.04003906 l 1,57,-1
 15.3603515625 1587.51953125 l 1,58,-1
 15.3603515625 1644.91992188 l 1,59,-1
 -19.080078125 1630.16015625 l 1,60,-1
 -19.080078125 1640 l 1,61,-1
 -42.0400390625 1630.16015625 l 1,62,-1
 -42.0400390625 1640 l 1,63,-1
 -65 1630.16015625 l 1,41,-1
310.559570312 1858.12011719 m 1,64,-1
 213.799804688 1820.40039062 l 1,65,-1
 58 1759.71972656 l 1,66,-1
 3.8798828125 1738.40039062 l 1,67,-1
 -17.4404296875 1728.55957031 l 1,68,-1
 -19.080078125 1695.75976562 l 1,69,-1
 72.759765625 1733.48046875 l 1,70,-1
 235.120117188 1799.08007812 l 1,71,-1
 289.240234375 1822.04003906 l 1,72,-1
 308.919921875 1831.87988281 l 1,73,-1
 310.559570312 1858.12011719 l 1,64,-1
EndSplineSet
EndChar

StartChar: afii57452
Encoding: 1612 1612 312
AltUni2: 00fe72.ffffffff.0
Width: 46
VWidth: 1639
GlyphClass: 2
Flags: HW
AnchorPoint: "GposMark2BaseAnchorHamzaErabAbove_01_01" 166.559 1581.53 mark 0
AnchorPoint: "GposMark2BaseAnchorHamzaErabBelow_01_01" 166.559 2060.16 mark 0
AnchorPoint: "GposMark2BaseAnchorClassErabAbove_01_02" 166.559 1581.53 mark 0
AnchorPoint: "GposMark2MarkAnchorHamzaErabAbove_01_01" 166.559 1581.53 mark 0
AnchorPoint: "GposMark2MarkAnchorHamzaErabBelow_01_01" 166.559 2060.16 mark 0
AnchorPoint: "GposMark2MarkAnchorShaddaErabAbove_01_02" 166.559 1581.53 mark 0
AnchorPoint: "GposMark2MarkAnchorShaddaErabBelow_01_02" 166.559 2060.16 mark 0
LayerCount: 2
Fore
SplineSet
110.639648438 1823.6796875 m 1,0,1
 94.1708984375 1889.55371094 94.1708984375 1889.55371094 109 1931.91992188 c 0,2,3
 132.125976562 1994.18261719 132.125976562 1994.18261719 210.126953125 2037.2578125 c 0,4,5
 238.947265625 2053.17285156 238.947265625 2053.17285156 264.799804688 2058.20019531 c 0,6,7
 273.275390625 2060.16210938 273.275390625 2060.16210938 300.879882812 2059.83984375 c 0,8,9
 348.374023438 2058.88378906 348.374023438 2058.88378906 366.479492188 2048.36035156 c 0,10,11
 399.2265625 2028.01855469 399.2265625 2028.01855469 409.120117188 1982.75976562 c 0,12,13
 409.681640625 1979.38769531 409.681640625 1979.38769531 410.42578125 1971.81738281 c 0,14,15
 412.26171875 1956.85546875 412.26171875 1956.85546875 414.040039062 1951.59960938 c 0,16,17
 415.924804688 1946.88671875 415.924804688 1946.88671875 423.015625 1938.46191406 c 0,18,19
 428.546875 1931.46777344 428.546875 1931.46777344 430.439453125 1928.63964844 c 0,20,21
 450.388671875 1886.63574219 450.388671875 1886.63574219 446.83984375 1853.20019531 c 0,22,23
 441.069335938 1815.1171875 441.069335938 1815.1171875 390.73046875 1751.11523438 c 0,24,25
 375.624023438 1731.63769531 375.624023438 1731.63769531 368.120117188 1720.36035156 c 1,26,-1
 417.319335938 1703.95996094 l 1,27,-1
 374.6796875 1628.51953125 l 1,28,29
 334.872070312 1637.4296875 334.872070312 1637.4296875 307.439453125 1649.83984375 c 0,30,31
 304.469726562 1651.02832031 304.469726562 1651.02832031 297.060546875 1656.10839844 c 0,32,33
 282.998046875 1664.65820312 282.998046875 1664.65820312 277.919921875 1664.59960938 c 128,-1,34
 273 1664.59960938 273 1664.59960938 260.740234375 1656.48144531 c 2,35,-1
 258.239257812 1654.75976562 l 2,36,37
 253.092773438 1652.18652344 253.092773438 1652.18652344 242.69921875 1646.48046875 c 0,38,39
 225.559570312 1637.24023438 225.559570312 1637.24023438 217.239257812 1633.44042969 c 0,40,41
 100.302734375 1581.53222656 100.302734375 1581.53222656 41.759765625 1587.51953125 c 0,42,43
 21.33203125 1591.1328125 21.33203125 1591.1328125 4.0400390625 1610.48046875 c 0,44,45
 -11.6494140625 1629.74804688 -11.6494140625 1629.74804688 -12.3603515625 1630.16015625 c 0,46,47
 -18.328125 1631.65234375 -18.328125 1631.65234375 -29.5537109375 1631.24414062 c 0,48,49
 -43.568359375 1631.38476562 -43.568359375 1631.38476562 -50.080078125 1633.44042969 c 0,50,51
 -86.82421875 1646.40820312 -86.82421875 1646.40820312 -107.412109375 1706.79003906 c 0,52,53
 -108.547851562 1710.30664062 -108.547851562 1710.30664062 -109.120117188 1712.16015625 c 1,54,-1
 -99.2802734375 1712.16015625 l 1,55,-1
 -109.120117188 1735.12011719 l 1,56,-1
 -99.2802734375 1735.12011719 l 1,57,-1
 -109.120117188 1758.08007812 l 1,58,59
 -50.5908203125 1758.08007812 -50.5908203125 1758.08007812 -39.794921875 1768.30273438 c 0,60,61
 -36.7353515625 1772.11035156 -36.7353515625 1772.11035156 -35.3203125 1774.48046875 c 0,62,63
 -32.33203125 1778.96289062 -32.33203125 1778.96289062 -33.865234375 1787.37207031 c 0,64,65
 -34.1611328125 1798.53222656 -34.1611328125 1798.53222656 -30.400390625 1804 c 1,66,-1
 -59.919921875 1781.04003906 l 1,67,-1
 -61.560546875 1797.44042969 l 1,68,-1
 -82.8798828125 1781.04003906 l 1,69,-1
 -84.5205078125 1797.44042969 l 1,70,-1
 -105.840820312 1781.04003906 l 1,71,72
 -106.49609375 1792.84765625 -106.49609375 1792.84765625 -110.95703125 1815.4140625 c 0,73,74
 -117.270507812 1849.953125 -117.270507812 1849.953125 -115.680664062 1867.95996094 c 0,75,76
 -114.841796875 1871.31445312 -114.841796875 1871.31445312 -115.708007812 1877.8046875 c 0,77,78
 -115.982421875 1883.95800781 -115.982421875 1883.95800781 -115.680664062 1886 c 0,79,80
 -110.336914062 1895.92285156 -110.336914062 1895.92285156 -86.16015625 1915.51953125 c 1,81,82
 -56.51171875 1935.1875 -56.51171875 1935.1875 4.0400390625 1935.20019531 c 0,83,84
 47.1953125 1934.06542969 47.1953125 1934.06542969 66.359375 1920.44042969 c 0,85,86
 85.2783203125 1906.68066406 85.2783203125 1906.68066406 93.271484375 1862.22851562 c 0,87,88
 99.26953125 1835.3046875 99.26953125 1835.3046875 110.639648438 1823.6796875 c 1,0,1
318.919921875 1848.28027344 m 1,89,90
 322.33984375 1853.59960938 322.33984375 1853.59960938 331.208984375 1865.66113281 c 0,91,92
 363.529296875 1911.33984375 363.529296875 1911.33984375 363.19921875 1933.55957031 c 0,93,94
 363.19921875 1970.10449219 363.19921875 1970.10449219 329.728515625 1997.6796875 c 0,95,96
 315.18359375 2008.29882812 315.18359375 2008.29882812 302.51953125 2009 c 0,97,98
 271.776367188 2008.00097656 271.776367188 2008.00097656 236.919921875 1974.55957031 c 1,99,100
 242.317382812 1974.55957031 242.317382812 1974.55957031 254.895507812 1975.421875 c 0,101,102
 295.541015625 1977.37207031 295.541015625 1977.37207031 309.080078125 1969.63964844 c 1,103,104
 325.438476562 1957.82714844 325.438476562 1957.82714844 325.479492188 1925.36035156 c 0,105,106
 325.067382812 1880.28417969 325.067382812 1880.28417969 317.279296875 1848.28027344 c 1,107,-1
 318.919921875 1848.28027344 l 1,89,90
189.359375 1935.20019531 m 1,108,109
 158.555664062 1908.90332031 158.555664062 1908.90332031 154.919921875 1881.08007812 c 0,110,111
 154.919921875 1869.54980469 154.919921875 1869.54980469 178.217773438 1828.20800781 c 0,112,113
 183.869140625 1817.42480469 183.869140625 1817.42480469 186.080078125 1810.55957031 c 0,114,115
 186.853515625 1804.33691406 186.853515625 1804.33691406 182.799804688 1795.79980469 c 1,116,117
 187.719726562 1784.3203125 187.719726562 1784.3203125 187.719726562 1784.3203125 c 2,118,119
 187.719726562 1781.86035156 187.719726562 1781.86035156 185.259765625 1778.58007812 c 0,120,121
 183.229492188 1774.31054688 183.229492188 1774.31054688 182.799804688 1772.83984375 c 0,122,123
 183.416992188 1770.98730469 183.416992188 1770.98730469 185.086914062 1767.8046875 c 0,124,125
 187.346679688 1761.98535156 187.346679688 1761.98535156 187.719726562 1759.71972656 c 0,126,127
 184.8828125 1755.359375 184.8828125 1755.359375 172.959960938 1748.24023438 c 0,128,129
 150.271484375 1737.42871094 150.271484375 1737.42871094 120.479492188 1731.83984375 c 0,130,131
 80.4755859375 1722.74414062 80.4755859375 1722.74414062 71.279296875 1726.91992188 c 1,132,-1
 48.3193359375 1726.91992188 l 1,133,-1
 25.359375 1723.63964844 l 1,134,-1
 36.83984375 1748.24023438 l 1,135,-1
 25.359375 1746.59960938 l 1,136,-1
 36.83984375 1771.20019531 l 1,137,138
 31.193359375 1767.4453125 31.193359375 1767.4453125 25.359375 1753.16015625 c 0,139,140
 18.6708984375 1735.75097656 18.6708984375 1735.75097656 7.3193359375 1723.63964844 c 0,141,142
 -2.8740234375 1713.56640625 -2.8740234375 1713.56640625 -40.240234375 1713.79980469 c 1,143,144
 -20.9443359375 1685.70898438 -20.9443359375 1685.70898438 -5.80078125 1681 c 0,145,146
 4.427734375 1678.0703125 4.427734375 1678.0703125 40.1201171875 1687.55957031 c 0,147,148
 96.6923828125 1702.09277344 96.6923828125 1702.09277344 153.279296875 1730.20019531 c 0,149,150
 156.401367188 1731.98339844 156.401367188 1731.98339844 163.90234375 1737.20703125 c 0,151,152
 186.813476562 1753.16015625 186.813476562 1753.16015625 197.559570312 1753.16015625 c 0,153,154
 202.389648438 1753.96484375 202.389648438 1753.96484375 213.840820312 1752.38476562 c 0,155,156
 226.618164062 1751.02734375 226.618164062 1751.02734375 232 1751.51953125 c 0,157,158
 234.0234375 1751.51953125 234.0234375 1751.51953125 237.465820312 1752.61425781 c 0,159,160
 242.22265625 1754.12597656 242.22265625 1754.12597656 245.120117188 1753.16015625 c 0,161,162
 252.408203125 1751.33789062 252.408203125 1751.33789062 266.986328125 1742.63183594 c 0,163,164
 278.6484375 1735.66699219 278.6484375 1735.66699219 284.479492188 1733.48046875 c 0,165,166
 298.654296875 1729.96289062 298.654296875 1729.96289062 299.239257812 1730.20019531 c 0,167,168
 304.159179688 1733.48046875 304.159179688 1733.48046875 312.03125 1748.99414062 c 0,169,170
 312.359375 1749.87988281 312.359375 1749.87988281 313.1796875 1751.51953125 c 2,171,-1
 314 1753.16015625 l 1,172,-1
 286.120117188 1764.63964844 l 1,173,-1
 299.239257812 1781.04003906 l 1,174,-1
 286.120117188 1787.59960938 l 1,175,-1
 299.239257812 1804 l 1,176,177
 288.038085938 1809.77734375 288.038085938 1809.77734375 254.959960938 1805.63964844 c 0,178,179
 252.5 1805.63964844 252.5 1805.63964844 249.219726562 1807.28027344 c 0,180,181
 244.950195312 1808.6328125 244.950195312 1808.6328125 243.479492188 1808.91992188 c 0,182,183
 241.51171875 1808.91992188 241.51171875 1808.91992188 237.575195312 1807.87011719 c 0,184,185
 231.125 1806.96289062 231.125 1806.96289062 228.719726562 1807.28027344 c 0,186,187
 218.866210938 1811.875 218.866210938 1811.875 205.759765625 1828.59960938 c 0,188,189
 177.159179688 1867.984375 177.159179688 1867.984375 189.359375 1935.20019531 c 1,108,109
33.5595703125 1784.3203125 m 1,190,191
 48.599609375 1820.44628906 48.599609375 1820.44628906 46.6796875 1833.51953125 c 0,192,193
 41.8359375 1867.42382812 41.8359375 1867.42382812 11.5595703125 1882.13964844 c 0,194,195
 3.6171875 1886 3.6171875 1886 -4.16015625 1886 c 0,196,197
 -27.7177734375 1884.79589844 -27.7177734375 1884.79589844 -51.720703125 1858.12011719 c 1,198,199
 16.75 1866.24121094 16.75 1866.24121094 28.6396484375 1840.08007812 c 0,200,201
 30.5185546875 1834.91210938 30.5185546875 1834.91210938 30.9443359375 1795.64257812 c 0,202,203
 31.2705078125 1788.65722656 31.2705078125 1788.65722656 31.919921875 1784.3203125 c 1,204,-1
 33.5595703125 1784.3203125 l 1,190,191
112.279296875 1823.6796875 m 1,205,-1
 110.639648438 1822.04003906 l 1,206,-1
 112.279296875 1823.6796875 l 1,205,-1
-28.7607421875 1805.63964844 m 1,207,-1
 -30.400390625 1804 l 1,208,-1
 -28.7607421875 1805.63964844 l 1,207,-1
EndSplineSet
EndChar

StartChar: afii57453
Encoding: 1613 1613 313
AltUni2: 00fe74.ffffffff.0
Width: -30
VWidth: 1639
GlyphClass: 2
Flags: HW
AnchorPoint: "GposMark2BaseAnchorClassErabBelow_01_02" -60.04 -129.56 mark 0
LayerCount: 2
Fore
SplineSet
-288 -419.83984375 m 1,0,-1
 -288 -316.51953125 l 1,1,-1
 -286.360351562 -277.16015625 l 1,2,-1
 -258.48046875 -265.6796875 l 1,3,-1
 -184.6796875 -236.16015625 l 1,4,-1
 -5.919921875 -165.639648438 l 1,5,-1
 87.5595703125 -129.559570312 l 1,6,-1
 87.5595703125 -137.759765625 l 1,7,-1
 110.51953125 -129.559570312 l 1,8,-1
 110.51953125 -137.759765625 l 1,9,-1
 133.479492188 -129.559570312 l 1,10,-1
 133.479492188 -231.240234375 l 1,11,-1
 167.919921875 -218.120117188 l 1,12,-1
 167.919921875 -283.719726562 l 2,13,14
 167.327148438 -305.971679688 167.327148438 -305.971679688 166.280273438 -308.3203125 c 0,15,16
 158.604492188 -316.861328125 158.604492188 -316.861328125 138.400390625 -321.440429688 c 1,17,18
 69.51953125 -350.959960938 l 1,19,20
 8.849609375 -374.599609375 8.849609375 -374.599609375 -107.599609375 -423.120117188 c 0,21,22
 -116.42578125 -426.8359375 -116.42578125 -426.8359375 -135.076171875 -435.68359375 c 0,23,24
 -184.130859375 -458.953125 -184.130859375 -458.953125 -207.639648438 -462.48046875 c 1,25,-1
 -207.639648438 -406.719726562 l 1,26,-1
 -242.080078125 -419.83984375 l 1,27,-1
 -242.080078125 -411.639648438 l 1,28,-1
 -265.040039062 -419.83984375 l 1,29,-1
 -265.040039062 -411.639648438 l 1,30,-1
 -288 -419.83984375 l 1,0,-1
87.5595703125 -193.51953125 m 1,31,-1
 -9.2001953125 -231.240234375 l 1,32,-1
 -165 -291.919921875 l 1,33,-1
 -219.120117188 -313.240234375 l 1,34,-1
 -240.440429688 -323.080078125 l 1,35,-1
 -242.080078125 -355.879882812 l 1,36,-1
 -156.799804688 -321.440429688 l 1,37,-1
 12.1201171875 -252.559570312 l 1,38,-1
 66.240234375 -229.599609375 l 1,39,-1
 85.919921875 -219.759765625 l 1,40,-1
 87.5595703125 -193.51953125 l 1,31,-1
-288 -651.080078125 m 1,41,-1
 -288 -547.759765625 l 1,42,-1
 -286.360351562 -506.759765625 l 1,43,-1
 -258.48046875 -495.280273438 l 1,44,-1
 -184.6796875 -465.759765625 l 1,45,-1
 -5.919921875 -395.240234375 l 1,46,-1
 87.5595703125 -359.16015625 l 1,47,-1
 87.5595703125 -367.360351562 l 1,48,-1
 110.51953125 -359.16015625 l 1,49,-1
 110.51953125 -367.360351562 l 1,50,-1
 133.479492188 -359.16015625 l 1,51,-1
 133.479492188 -460.83984375 l 1,52,-1
 167.919921875 -447.719726562 l 1,53,-1
 167.919921875 -513.3203125 l 1,54,-1
 166.280273438 -537.919921875 l 1,55,-1
 136.759765625 -552.6796875 l 1,56,-1
 62.9599609375 -582.200195312 l 1,57,-1
 -207.639648438 -693.719726562 l 1,58,-1
 -207.639648438 -636.3203125 l 1,59,-1
 -242.080078125 -651.080078125 l 1,60,-1
 -242.080078125 -641.240234375 l 1,61,-1
 -265.040039062 -651.080078125 l 1,62,-1
 -265.040039062 -641.240234375 l 1,63,-1
 -288 -651.080078125 l 1,41,-1
87.5595703125 -423.120117188 m 1,64,-1
 -9.2001953125 -460.83984375 l 1,65,-1
 -165 -521.51953125 l 1,66,-1
 -219.120117188 -542.83984375 l 1,67,-1
 -240.440429688 -552.6796875 l 1,68,-1
 -242.080078125 -585.48046875 l 1,69,-1
 -150.240234375 -547.759765625 l 1,70,-1
 12.1201171875 -482.16015625 l 1,71,-1
 66.240234375 -459.200195312 l 1,72,-1
 85.919921875 -449.360351562 l 1,73,-1
 87.5595703125 -423.120117188 l 1,64,-1
EndSplineSet
EndChar

StartChar: afii57454
Encoding: 1614 1614 314
AltUni2: 00fe76.ffffffff.0
Width: -17
VWidth: 1639
GlyphClass: 2
Flags: HW
AnchorPoint: "GposMark2BaseAnchorHamzaErabAbove_01_01" 134.96 1587.52 mark 0
AnchorPoint: "GposMark2BaseAnchorHamzaErabBelow_01_01" 134.96 1922.08 mark 0
AnchorPoint: "GposMark2BaseAnchorClassErabAbove_01_02" 134.96 1587.52 mark 0
AnchorPoint: "GposMark2MarkAnchorHamzaErabAbove_01_01" 134.96 1587.52 mark 0
AnchorPoint: "GposMark2MarkAnchorHamzaErabBelow_01_01" 134.96 1922.08 mark 0
AnchorPoint: "GposMark2MarkAnchorShaddaErabAbove_01_02" 134.96 1587.52 mark 0
AnchorPoint: "GposMark2MarkAnchorShaddaErabBelow_01_02" 134.96 1922.08 mark 0
LayerCount: 2
Fore
SplineSet
-93 1630.16015625 m 1,0,-1
 -93 1733.48046875 l 1,1,-1
 -91.3603515625 1774.48046875 l 1,2,-1
 -63.48046875 1785.95996094 l 1,3,-1
 10.3203125 1815.48046875 l 1,4,-1
 189.080078125 1886 l 1,5,-1
 282.559570312 1922.08007812 l 1,6,-1
 282.559570312 1913.87988281 l 1,7,-1
 305.51953125 1922.08007812 l 1,8,-1
 305.51953125 1913.87988281 l 1,9,-1
 328.479492188 1922.08007812 l 1,10,-1
 328.479492188 1820.40039062 l 1,11,-1
 362.919921875 1833.51953125 l 1,12,-1
 362.919921875 1767.91992188 l 1,13,-1
 361.280273438 1743.3203125 l 1,14,-1
 331.759765625 1728.55957031 l 1,15,-1
 257.959960938 1699.04003906 l 1,16,-1
 -12.6396484375 1587.51953125 l 1,17,-1
 -12.6396484375 1644.91992188 l 1,18,-1
 -47.080078125 1630.16015625 l 1,19,-1
 -47.080078125 1640 l 1,20,-1
 -70.0400390625 1630.16015625 l 1,21,-1
 -70.0400390625 1640 l 1,22,-1
 -93 1630.16015625 l 1,0,-1
282.559570312 1858.12011719 m 1,23,-1
 185.799804688 1820.40039062 l 1,24,-1
 30 1759.71972656 l 1,25,-1
 -24.1201171875 1738.40039062 l 1,26,-1
 -45.4404296875 1728.55957031 l 1,27,-1
 -47.080078125 1695.75976562 l 1,28,-1
 44.759765625 1733.48046875 l 1,29,-1
 207.120117188 1799.08007812 l 1,30,-1
 261.240234375 1822.04003906 l 1,31,-1
 280.919921875 1831.87988281 l 1,32,-1
 282.559570312 1858.12011719 l 1,23,-1
EndSplineSet
EndChar

StartChar: afii57455
Encoding: 1615 1615 315
AltUni2: 00fe78.ffffffff.0
Width: 46
VWidth: 1639
GlyphClass: 2
Flags: HW
AnchorPoint: "GposMark2BaseAnchorHamzaErabAbove_01_01" 128.862 1584.63 mark 0
AnchorPoint: "GposMark2BaseAnchorHamzaErabBelow_01_01" 128.862 2076.54 mark 0
AnchorPoint: "GposMark2BaseAnchorClassErabAbove_01_02" 128.862 1584.63 mark 0
AnchorPoint: "GposMark2MarkAnchorHamzaErabAbove_01_01" 128.862 1584.63 mark 0
AnchorPoint: "GposMark2MarkAnchorHamzaErabBelow_01_01" 128.862 2076.54 mark 0
AnchorPoint: "GposMark2MarkAnchorShaddaErabAbove_01_02" 128.862 1584.63 mark 0
AnchorPoint: "GposMark2MarkAnchorShaddaErabBelow_01_02" 128.862 2076.54 mark 0
LayerCount: 2
Fore
SplineSet
-150 1759.71972656 m 1,0,1
 -38.0078125 1760.05761719 -38.0078125 1760.05761719 15.6396484375 1771.20019531 c 0,2,3
 60.4453125 1779.34082031 60.4453125 1779.34082031 77.9599609375 1790.87988281 c 0,4,5
 84.3681640625 1796.90039062 84.3681640625 1796.90039062 73.0400390625 1822.04003906 c 0,6,7
 57.560546875 1859.3828125 57.560546875 1859.3828125 63.2001953125 1910.59960938 c 0,8,9
 71.689453125 1971.72558594 71.689453125 1971.72558594 169.374023438 2035.06933594 c 0,10,11
 172.76171875 2037.25878906 172.76171875 2037.25878906 174.719726562 2038.51953125 c 0,12,13
 237.333984375 2076.53613281 237.333984375 2076.53613281 299.02734375 2060.38867188 c 0,14,15
 327.70703125 2051.60449219 327.70703125 2051.60449219 343.639648438 2031.95996094 c 0,16,17
 359.356445312 2012.890625 359.356445312 2012.890625 368.240234375 1984.40039062 c 0,18,19
 368.794921875 1981.06835938 368.794921875 1981.06835938 369.159179688 1973.53320312 c 0,20,21
 370.53125 1957.81054688 370.53125 1957.81054688 373.16015625 1951.59960938 c 0,22,23
 376.903320312 1943.69726562 376.903320312 1943.69726562 385.147460938 1929.10058594 c 0,24,25
 407.724609375 1886.87304688 407.724609375 1886.87304688 405.959960938 1859.75976562 c 0,26,27
 403.641601562 1820.34082031 403.641601562 1820.34082031 352.927734375 1755.64648438 c 0,28,29
 335.07421875 1732.55664062 335.07421875 1732.55664062 327.240234375 1720.36035156 c 1,30,-1
 376.440429688 1703.95996094 l 1,31,-1
 333.799804688 1628.51953125 l 1,32,33
 262.4765625 1647.2890625 262.4765625 1647.2890625 245.001953125 1661.90722656 c 0,34,35
 240.920898438 1665.63476562 240.920898438 1665.63476562 238.6796875 1667.87988281 c 1,36,-1
 237.040039062 1667.87988281 l 1,37,38
 227.913085938 1659.54003906 227.913085938 1659.54003906 184.559570312 1638.36035156 c 0,39,40
 108.87109375 1601.1328125 108.87109375 1601.1328125 48.4404296875 1592.44042969 c 1,41,42
 9.408203125 1584.63378906 9.408203125 1584.63378906 -5.6796875 1589.16015625 c 0,43,44
 -21.7236328125 1594.39648438 -21.7236328125 1594.39648438 -36.83984375 1612.12011719 c 0,45,46
 -38.609375 1613.88964844 -38.609375 1613.88964844 -41.7421875 1618.72851562 c 0,47,48
 -48.44140625 1626.79199219 -48.44140625 1626.79199219 -51.599609375 1628.51953125 c 0,49,50
 -54.1796875 1629.80957031 -54.1796875 1629.80957031 -82.916015625 1631.54101562 c 0,51,52
 -88.421875 1631.87304688 -88.421875 1631.87304688 -92.599609375 1633.44042969 c 0,53,54
 -126.598632812 1648.90917969 -126.598632812 1648.90917969 -150 1713.79980469 c 1,55,-1
 -140.16015625 1713.79980469 l 1,56,-1
 -150 1736.75976562 l 1,57,-1
 -140.16015625 1736.75976562 l 1,58,-1
 -150 1759.71972656 l 1,0,1
271.479492188 1843.36035156 m 1,59,60
 291.723632812 1860.97460938 291.723632812 1860.97460938 312.479492188 1905.6796875 c 0,61,62
 321.647460938 1922.5390625 321.647460938 1922.5390625 322.3203125 1935.20019531 c 0,63,64
 320.130859375 1972.41601562 320.130859375 1972.41601562 287.359375 1999.33105469 c 0,65,66
 274.395507812 2008.81445312 274.395507812 2008.81445312 263.280273438 2010.63964844 c 0,67,68
 238.141601562 2012.92480469 238.141601562 2012.92480469 203.534179688 1980.51074219 c 0,69,70
 200.576171875 1977.515625 200.576171875 1977.515625 199.3203125 1976.20019531 c 1,71,72
 203.9453125 1976.20019531 203.9453125 1976.20019531 214.779296875 1976.94628906 c 0,73,74
 254.376953125 1978.69335938 254.376953125 1978.69335938 268.200195312 1969.63964844 c 0,75,76
 284.060546875 1957.05371094 284.060546875 1957.05371094 281.3203125 1927 c 1,77,78
 280.66015625 1867.90136719 280.66015625 1867.90136719 271.479492188 1843.36035156 c 1,59,60
145.200195312 1931.91992188 m 1,79,80
 109.366210938 1897.98339844 109.366210938 1897.98339844 115.6796875 1872.87988281 c 1,81,82
 125.153320312 1849.78515625 125.153320312 1849.78515625 138.639648438 1825.3203125 c 1,83,84
 145.615234375 1806.24121094 145.615234375 1806.24121094 140.280273438 1800.71972656 c 1,85,86
 144.2109375 1782.53320312 144.2109375 1782.53320312 140.280273438 1777.75976562 c 1,87,-1
 145.200195312 1761.36035156 l 1,88,89
 140.365234375 1745.27246094 140.365234375 1745.27246094 94.3603515625 1733.48046875 c 1,90,91
 64.3623046875 1724.05175781 64.3623046875 1724.05175781 -41.263671875 1717.45507812 c 0,92,93
 -63.54296875 1715.94140625 -63.54296875 1715.94140625 -79.48046875 1713.79980469 c 1,94,95
 -67.298828125 1686.36914062 -67.298828125 1686.36914062 -45.0400390625 1679.36035156 c 1,96,97
 -35.76171875 1678.78320312 -35.76171875 1678.78320312 -2.400390625 1687.55957031 c 0,98,99
 54.1728515625 1702.09277344 54.1728515625 1702.09277344 110.759765625 1730.20019531 c 0,100,101
 115.345703125 1732.74804688 115.345703125 1732.74804688 125.549804688 1737.56542969 c 0,102,103
 148.806640625 1749.171875 148.806640625 1749.171875 156.6796875 1756.44042969 c 1,104,-1
 158.3203125 1756.44042969 l 1,105,106
 169.524414062 1748.17382812 169.524414062 1748.17382812 179.639648438 1756.44042969 c 1,107,-1
 181.280273438 1756.44042969 l 1,108,109
 192.484375 1748.17382812 192.484375 1748.17382812 202.599609375 1756.44042969 c 1,110,-1
 204.240234375 1756.44042969 l 1,111,-1
 243.599609375 1733.48046875 l 1,112,-1
 260 1730.20019531 l 1,113,-1
 273.120117188 1753.16015625 l 1,114,-1
 246.879882812 1763 l 1,115,-1
 258.360351562 1781.04003906 l 1,116,-1
 246.879882812 1785.95996094 l 1,117,-1
 258.360351562 1804 l 1,118,-1
 246.879882812 1808.91992188 l 1,119,-1
 250.16015625 1815.48046875 l 1,120,-1
 235.400390625 1804 l 1,121,-1
 233.759765625 1804 l 1,122,123
 222.555664062 1814.33203125 222.555664062 1814.33203125 212.440429688 1804 c 1,124,-1
 210.799804688 1804 l 1,125,126
 199.595703125 1814.33203125 199.595703125 1814.33203125 189.479492188 1804 c 1,127,-1
 187.83984375 1804 l 1,128,129
 184.392578125 1807.93945312 184.392578125 1807.93945312 176.877929688 1815.55175781 c 0,130,131
 159.137695312 1833.52441406 159.137695312 1833.52441406 153.400390625 1845 c 0,132,133
 144.412109375 1866.19238281 144.412109375 1866.19238281 145.200195312 1931.91992188 c 1,79,80
271.479492188 1841.71972656 m 1,134,-1
 269.83984375 1840.08007812 l 1,135,-1
 271.479492188 1841.71972656 l 1,134,-1
EndSplineSet
EndChar

StartChar: afii57456
Encoding: 1616 1616 316
AltUni2: 00fe7a.ffffffff.0
Width: -19
VWidth: 1639
GlyphClass: 2
Flags: HW
AnchorPoint: "GposMark2BaseAnchorClassErabBelow_01_02" -54.04 -129.56 mark 0
LayerCount: 2
Fore
SplineSet
-282 -421.48046875 m 1,0,-1
 -282 -316.51953125 l 1,1,-1
 -280.360351562 -278.799804688 l 1,2,-1
 -254.120117188 -265.6796875 l 1,3,-1
 -183.599609375 -237.799804688 l 1,4,-1
 -6.48046875 -168.919921875 l 1,5,-1
 93.5595703125 -129.559570312 l 1,6,-1
 93.5595703125 -137.759765625 l 1,7,-1
 116.51953125 -129.559570312 l 1,8,-1
 116.51953125 -137.759765625 l 1,9,-1
 139.479492188 -129.559570312 l 1,10,-1
 139.479492188 -231.240234375 l 1,11,-1
 173.919921875 -218.120117188 l 1,12,-1
 173.919921875 -283.719726562 l 1,13,-1
 172.280273438 -309.959960938 l 1,14,-1
 146.040039062 -321.440429688 l 1,15,-1
 75.51953125 -350.959960938 l 1,16,-1
 -201.639648438 -464.120117188 l 1,17,-1
 -201.639648438 -406.719726562 l 1,18,-1
 -236.080078125 -421.48046875 l 1,19,-1
 -236.080078125 -411.639648438 l 1,20,-1
 -259.040039062 -421.48046875 l 1,21,-1
 -259.040039062 -411.639648438 l 1,22,-1
 -282 -421.48046875 l 1,0,-1
93.5595703125 -193.51953125 m 1,23,-1
 -157.360351562 -291.919921875 l 1,24,-1
 -213.120117188 -313.240234375 l 1,25,-1
 -234.440429688 -324.719726562 l 1,26,-1
 -236.080078125 -355.879882812 l 1,27,-1
 -154.080078125 -323.080078125 l 1,28,-1
 18.1201171875 -252.559570312 l 1,29,-1
 70.599609375 -231.240234375 l 1,30,-1
 91.919921875 -221.400390625 l 1,31,-1
 93.5595703125 -193.51953125 l 1,23,-1
EndSplineSet
EndChar

StartChar: afii57457
Encoding: 1617 1617 317
AltUni2: 00fe7c.ffffffff.0
Width: 155
VWidth: 1639
GlyphClass: 2
Flags: HW
AnchorPoint: "GposMark2BaseAnchorHamzaErabAbove_01_01" 235.478 1580.18 mark 0
AnchorPoint: "GposMark2BaseAnchorHamzaErabBelow_01_01" 235.478 1958.16 mark 0
AnchorPoint: "GposMark2BaseAnchorClassErabAbove_01_02" 235.478 1580.18 mark 0
AnchorPoint: "GposMark2MarkAnchorHamzaErabAbove_01_01" 235.478 1580.18 mark 0
AnchorPoint: "GposMark2MarkAnchorHamzaErabBelow_01_01" 235.478 1958.16 mark 0
AnchorPoint: "GposMark2MarkAnchorShaddaErabAbove_01_02" 235.478 2108.16 basemark 0
AnchorPoint: "GposMark2MarkAnchorShaddaErabBelow_01_02" 235.478 1430.18 basemark 0
LayerCount: 2
Fore
SplineSet
404.559570312 1958.16015625 m 1,0,-1
 412.759765625 1945.04003906 l 1,1,-1
 427.51953125 1958.16015625 l 1,2,-1
 429.16015625 1958.16015625 l 1,3,-1
 435.719726562 1945.04003906 l 1,4,-1
 450.479492188 1958.16015625 l 1,5,-1
 452.120117188 1958.16015625 l 1,6,7
 477.853515625 1919.12207031 477.853515625 1919.12207031 478.360351562 1863.04003906 c 1,8,-1
 484.919921875 1869.59960938 l 1,9,-1
 486.559570312 1869.59960938 l 1,10,11
 504.521484375 1843.09960938 504.521484375 1843.09960938 511.16015625 1790.87988281 c 0,12,13
 523.956054688 1684.2421875 523.956054688 1684.2421875 467.578125 1626.58105469 c 0,14,15
 437.103515625 1597.31445312 437.103515625 1597.31445312 394.719726562 1592.44042969 c 1,16,17
 347.188476562 1590.22460938 347.188476562 1590.22460938 320.919921875 1605.55957031 c 0,18,19
 315.084960938 1609.45019531 315.084960938 1609.45019531 304.6328125 1619.18847656 c 0,20,21
 279.163085938 1640.63085938 279.163085938 1640.63085938 261.879882812 1638.36035156 c 0,22,23
 256.419921875 1636.47167969 256.419921875 1636.47167969 234 1617.04003906 c 1,24,25
 205.11328125 1597.70605469 205.11328125 1597.70605469 176.599609375 1592.44042969 c 0,26,27
 124.4765625 1580.17578125 124.4765625 1580.17578125 91.3203125 1602.28027344 c 0,28,29
 85.580078125 1605.55957031 85.580078125 1605.55957031 75.740234375 1615.40039062 c 0,30,31
 65.1494140625 1625.29296875 65.1494140625 1625.29296875 60.16015625 1628.51953125 c 0,32,33
 53.837890625 1632.1328125 53.837890625 1632.1328125 38.361328125 1634.36230469 c 0,34,35
 25.6376953125 1636.56933594 25.6376953125 1636.56933594 20.7998046875 1638.36035156 c 0,36,37
 -19.2978515625 1659.93359375 -19.2978515625 1659.93359375 -43.16015625 1712.16015625 c 0,38,39
 -52.98828125 1735.13476562 -52.98828125 1735.13476562 -53 1779.40039062 c 0,40,41
 -51.939453125 1861.45214844 -51.939453125 1861.45214844 -20.2001953125 1907.3203125 c 0,42,43
 1.5830078125 1937.54101562 1.5830078125 1937.54101562 50.3203125 1935.20019531 c 0,44,45
 53.0400390625 1934.65625 53.0400390625 1934.65625 59.2626953125 1935.01464844 c 0,46,47
 72.234375 1934.28222656 72.234375 1934.28222656 76.5595703125 1930.28027344 c 0,48,49
 81.802734375 1922.0546875 81.802734375 1922.0546875 81.4794921875 1900.75976562 c 0,50,51
 81.4794921875 1890.91992188 81.4794921875 1890.91992188 80.66015625 1870.41992188 c 0,52,53
 79.880859375 1849.42871094 79.880859375 1849.42871094 79.83984375 1840.08007812 c 1,54,-1
 89.6796875 1845 l 1,55,56
 114.91015625 1852.56933594 114.91015625 1852.56933594 115.1875 1822.08300781 c 0,57,58
 115.227539062 1817.58300781 115.227539062 1817.58300781 114.689453125 1808.65917969 c 0,59,60
 114.33203125 1801.53125 114.33203125 1801.53125 114.280273438 1799.08007812 c 1,61,62
 150.107421875 1816.99414062 150.107421875 1816.99414062 166.100585938 1874.35449219 c 0,63,64
 167.290039062 1878.65429688 167.290039062 1878.65429688 168.400390625 1882.71972656 c 0,65,66
 176.793945312 1924.68847656 176.793945312 1924.68847656 181.541015625 1930.45996094 c 0,67,68
 186.212890625 1934.80761719 186.212890625 1934.80761719 189.719726562 1936.83984375 c 0,69,70
 195.715820312 1939.3515625 195.715820312 1939.3515625 212.6796875 1938.48046875 c 1,71,72
 245.578125 1942.30273438 245.578125 1942.30273438 256.959960938 1936.83984375 c 1,73,74
 268.703125 1929.01171875 268.703125 1929.01171875 274.05078125 1879.41992188 c 0,75,76
 275.963867188 1864.89941406 275.963867188 1864.89941406 278.280273438 1858.12011719 c 0,77,78
 280.740234375 1854.01953125 280.740234375 1854.01953125 288.940429688 1849.09960938 c 0,79,80
 297.124023438 1843.15527344 297.124023438 1843.15527344 299.599609375 1840.08007812 c 0,81,82
 301.676757812 1835.92578125 301.676757812 1835.92578125 303.23828125 1823.02734375 c 0,83,84
 309.197265625 1794.85253906 309.197265625 1794.85253906 322.559570312 1794.16015625 c 0,85,86
 340.385742188 1794.16015625 340.385742188 1794.16015625 347.900390625 1819.64453125 c 0,87,88
 348.551757812 1822.4921875 348.551757812 1822.4921875 348.799804688 1823.6796875 c 0,89,90
 348.76953125 1827.34277344 348.76953125 1827.34277344 345.51953125 1854.83984375 c 0,91,92
 345.139648438 1859.14257812 345.139648438 1859.14257812 345.51953125 1890.91992188 c 0,93,94
 346.244140625 1893.09277344 346.244140625 1893.09277344 345.125976562 1898.11425781 c 0,95,96
 343.688476562 1904.57226562 343.688476562 1904.57226562 345.51953125 1907.3203125 c 0,97,98
 351.208984375 1918.69824219 351.208984375 1918.69824219 393.422851562 1949.3515625 c 0,99,100
 400.416015625 1954.4296875 400.416015625 1954.4296875 404.559570312 1958.16015625 c 1,0,-1
419.3203125 1884.36035156 m 1,101,102
 393.931640625 1871.1953125 393.931640625 1871.1953125 397.032226562 1821.01953125 c 0,103,104
 398.645507812 1779.78222656 398.645507812 1779.78222656 389.799804688 1764.63964844 c 0,105,106
 374.786132812 1743.3515625 374.786132812 1743.3515625 330.759765625 1743.3203125 c 0,107,108
 285.571289062 1743.78515625 285.571289062 1743.78515625 281.559570312 1744.95996094 c 0,109,110
 242.243164062 1758.53320312 242.243164062 1758.53320312 225.799804688 1840.08007812 c 0,111,112
 219.669921875 1874.08300781 219.669921875 1874.08300781 220.879882812 1871.24023438 c 0,113,114
 207.720703125 1778.45117188 207.720703125 1778.45117188 166.759765625 1756.44042969 c 1,115,116
 140.814453125 1745.33789062 140.814453125 1745.33789062 97.8798828125 1748.24023438 c 0,117,118
 57.9912109375 1751.30859375 57.9912109375 1751.30859375 48.6162109375 1758.97558594 c 0,119,120
 43.56640625 1763.88964844 43.56640625 1763.88964844 40.4794921875 1767.91992188 c 0,121,122
 27.53515625 1796.69628906 27.53515625 1796.69628906 30.6396484375 1867.95996094 c 1,123,-1
 29 1867.95996094 l 1,124,125
 -5.421875 1807.72167969 -5.421875 1807.72167969 -4.8154296875 1787.37792969 c 0,126,127
 -4.376953125 1782.45800781 -4.376953125 1782.45800781 -3.7998046875 1779.40039062 c 0,128,129
 8.134765625 1722.11425781 8.134765625 1722.11425781 51.9638671875 1691.80859375 c 0,130,131
 69.0654296875 1681.02929688 69.0654296875 1681.02929688 84.759765625 1679.36035156 c 0,132,133
 116.846679688 1678.40234375 116.846679688 1678.40234375 160.200195312 1710.51953125 c 1,134,135
 187.194335938 1734.67089844 187.194335938 1734.67089844 193 1744.95996094 c 1,136,-1
 196.280273438 1744.95996094 l 1,137,-1
 202.83984375 1731.83984375 l 1,138,-1
 215.959960938 1744.95996094 l 1,139,-1
 219.240234375 1744.95996094 l 1,140,-1
 225.799804688 1731.83984375 l 1,141,-1
 238.919921875 1744.95996094 l 1,142,-1
 242.200195312 1744.95996094 l 1,143,144
 258.967773438 1704.23828125 258.967773438 1704.23828125 298.407226562 1687.57226562 c 0,145,146
 310.081054688 1682.63964844 310.081054688 1682.63964844 320.919921875 1682.63964844 c 0,147,148
 360.245117188 1683.98144531 360.245117188 1683.98144531 393.080078125 1722 c 0,149,150
 450.836914062 1786.9765625 450.836914062 1786.9765625 425.678710938 1867.68945312 c 0,151,152
 422.560546875 1876.99121094 422.560546875 1876.99121094 419.3203125 1884.36035156 c 1,101,102
EndSplineSet
EndChar

StartChar: afii57458
Encoding: 1618 1618 318
AltUni2: 00fe7e.ffffffff.0
Width: 8
VWidth: 1639
GlyphClass: 2
Flags: HW
AnchorPoint: "GposMark2BaseAnchorHamzaErabAbove_01_01" 139.962 1578.13 mark 0
AnchorPoint: "GposMark2BaseAnchorHamzaErabBelow_01_01" 139.962 2058.82 mark 0
AnchorPoint: "GposMark2BaseAnchorClassErabAbove_01_02" 139.962 1578.13 mark 0
AnchorPoint: "GposMark2MarkAnchorHamzaErabAbove_01_01" 139.962 1578.13 mark 0
AnchorPoint: "GposMark2MarkAnchorHamzaErabBelow_01_01" 139.962 2058.82 mark 0
AnchorPoint: "GposMark2MarkAnchorShaddaErabAbove_01_02" 139.962 1578.13 mark 0
AnchorPoint: "GposMark2MarkAnchorShaddaErabBelow_01_02" 139.962 2058.82 mark 0
LayerCount: 2
Fore
SplineSet
74.021484375 2040.16015625 m 1,0,1
 174.341796875 2058.82421875 174.341796875 2058.82421875 238.833984375 1991.79199219 c 0,2,3
 249.809570312 1979.8203125 249.809570312 1979.8203125 257.701171875 1968 c 0,4,5
 265.6640625 1955.69335938 265.6640625 1955.69335938 289.599609375 1889.50390625 c 0,6,7
 290.877929688 1885.96679688 290.877929688 1885.96679688 292.140625 1882.71972656 c 0,8,9
 295.999023438 1872.59179688 295.999023438 1872.59179688 304.192382812 1853.96191406 c 0,10,11
 322.9296875 1810.06054688 322.9296875 1810.06054688 326.581054688 1784.3203125 c 0,12,13
 345.069335938 1649.62109375 345.069335938 1649.62109375 259.559570312 1605.15429688 c 0,14,15
 242.094726562 1596.62890625 242.094726562 1596.62890625 223.260742188 1592.44042969 c 0,16,17
 143.668945312 1578.13476562 143.668945312 1578.13476562 90.4208984375 1603.91992188 c 0,18,19
 83.4970703125 1607.76660156 83.4970703125 1607.76660156 72.7939453125 1618.09863281 c 0,20,21
 60.474609375 1628.98925781 60.474609375 1628.98925781 54.3408203125 1631.79980469 c 0,22,23
 44.7978515625 1636.57128906 44.7978515625 1636.57128906 26.7060546875 1642.90625 c 0,24,25
 -13.837890625 1658.92089844 -13.837890625 1658.92089844 -27.6591796875 1682.63964844 c 0,26,27
 -65.14453125 1753.62597656 -65.14453125 1753.62597656 -26.0185546875 1876.16015625 c 1,28,29
 3.4169921875 1959.89648438 3.4169921875 1959.89648438 29.7412109375 2000.79980469 c 0,30,31
 50.95703125 2033.1484375 50.95703125 2033.1484375 74.021484375 2040.16015625 c 1,0,1
229.821289062 1887.63964844 m 1,32,33
 205.723632812 1952.19726562 205.723632812 1952.19726562 147.821289062 1981.12011719 c 1,34,35
 116.733398438 1990.61035156 116.733398438 1990.61035156 110.100585938 1989.3203125 c 0,36,37
 92.060546875 1982.75976562 92.060546875 1982.75976562 70.357421875 1945.49707031 c 2,38,-1
 69.1005859375 1943.40039062 l 2,39,40
 36.048828125 1885.90527344 36.048828125 1885.90527344 14.9814453125 1815.48046875 c 0,41,42
 3.7490234375 1778.03808594 3.7490234375 1778.03808594 6.78125 1761.36035156 c 0,43,44
 18.4013671875 1692.6953125 18.4013671875 1692.6953125 92.6943359375 1680.87890625 c 0,45,46
 166.104492188 1669.20410156 166.104492188 1669.20410156 214.032226562 1718.98925781 c 0,47,48
 223.659179688 1729.69726562 223.659179688 1729.69726562 229.821289062 1740.04003906 c 1,49,50
 188.005859375 1725.9140625 188.005859375 1725.9140625 93.701171875 1726.91992188 c 0,51,52
 50.17578125 1728.35449219 50.17578125 1728.35449219 33.021484375 1749.87988281 c 0,53,54
 27.5517578125 1759.34277344 27.5517578125 1759.34277344 28.1005859375 1785.95996094 c 1,55,56
 24.2998046875 1838.17089844 24.2998046875 1838.17089844 47.78125 1886 c 0,57,58
 59.107421875 1911.86328125 59.107421875 1911.86328125 74.021484375 1918.79980469 c 0,59,60
 80.9248046875 1921.0625 80.9248046875 1921.0625 115.021484375 1920.44042969 c 0,61,62
 180.427734375 1919.39550781 180.427734375 1919.39550781 229.821289062 1887.63964844 c 1,32,33
118.30078125 1774.48046875 m 1,63,64
 157.015625 1767.6484375 157.015625 1767.6484375 188.139648438 1787.81542969 c 1,65,66
 209.202148438 1804.68945312 209.202148438 1804.68945312 193.741210938 1826.95996094 c 1,67,68
 187.97265625 1832.25683594 187.97265625 1832.25683594 170.78125 1831.87988281 c 0,69,70
 132.147460938 1829.48730469 132.147460938 1829.48730469 118.30078125 1774.48046875 c 1,63,64
EndSplineSet
EndChar

StartChar: uni0654
Encoding: 1620 1620 320
Width: 92
VWidth: 1639
GlyphClass: 2
Flags: HW
AnchorPoint: "GposMark2BaseAnchorClassErabAbove_01_02" 191.79 1587.52 mark 0
AnchorPoint: "GposMark2MarkAnchorHamzaErabAbove_01_01" 191.79 2269.29 basemark 0
AnchorPoint: "GposMark2MarkAnchorHamzaErabBelow_01_01" 191.79 1437.52 basemark 0
LayerCount: 2
Fore
SplineSet
32.240234375 1774.48046875 m 1,0,1
 -40.62109375 1812.49414062 -40.62109375 1812.49414062 -32.388671875 1903.49316406 c 0,2,3
 -28.04296875 1943.27636719 -28.04296875 1943.27636719 -8.759765625 1976.20019531 c 0,4,5
 60.7646484375 2091.39941406 60.7646484375 2091.39941406 143.759765625 2115.59960938 c 0,6,7
 156.408203125 2119.2890625 156.408203125 2119.2890625 206.080078125 2118.87988281 c 0,8,9
 249.345703125 2118.265625 249.345703125 2118.265625 270.040039062 2110.6796875 c 0,10,11
 323.862304688 2088.30957031 323.862304688 2088.30957031 343.83984375 2031.95996094 c 0,12,13
 345.865234375 2025.88476562 345.865234375 2025.88476562 346.024414062 2013.24414062 c 0,14,15
 347.28125 1995.03710938 347.28125 1995.03710938 352.040039062 1987.6796875 c 0,16,17
 392.682617188 1930.61425781 392.682617188 1930.61425781 375 1915.51953125 c 0,18,19
 363.891601562 1906.63378906 363.891601562 1906.63378906 309.01953125 1924.015625 c 0,20,21
 301.557617188 1926.21484375 301.557617188 1926.21484375 297.919921875 1927 c 0,22,23
 202.234375 1940.95996094 202.234375 1940.95996094 151.959960938 1894.20019531 c 1,24,25
 161.37109375 1890.16699219 161.37109375 1890.16699219 179.392578125 1880.66503906 c 0,26,27
 227.510742188 1856.40429688 227.510742188 1856.40429688 255.280273438 1858.12011719 c 0,28,29
 272.668945312 1859.03515625 272.668945312 1859.03515625 308.409179688 1865.96191406 c 0,30,31
 337.143554688 1871.39257812 337.143554688 1871.39257812 350.400390625 1872.87988281 c 1,32,33
 383.631835938 1872.04492188 383.631835938 1872.04492188 386.479492188 1869.59960938 c 0,34,35
 387.963867188 1868.11621094 387.963867188 1868.11621094 387.770507812 1853.31347656 c 0,36,37
 388.03515625 1850.75195312 388.03515625 1850.75195312 388.120117188 1849.91992188 c 0,38,39
 390.345703125 1829.01855469 390.345703125 1829.01855469 379.919921875 1777.75976562 c 1,40,41
 382.3046875 1778.15722656 382.3046875 1778.15722656 389.20703125 1780.0234375 c 0,42,43
 415.94921875 1787.25292969 415.94921875 1787.25292969 420.919921875 1781.04003906 c 0,44,45
 424.200195312 1777.75976562 424.200195312 1777.75976562 421.459960938 1761.80957031 c 2,46,-1
 420.919921875 1759.71972656 l 2,47,48
 418.459960938 1750.70019531 418.459960938 1750.70019531 413.540039062 1733.48046875 c 0,49,50
 408.465820312 1715.64941406 408.465820312 1715.64941406 406.16015625 1707.24023438 c 0,51,52
 400.456054688 1689.50488281 400.456054688 1689.50488281 397.959960938 1687.55957031 c 0,53,54
 390.5703125 1683.33691406 390.5703125 1683.33691406 372.297851562 1680.421875 c 0,55,56
 362.326171875 1678.66699219 362.326171875 1678.66699219 358.599609375 1677.71972656 c 0,57,58
 336.6875 1673.50683594 336.6875 1673.50683594 281.51953125 1659.6796875 c 0,59,60
 148.469726562 1626.87597656 148.469726562 1626.87597656 45.3603515625 1587.51953125 c 1,61,-1
 45.3603515625 1643.28027344 l 1,62,-1
 10.919921875 1630.16015625 l 1,63,-1
 10.919921875 1638.36035156 l 1,64,-1
 -12.0400390625 1630.16015625 l 1,65,-1
 -12.0400390625 1638.36035156 l 1,66,-1
 -35 1630.16015625 l 1,67,-1
 -35 1703.95996094 l 1,68,-1
 -33.3603515625 1733.48046875 l 1,69,-1
 -13.6796875 1748.24023438 l 1,70,-1
 32.240234375 1774.48046875 l 1,0,1
283.16015625 2012.28027344 m 1,71,72
 276.890625 2025.06933594 276.890625 2025.06933594 260.200195312 2041.79980469 c 0,73,74
 230.165039062 2070.17285156 230.165039062 2070.17285156 197.879882812 2071.3203125 c 0,75,76
 150.1875 2071.3203125 150.1875 2071.3203125 96.765625 2008.625 c 0,77,78
 91.4482421875 2002.16308594 91.4482421875 2002.16308594 88 1997.51953125 c 1,79,80
 94.3994140625 1999.84765625 94.3994140625 1999.84765625 106.7265625 2005.30078125 c 0,81,82
 129.466796875 2014.93945312 129.466796875 2014.93945312 140.479492188 2017.20019531 c 0,83,84
 185.475585938 2026.27539062 185.475585938 2026.27539062 283.16015625 2012.28027344 c 1,71,72
63.400390625 1966.36035156 m 1,85,86
 42.4912109375 1948.50585938 42.4912109375 1948.50585938 25.6796875 1908.95996094 c 0,87,88
 17.7529296875 1893.10644531 17.7529296875 1893.10644531 19.1201171875 1887.63964844 c 0,89,90
 20.759765625 1877.79980469 20.759765625 1877.79980469 35.693359375 1858.3046875 c 2,91,-1
 37.16015625 1856.48046875 l 1,92,93
 80.775390625 1810.57128906 80.775390625 1810.57128906 114.240234375 1794.16015625 c 1,94,-1
 96.2001953125 1784.3203125 l 1,95,-1
 114.240234375 1771.20019531 l 1,96,-1
 96.2001953125 1761.36035156 l 1,97,-1
 114.240234375 1748.24023438 l 1,98,-1
 28.9599609375 1700.6796875 l 1,99,-1
 28.9599609375 1699.04003906 l 1,100,101
 67.3828125 1708.41113281 67.3828125 1708.41113281 144.228515625 1731.43847656 c 0,102,103
 202.409179688 1748.82226562 202.409179688 1748.82226562 230.6796875 1756.44042969 c 0,104,105
 240.51953125 1758.90039062 240.51953125 1758.90039062 261.01953125 1763 c 0,106,107
 282.010742188 1767.2734375 282.010742188 1767.2734375 291.360351562 1769.55957031 c 0,108,109
 317.451171875 1774.77832031 317.451171875 1774.77832031 319.240234375 1776.12011719 c 0,110,111
 323.189453125 1781.29980469 323.189453125 1781.29980469 332.360351562 1817.12011719 c 1,112,113
 187.694335938 1791.44238281 187.694335938 1791.44238281 112.599609375 1845 c 1,114,115
 71.4716796875 1877.54589844 71.4716796875 1877.54589844 65.0400390625 1904.04003906 c 0,116,117
 57.2578125 1932.57617188 57.2578125 1932.57617188 63.400390625 1966.36035156 c 1,85,86
EndSplineSet
EndChar

StartChar: uni0655
Encoding: 1621 1621 321
Width: 93
VWidth: 1639
GlyphClass: 2
Flags: HW
AnchorPoint: "GposMark2BaseAnchorClassErabBelow_01_02" -28.2104 -129.15 mark 0
LayerCount: 2
Fore
SplineSet
-187.759765625 -473.959960938 m 1,0,1
 -260.62109375 -435.9453125 -260.62109375 -435.9453125 -252.388671875 -344.946289062 c 0,2,3
 -248.04296875 -305.163085938 -248.04296875 -305.163085938 -228.759765625 -272.240234375 c 0,4,5
 -159.235351562 -157.041015625 -159.235351562 -157.041015625 -76.240234375 -132.83984375 c 0,6,7
 -63.591796875 -129.150390625 -63.591796875 -129.150390625 -13.919921875 -129.559570312 c 0,8,9
 29.345703125 -130.174804688 29.345703125 -130.174804688 50.0400390625 -137.759765625 c 0,10,11
 103.862304688 -160.130859375 103.862304688 -160.130859375 123.83984375 -216.48046875 c 0,12,13
 125.865234375 -222.5546875 125.865234375 -222.5546875 126.024414062 -235.1953125 c 0,14,15
 127.28125 -253.40234375 127.28125 -253.40234375 132.040039062 -260.759765625 c 0,16,17
 175.510742188 -318.720703125 175.510742188 -318.720703125 155 -332.919921875 c 0,18,19
 143.891601562 -341.806640625 143.891601562 -341.806640625 89.01953125 -324.423828125 c 0,20,21
 81.5576171875 -322.225585938 81.5576171875 -322.225585938 77.919921875 -321.440429688 c 0,22,23
 -17.765625 -307.48046875 -17.765625 -307.48046875 -68.0400390625 -354.240234375 c 1,24,25
 -58.62890625 -358.2734375 -58.62890625 -358.2734375 -40.607421875 -367.774414062 c 0,26,27
 7.5107421875 -392.036132812 7.5107421875 -392.036132812 35.2802734375 -390.3203125 c 0,28,29
 52.6689453125 -389.405273438 52.6689453125 -389.405273438 88.4091796875 -382.478515625 c 0,30,31
 117.143554688 -377.046875 117.143554688 -377.046875 130.400390625 -375.559570312 c 1,32,33
 163.631835938 -376.39453125 163.631835938 -376.39453125 166.479492188 -378.83984375 c 0,34,35
 167.963867188 -380.32421875 167.963867188 -380.32421875 167.770507812 -395.125976562 c 0,36,37
 168.03515625 -397.688476562 168.03515625 -397.688476562 168.120117188 -398.51953125 c 0,38,39
 170.345703125 -419.420898438 170.345703125 -419.420898438 159.919921875 -470.6796875 c 1,40,41
 162.3046875 -470.282226562 162.3046875 -470.282226562 169.20703125 -468.416992188 c 0,42,43
 195.94921875 -461.1875 195.94921875 -461.1875 200.919921875 -467.400390625 c 0,44,45
 204.200195312 -470.6796875 204.200195312 -470.6796875 201.459960938 -486.629882812 c 2,46,-1
 200.919921875 -488.719726562 l 2,47,48
 198.459960938 -497.740234375 198.459960938 -497.740234375 193.540039062 -514.959960938 c 0,49,50
 188.465820312 -532.790039062 188.465820312 -532.790039062 186.16015625 -541.200195312 c 0,51,52
 180.456054688 -558.934570312 180.456054688 -558.934570312 177.959960938 -560.879882812 c 0,53,54
 170.5703125 -565.102539062 170.5703125 -565.102539062 152.297851562 -568.018554688 c 0,55,56
 142.326171875 -569.7734375 142.326171875 -569.7734375 138.599609375 -570.719726562 c 0,57,58
 116.6875 -574.93359375 116.6875 -574.93359375 61.51953125 -588.759765625 c 0,59,60
 -71.5302734375 -621.564453125 -71.5302734375 -621.564453125 -174.639648438 -660.919921875 c 1,61,-1
 -174.639648438 -605.16015625 l 1,62,-1
 -209.080078125 -618.280273438 l 1,63,-1
 -209.080078125 -610.080078125 l 1,64,-1
 -232.040039062 -618.280273438 l 1,65,-1
 -232.040039062 -610.080078125 l 1,66,-1
 -255 -618.280273438 l 1,67,-1
 -255 -544.48046875 l 1,68,-1
 -253.360351562 -514.959960938 l 1,69,-1
 -233.6796875 -500.200195312 l 1,70,-1
 -187.759765625 -473.959960938 l 1,0,1
63.16015625 -236.16015625 m 1,71,72
 56.890625 -223.37109375 56.890625 -223.37109375 40.2001953125 -206.639648438 c 0,73,74
 10.1650390625 -178.267578125 10.1650390625 -178.267578125 -22.1201171875 -177.120117188 c 0,75,76
 -69.8125 -177.120117188 -69.8125 -177.120117188 -123.234375 -239.814453125 c 0,77,78
 -128.551757812 -246.276367188 -128.551757812 -246.276367188 -132 -250.919921875 c 1,79,80
 -125.600585938 -248.592773438 -125.600585938 -248.592773438 -113.2734375 -243.139648438 c 0,81,82
 -90.533203125 -233.5 -90.533203125 -233.5 -79.5205078125 -231.240234375 c 0,83,84
 -34.5244140625 -222.1640625 -34.5244140625 -222.1640625 63.16015625 -236.16015625 c 1,71,72
-156.599609375 -282.080078125 m 1,85,86
 -177.508789062 -299.93359375 -177.508789062 -299.93359375 -194.3203125 -339.48046875 c 0,87,88
 -202.247070312 -355.333007812 -202.247070312 -355.333007812 -200.879882812 -360.799804688 c 0,89,90
 -199.240234375 -370.639648438 -199.240234375 -370.639648438 -184.306640625 -390.134765625 c 2,91,-1
 -182.83984375 -391.959960938 l 1,92,93
 -139.224609375 -437.869140625 -139.224609375 -437.869140625 -105.759765625 -454.280273438 c 1,94,-1
 -123.799804688 -464.120117188 l 1,95,-1
 -105.759765625 -477.240234375 l 1,96,-1
 -123.799804688 -487.080078125 l 1,97,-1
 -105.759765625 -500.200195312 l 1,98,-1
 -191.040039062 -547.759765625 l 1,99,-1
 -191.040039062 -549.400390625 l 1,100,101
 -152.6171875 -540.028320312 -152.6171875 -540.028320312 -75.771484375 -517.001953125 c 0,102,103
 -17.5908203125 -499.618164062 -17.5908203125 -499.618164062 10.6796875 -492 c 0,104,105
 20.51953125 -489.540039062 20.51953125 -489.540039062 41.01953125 -485.440429688 c 0,106,107
 62.0107421875 -481.166015625 62.0107421875 -481.166015625 71.3603515625 -478.879882812 c 0,108,109
 97.451171875 -473.662109375 97.451171875 -473.662109375 99.240234375 -472.3203125 c 0,110,111
 103.189453125 -467.140625 103.189453125 -467.140625 112.360351562 -431.3203125 c 1,112,113
 -32.3056640625 -456.997070312 -32.3056640625 -456.997070312 -107.400390625 -403.440429688 c 1,114,115
 -148.528320312 -370.893554688 -148.528320312 -370.893554688 -154.959960938 -344.400390625 c 0,116,117
 -162.7421875 -315.864257812 -162.7421875 -315.864257812 -156.599609375 -282.080078125 c 1,85,86
EndSplineSet
EndChar

StartChar: uni0656
Encoding: 1622 1622 322
Width: 107
VWidth: 1639
GlyphClass: 2
Flags: HW
AnchorPoint: "GposMark2BaseAnchorClassErabBelow_01_02" -7.14795 -131.558 mark 0
LayerCount: 2
Fore
SplineSet
-34.6796875 -828.200195312 m 1,0,1
 -39.62890625 -820.775390625 -39.62890625 -820.775390625 -40.93359375 -780.83203125 c 0,2,3
 -41.0234375 -778.104492188 -41.0234375 -778.104492188 -41.240234375 -775.719726562 c 0,4,5
 -42.8798828125 -756.860351562 -42.8798828125 -756.860351562 -46.16015625 -719.959960938 c 0,6,7
 -49.48828125 -682.482421875 -49.48828125 -682.482421875 -51.080078125 -664.200195312 c 0,8,9
 -56.416015625 -615.879882812 -56.416015625 -615.879882812 -93.7197265625 -350.959960938 c 1,10,11
 -109.98046875 -251.811523438 -109.98046875 -251.811523438 -110.120117188 -231.240234375 c 0,12,13
 -110.120117188 -226.748046875 -110.120117188 -226.748046875 -111.134765625 -216.65234375 c 0,14,15
 -112.456054688 -200.166015625 -112.456054688 -200.166015625 -111.759765625 -193.51953125 c 1,16,17
 -109.16796875 -187.059570312 -109.16796875 -187.059570312 -87.16015625 -177.120117188 c 1,18,19
 -64.1845703125 -163.174804688 -64.1845703125 -163.174804688 -19.919921875 -141.040039062 c 0,20,21
 -0.5458984375 -131.844726562 -0.5458984375 -131.844726562 6.3203125 -139.400390625 c 1,22,23
 23.6650390625 -131.557617188 23.6650390625 -131.557617188 29.2802734375 -139.400390625 c 1,24,25
 42.6669921875 -132.391601562 42.6669921875 -132.391601562 48.9599609375 -136.120117188 c 0,26,27
 52.232421875 -139.822265625 52.232421875 -139.822265625 55.5205078125 -159.080078125 c 1,28,29
 58.720703125 -205.461914062 58.720703125 -205.461914062 58.7998046875 -229.599609375 c 1,30,31
 78.5654296875 -221.525390625 78.5654296875 -221.525390625 83.400390625 -224.6796875 c 0,32,33
 90.3095703125 -231.509765625 90.3095703125 -231.509765625 89.9599609375 -264.040039062 c 1,34,35
 94.8798828125 -377.200195312 94.8798828125 -377.200195312 94.8798828125 -377.200195312 c 1,36,37
 94.8798828125 -431.3203125 94.8798828125 -431.3203125 96.5205078125 -538.740234375 c 0,38,39
 98.1435546875 -646.717773438 98.1435546875 -646.717773438 98.16015625 -700.280273438 c 0,40,41
 98.16015625 -786.016601562 98.16015625 -786.016601562 95.623046875 -798.157226562 c 0,42,43
 90.265625 -820.534179688 90.265625 -820.534179688 80.1201171875 -836.400390625 c 0,44,45
 67.2021484375 -855.504882812 67.2021484375 -855.504882812 47.3203125 -870.83984375 c 1,46,-1
 45.6806640625 -870.83984375 l 1,47,48
 39.09375 -860.490234375 39.09375 -860.490234375 37.798828125 -811.372070312 c 0,49,50
 37.6162109375 -807.330078125 37.6162109375 -807.330078125 37.48046875 -805.240234375 c 1,51,-1
 35.83984375 -805.240234375 l 1,52,-1
 12.8798828125 -828.200195312 l 1,53,-1
 11.240234375 -828.200195312 l 1,54,-1
 6.3203125 -815.080078125 l 1,55,-1
 -10.080078125 -828.200195312 l 1,56,-1
 -11.7197265625 -828.200195312 l 1,57,-1
 -16.6396484375 -815.080078125 l 1,58,-1
 -33.0400390625 -828.200195312 l 1,59,-1
 -34.6796875 -828.200195312 l 1,0,1
7.9599609375 -196.799804688 m 1,60,-1
 -41.240234375 -223.040039062 l 1,61,-1
 -57.6396484375 -234.51953125 l 1,62,-1
 -52.7197265625 -278.799804688 l 1,63,-1
 -36.3193359375 -380.48046875 l 1,64,-1
 -8.439453125 -598.599609375 l 1,65,-1
 4.6806640625 -738 l 1,66,-1
 6.3203125 -738 l 1,67,68
 22.146484375 -699.04296875 22.146484375 -699.04296875 18.33203125 -590.00390625 c 0,69,70
 17.8330078125 -574.231445312 17.8330078125 -574.231445312 17.7998046875 -564.16015625 c 0,71,72
 17.6689453125 -317.6328125 17.6689453125 -317.6328125 7.9599609375 -196.799804688 c 1,60,-1
EndSplineSet
EndChar

StartChar: uni0670
Encoding: 1648 1648 326
Width: 107
VWidth: 1639
GlyphClass: 2
Flags: HW
AnchorPoint: "GposMark2BaseAnchorHamzaErabAbove_01_01" 159.841 1587.52 mark 0
AnchorPoint: "GposMark2BaseAnchorHamzaErabBelow_01_01" 159.841 2326.8 mark 0
AnchorPoint: "GposMark2BaseAnchorClassErabAbove_01_02" 159.841 1587.52 mark 0
AnchorPoint: "GposMark2MarkAnchorHamzaErabAbove_01_01" 159.841 1587.52 mark 0
AnchorPoint: "GposMark2MarkAnchorHamzaErabBelow_01_01" 159.841 2326.8 mark 0
AnchorPoint: "GposMark2MarkAnchorShaddaErabAbove_01_02" 159.841 1587.52 mark 0
AnchorPoint: "GposMark2MarkAnchorShaddaErabBelow_01_02" 159.841 2326.8 mark 0
LayerCount: 2
Fore
SplineSet
132.459960938 1630.16015625 m 1,0,1
 127.510742188 1637.58398438 127.510742188 1637.58398438 126.206054688 1677.52832031 c 0,2,3
 126.015625 1680.98339844 126.015625 1680.98339844 125.899414062 1682.63964844 c 0,4,5
 124.259765625 1701.5 124.259765625 1701.5 120.979492188 1738.40039062 c 0,6,7
 117.651367188 1775.87792969 117.651367188 1775.87792969 116.059570312 1794.16015625 c 0,8,9
 110.723632812 1842.48046875 110.723632812 1842.48046875 73.419921875 2107.40039062 c 1,10,11
 57.1591796875 2206.54882812 57.1591796875 2206.54882812 57.01953125 2227.12011719 c 0,12,13
 57.01953125 2231.61132812 57.01953125 2231.61132812 56.0048828125 2241.70800781 c 0,14,15
 54.3818359375 2257.8515625 54.3818359375 2257.8515625 55.3798828125 2264.83984375 c 1,16,17
 57.9716796875 2271.30078125 57.9716796875 2271.30078125 79.9794921875 2281.24023438 c 1,18,19
 102.955078125 2295.18457031 102.955078125 2295.18457031 147.219726562 2317.3203125 c 0,20,21
 166.59375 2326.515625 166.59375 2326.515625 173.459960938 2318.95996094 c 1,22,23
 190.8046875 2326.80273438 190.8046875 2326.80273438 196.419921875 2318.95996094 c 1,24,25
 209.806640625 2325.96777344 209.806640625 2325.96777344 216.099609375 2322.24023438 c 0,26,27
 219.372070312 2318.53808594 219.372070312 2318.53808594 222.66015625 2299.28027344 c 1,28,29
 225.860351562 2252.8984375 225.860351562 2252.8984375 225.939453125 2228.75976562 c 1,30,31
 245.705078125 2236.83398438 245.705078125 2236.83398438 250.540039062 2233.6796875 c 0,32,33
 257.44921875 2226.85058594 257.44921875 2226.85058594 257.099609375 2194.3203125 c 0,34,35
 257.646484375 2181.74707031 257.646484375 2181.74707031 259.104492188 2156.59960938 c 0,36,37
 261.958984375 2105.75976562 261.958984375 2105.75976562 262.01953125 2081.16015625 c 0,38,39
 262.01953125 2027.04003906 262.01953125 2027.04003906 263.66015625 1919.62011719 c 0,40,41
 265.283203125 1811.64257812 265.283203125 1811.64257812 265.299804688 1758.08007812 c 0,42,43
 265.299804688 1672.34277344 265.299804688 1672.34277344 262.762695312 1660.203125 c 0,44,45
 257.405273438 1637.82519531 257.405273438 1637.82519531 247.259765625 1621.95996094 c 0,46,47
 234.341796875 1602.85546875 234.341796875 1602.85546875 214.459960938 1587.51953125 c 1,48,-1
 212.8203125 1587.51953125 l 1,49,50
 206.233398438 1597.87011719 206.233398438 1597.87011719 204.938476562 1646.98828125 c 0,51,52
 204.848632812 1650.37402344 204.848632812 1650.37402344 204.620117188 1653.12011719 c 1,53,-1
 202.979492188 1653.12011719 l 1,54,-1
 180.01953125 1630.16015625 l 1,55,-1
 178.379882812 1630.16015625 l 1,56,-1
 173.459960938 1643.28027344 l 1,57,-1
 157.059570312 1630.16015625 l 1,58,-1
 155.419921875 1630.16015625 l 1,59,-1
 150.5 1643.28027344 l 1,60,-1
 134.099609375 1630.16015625 l 1,61,-1
 132.459960938 1630.16015625 l 1,0,1
175.099609375 2261.55957031 m 1,62,-1
 125.899414062 2235.3203125 l 1,63,-1
 109.5 2223.83984375 l 1,64,-1
 114.419921875 2179.55957031 l 1,65,-1
 130.8203125 2077.87988281 l 1,66,-1
 158.700195312 1859.75976562 l 1,67,-1
 171.8203125 1720.36035156 l 1,68,-1
 173.459960938 1720.36035156 l 1,69,70
 189.286132812 1759.31738281 189.286132812 1759.31738281 185.471679688 1868.35644531 c 0,71,72
 184.97265625 1884.12890625 184.97265625 1884.12890625 184.939453125 1894.20019531 c 0,73,74
 184.80859375 2140.72753906 184.80859375 2140.72753906 175.099609375 2261.55957031 c 1,62,-1
EndSplineSet
EndChar

StartChar: uni0674
Encoding: 1652 1652 327
Width: 110
GlyphClass: 2
Flags: HW
AnchorPoint: "GposMark2BaseAnchorClassErabAbove_01_02" 359.5 1014 mark 0
AnchorPoint: "GposMark2MarkAnchorHamzaErabAbove_01_01" 359.5 1579 basemark 0
AnchorPoint: "GposMark2MarkAnchorHamzaErabBelow_01_01" 359.5 864 basemark 0
LayerCount: 2
Fore
SplineSet
533 1178 m 2,0,1
 528 1160 528 1160 521 1145 c 128,-1,2
 514 1130 514 1130 509 1129 c 0,3,4
 461 1118 461 1118 421 1109 c 128,-1,5
 381 1100 381 1100 363 1095 c 0,6,7
 317 1082 317 1082 274 1062 c 128,-1,8
 231 1042 231 1042 196 1018 c 1,9,10
 192 1014 192 1014 188 1014 c 0,11,12
 185 1014 185 1014 180 1018 c 128,-1,13
 175 1022 175 1022 175 1025 c 256,14,15
 175 1028 175 1028 180 1032 c 1,16,-1
 180 1031 l 1,17,18
 191 1051 191 1051 217 1076 c 128,-1,19
 243 1101 243 1101 283 1136 c 1,20,21
 195 1171 195 1171 195 1233 c 0,22,23
 195 1282 195 1282 269 1355 c 1,24,25
 346 1429 346 1429 410 1429 c 0,26,27
 421 1429 421 1429 433.5 1425.5 c 128,-1,28
 446 1422 446 1422 456 1415.5 c 128,-1,29
 466 1409 466 1409 472.5 1400.5 c 128,-1,30
 479 1392 479 1392 479 1382 c 0,31,32
 479 1368 479 1368 475.5 1353.5 c 128,-1,33
 472 1339 472 1339 466 1327 c 128,-1,34
 460 1315 460 1315 452.5 1307.5 c 128,-1,35
 445 1300 445 1300 437 1300 c 0,36,37
 433 1300 433 1300 425.5 1307.5 c 128,-1,38
 418 1315 418 1315 408 1323.5 c 128,-1,39
 398 1332 398 1332 385.5 1339.5 c 128,-1,40
 373 1347 373 1347 359 1347 c 256,41,42
 345 1347 345 1347 329 1339.5 c 128,-1,43
 313 1332 313 1332 299 1321.5 c 128,-1,44
 285 1311 285 1311 276 1299 c 128,-1,45
 267 1287 267 1287 267 1277 c 0,46,47
 267 1259 267 1259 279 1244 c 128,-1,48
 291 1229 291 1229 309.5 1218 c 128,-1,49
 328 1207 328 1207 352 1201 c 128,-1,50
 376 1195 376 1195 400 1195 c 0,51,52
 403 1195 403 1195 424 1200 c 128,-1,53
 445 1205 445 1205 470 1210.5 c 128,-1,54
 495 1216 495 1216 517 1221 c 128,-1,55
 539 1226 539 1226 544 1226 c 1,56,-1
 533 1178 l 2,0,1
EndSplineSet
EndChar

StartChar: afii57388
Encoding: 1548 1548 329
Width: 714
VWidth: 1639
GlyphClass: 2
Flags: W
LayerCount: 2
Fore
SplineSet
327.040039062 277.16015625 m 1,0,1
 401.055664062 276.083984375 401.055664062 276.083984375 430.360351562 254.200195312 c 0,2,3
 456.321289062 234.65234375 456.321289062 234.65234375 468.080078125 191.879882812 c 1,4,5
 473.797851562 160.745117188 473.797851562 160.745117188 473 162.360351562 c 1,6,7
 476.104492188 154.599609375 476.104492188 154.599609375 485.329101562 141.16796875 c 0,8,9
 495.795898438 125.094726562 495.795898438 125.094726562 499.240234375 116.440429688 c 0,8,9
 523.900390625 28.076171875 523.900390625 28.076171875 462.904296875 -30.8017578125 c 0,10,11
 443.559570312 -48.494140625 443.559570312 -48.494140625 420.520507812 -59.0400390625 c 0,10,11
 346.92578125 -87.6943359375 346.92578125 -87.6943359375 277.840820312 -54.1201171875 c 0,12,13
 268.984375 -50.18359375 268.984375 -50.18359375 254.814453125 -38.76953125 c 0,14,15
 244.684570312 -30.892578125 244.684570312 -30.892578125 240.120117188 -27.8798828125 c 0,14,15
 237.684570312 -25.8505859375 237.684570312 -25.8505859375 207.118164062 -16.462890625 c 0,16,17
 203.84765625 -15.3076171875 203.84765625 -15.3076171875 202.400390625 -14.759765625 c 0,16,17
 173.5625 0.4951171875 173.5625 0.4951171875 149.920898438 26.240234375 c 1,18,19
 104.236328125 85.1103515625 104.236328125 85.1103515625 104 195.16015625 c 0,20,21
 104.923828125 331.04296875 104.923828125 331.04296875 149.920898438 403.440429688 c 0,22,23
 207.46484375 498.388671875 207.46484375 498.388671875 289.908203125 525.732421875 c 0,24,25
 297.837890625 528.205078125 297.837890625 528.205078125 304.080078125 529.719726562 c 0,24,25
 337.89453125 537.700195312 337.89453125 537.700195312 389.360351562 534.639648438 c 0,26,27
 412.514648438 532.53515625 412.514648438 532.53515625 412.857421875 521.422851562 c 1,28,29
 411.217773438 514.545898438 411.217773438 514.545898438 405.760742188 508.400390625 c 1,28,29
 418.724609375 499.310546875 418.724609375 499.310546875 405.760742188 485.440429688 c 1,30,31
 424.276367188 476.181640625 424.276367188 476.181640625 388.624023438 446.317382812 c 0,32,33
 384.33984375 442.571289062 384.33984375 442.571289062 382.80078125 441.16015625 c 1,32,33
 416.147460938 447.1953125 416.147460938 447.1953125 432 444.440429688 c 0,34,35
 445.267578125 442.171875 445.267578125 442.171875 448.400390625 434.599609375 c 1,36,37
 449.84765625 423.5625 449.84765625 423.5625 410.680664062 393.599609375 c 1,38,39
 362.809570312 350.889648438 362.809570312 350.889648438 327.040039062 277.16015625 c 1,0,1
317.200195312 470.6796875 m 1,40,41
 212.395507812 421.770507812 212.395507812 421.770507812 169.293945312 299.500976562 c 0,42,43
 153.23828125 252.463867188 153.23828125 252.463867188 151.560546875 206.639648438 c 0,42,43
 147.57421875 112.974609375 147.57421875 112.974609375 213.985351562 54.8916015625 c 0,44,45
 239.350585938 33.748046875 239.350585938 33.748046875 268 24.599609375 c 0,44,45
 325.198242188 6.537109375 325.198242188 6.537109375 382.353515625 56.3759765625 c 0,46,47
 419.071289062 90.0712890625 419.071289062 90.0712890625 423.80078125 129.559570312 c 1,46,47
 425.09765625 156.255859375 425.09765625 156.255859375 404.120117188 188.599609375 c 1,48,49
 373.826171875 228.395507812 373.826171875 228.395507812 327.040039062 229.599609375 c 0,50,51
 323.091796875 229.599609375 323.091796875 229.599609375 309.116210938 226.345703125 c 0,52,53
 279.713867188 220.364257812 279.713867188 220.364257812 274.560546875 224.6796875 c 1,52,53
 255.39453125 221.411132812 255.39453125 221.411132812 251.600585938 224.6796875 c 1,54,-1
 228.640625 219.759765625 l 1,55,56
 229.444335938 335.053710938 229.444335938 335.053710938 256.520507812 388.6796875 c 0,57,58
 262.125976562 399.330078125 262.125976562 399.330078125 308.681640625 459.223632812 c 0,59,60
 313.8671875 466.03515625 313.8671875 466.03515625 317.200195312 470.6796875 c 1,40,41
EndSplineSet
EndChar

StartChar: afii57403
Encoding: 1563 1563 334
Width: 714
VWidth: 1639
GlyphClass: 2
Flags: W
LayerCount: 2
Fore
SplineSet
327.040039062 659.280273438 m 1,0,1
 404.349609375 658.10546875 404.349609375 658.10546875 435.280273438 633.040039062 c 0,2,3
 454.77734375 616.79296875 454.77734375 616.79296875 465.412109375 571.395507812 c 0,4,5
 469.388671875 555.551757812 469.388671875 555.551757812 473 546.120117188 c 0,4,5
 475.999023438 537.874023438 475.999023438 537.874023438 485.5703125 523.211914062 c 0,6,7
 497.271484375 504.325195312 497.271484375 504.325195312 500.880859375 493.639648438 c 0,6,7
 523.387695312 399.51953125 523.387695312 399.51953125 449.831054688 344.526367188 c 0,8,9
 431.259765625 331.290039062 431.259765625 331.290039062 410.680664062 323.080078125 c 0,8,9
 342.841796875 297.266601562 342.841796875 297.266601562 279.48046875 328 c 0,10,11
 271.194335938 332.603515625 271.194335938 332.603515625 256.853515625 343.75 c 0,12,13
 245.258789062 352.529296875 245.258789062 352.529296875 240.120117188 355.879882812 c 0,12,13
 233.001953125 359.983398438 233.001953125 359.983398438 205.680664062 367.360351562 c 1,14,15
 176.716796875 380.7109375 176.716796875 380.7109375 148.280273438 411.639648438 c 1,16,17
 104.250976562 466.99609375 104.250976562 466.99609375 104 572.360351562 c 0,18,19
 104.971679688 716.06640625 104.971679688 716.06640625 156.48046875 795.400390625 c 0,20,21
 212.397460938 882.071289062 212.397460938 882.071289062 293.576171875 909.47265625 c 0,22,23
 301.323242188 911.942382812 301.323242188 911.942382812 307.360351562 913.48046875 c 0,22,23
 342.01171875 919.584960938 342.01171875 919.584960938 389.360351562 916.759765625 c 1,24,25
 421.32421875 910.887695312 421.32421875 910.887695312 404.120117188 890.51953125 c 1,26,27
 420.551757812 885.081054688 420.551757812 885.081054688 404.120117188 867.559570312 c 1,28,29
 426.228515625 862.033203125 426.228515625 862.033203125 386.5546875 826.7421875 c 0,30,31
 383.907226562 824.38671875 383.907226562 824.38671875 382.80078125 823.280273438 c 1,30,31
 416.147460938 829.315429688 416.147460938 829.315429688 432 826.559570312 c 0,32,33
 444.8203125 824.736328125 444.8203125 824.736328125 448.400390625 818.360351562 c 0,34,35
 448.400390625 816.719726562 448.400390625 816.719726562 447.580078125 813.440429688 c 0,36,37
 446.760742188 810.16015625 446.760742188 810.16015625 443.48046875 806.059570312 c 0,38,39
 440.200195312 801.959960938 440.200195312 801.959960938 437.740234375 799.5 c 0,40,41
 435.280273438 797.040039062 435.280273438 797.040039062 430.360351562 792.940429688 c 0,42,43
 425.440429688 788.83984375 425.440429688 788.83984375 423.80078125 786.379882812 c 0,44,45
 422.16015625 783.919921875 422.16015625 783.919921875 417.240234375 780.639648438 c 2,46,-1
 412.3203125 777.360351562 l 1,36,37
 359.202148438 727.765625 359.202148438 727.765625 327.040039062 659.280273438 c 1,0,1
317.200195312 852.799804688 m 1,38,39
 226.487304688 813.922851562 226.487304688 813.922851562 177.71875 706.315429688 c 0,40,41
 143.541015625 628.815429688 143.541015625 628.815429688 153.200195312 559.240234375 c 0,40,41
 165.869140625 468.447265625 165.869140625 468.447265625 229.30078125 424.545898438 c 0,42,43
 258.834960938 405.291015625 258.834960938 405.291015625 290.959960938 403.440429688 c 0,42,43
 353.153320312 401.13671875 353.153320312 401.13671875 396.989257812 458.181640625 c 0,44,45
 445.706054688 521.577148438 445.706054688 521.577148438 402.864257812 573.852539062 c 0,46,47
 396.377929688 581.767578125 396.377929688 581.767578125 387.720703125 588.759765625 c 0,44,45
 370.52734375 602.025390625 370.52734375 602.025390625 353.280273438 606.799804688 c 0,46,47
 331.75 612.310546875 331.75 612.310546875 274.560546875 601.879882812 c 1,48,49
 271.875976562 608.401367188 271.875976562 608.401367188 251.600585938 601.879882812 c 1,50,51
 248.916015625 608.401367188 248.916015625 608.401367188 228.640625 601.879882812 c 1,52,53
 229.475585938 720.413085938 229.475585938 720.413085938 258.16015625 774.080078125 c 0,54,55
 262.533203125 781.951171875 262.533203125 781.951171875 308.412109375 840.975585938 c 0,56,57
 313.719726562 847.947265625 313.719726562 847.947265625 317.200195312 852.799804688 c 1,38,39
251.600585938 244.360351562 m 0,56,57
 368.974609375 258.341796875 368.974609375 258.341796875 412.3203125 185.3203125 c 1,58,59
 421.95703125 161.625 421.95703125 161.625 423.80078125 149.240234375 c 0,60,61
 424.430664062 128.986328125 424.430664062 128.986328125 425.440429688 126.280273438 c 0,62,63
 428.87890625 119.9765625 428.87890625 119.9765625 436.927734375 108.611328125 c 0,64,65
 451.759765625 87.669921875 451.759765625 87.669921875 454.959960938 73.7998046875 c 0,64,65
 471.100585938 7.4453125 471.100585938 7.4453125 418.889648438 -37.7958984375 c 0,66,67
 395.563476562 -56.7421875 395.563476562 -56.7421875 368.040039062 -62.3203125 c 0,66,67
 324.591796875 -68.8447265625 324.591796875 -68.8447265625 287.680664062 -45.919921875 c 0,68,69
 282.760742188 -42.6396484375 282.760742188 -42.6396484375 273.740234375 -33.6201171875 c 0,70,71
 264.061523438 -24.4541015625 264.061523438 -24.4541015625 259.80078125 -21.3203125 c 0,70,71
 254.055664062 -18.447265625 254.055664062 -18.447265625 239.494140625 -16.1025390625 c 0,72,73
 229.147460938 -14.216796875 229.147460938 -14.216796875 225.360351562 -13.1201171875 c 0,72,73
 183.569335938 6.865234375 183.569335938 6.865234375 164.680664062 47.5595703125 c 1,74,75
 158.12890625 68.9384765625 158.12890625 68.9384765625 158.120117188 108.240234375 c 0,76,77
 158.4140625 153.259765625 158.4140625 153.259765625 159.760742188 160.719726562 c 0,78,79
 176.140625 221.5625 176.140625 221.5625 237.669921875 240.895507812 c 0,80,81
 245.38671875 243.1171875 245.38671875 243.1171875 251.600585938 244.360351562 c 0,56,57
290.959960938 195.16015625 m 0,80,81
 252.802734375 195.16015625 252.802734375 195.16015625 220.78125 150.666015625 c 0,82,83
 206.36328125 129.09765625 206.36328125 129.09765625 205.680664062 111.51953125 c 0,82,83
 205.680664062 73.85546875 205.680664062 73.85546875 251.361328125 42.52734375 c 0,84,85
 273.280273438 28.5361328125 273.280273438 28.5361328125 290.959960938 27.8798828125 c 0,84,85
 329.118164062 27.8798828125 329.118164062 27.8798828125 361.139648438 72.3740234375 c 0,86,87
 375.557617188 93.9423828125 375.557617188 93.9423828125 376.240234375 111.51953125 c 0,86,87
 374.506835938 149.662109375 374.506835938 149.662109375 330.173828125 180.512695312 c 0,88,89
 308.541015625 194.500976562 308.541015625 194.500976562 290.959960938 195.16015625 c 0,80,81
EndSplineSet
EndChar

StartChar: afii57407
Encoding: 1567 1567 335
Width: 1073
VWidth: 1639
GlyphClass: 2
Flags: W
LayerCount: 2
Fore
SplineSet
452.608398438 309.959960938 m 1,0,1
 452.784179688 371.119140625 452.784179688 371.119140625 455.888671875 400.16015625 c 0,2,3
 464.095703125 456.451171875 464.095703125 456.451171875 462.448242188 469.040039062 c 0,4,5
 453.076171875 505.45703125 453.076171875 505.45703125 421.448242188 546.120117188 c 0,6,7
 389.447265625 588.227539062 389.447265625 588.227539062 283.90625 683.765625 c 0,8,9
 230.267578125 732.712890625 230.267578125 732.712890625 201.688476562 765.879882812 c 0,8,9
 134.767578125 849.607421875 134.767578125 849.607421875 114.768554688 949.559570312 c 0,10,11
 78.9013671875 1132.15820312 78.9013671875 1132.15820312 162.498046875 1283.28710938 c 0,12,13
 220.962890625 1388.98242188 220.962890625 1388.98242188 324.688476562 1436.63964844 c 0,12,13
 390.5390625 1466.10351562 390.5390625 1466.10351562 511.6484375 1466.16015625 c 0,14,15
 601.541992188 1465.36914062 601.541992188 1465.36914062 674.008789062 1428.44042969 c 1,16,17
 725.518554688 1399.31933594 725.518554688 1399.31933594 762.568359375 1357.91992188 c 0,18,19
 791.388671875 1324.77636719 791.388671875 1324.77636719 821.946289062 1238.58007812 c 0,20,21
 822.899414062 1235.90136719 822.899414062 1235.90136719 823.248046875 1234.91992188 c 0,20,21
 826.763671875 1225.07714844 826.763671875 1225.07714844 836.249023438 1205.90722656 c 0,22,23
 848.96875 1179.43261719 848.96875 1179.43261719 852.768554688 1166.04003906 c 0,22,23
 882.70703125 1052.70117188 882.70703125 1052.70117188 836.607421875 964.545898438 c 0,24,25
 813.807617188 923.5390625 813.807617188 923.5390625 778.96875 902 c 0,24,25
 720.60546875 867.512695312 720.60546875 867.512695312 660.21484375 890.57421875 c 0,26,27
 655.577148438 892.482421875 655.577148438 892.482421875 652.688476562 893.799804688 c 0,26,27
 644.67578125 898.250976562 644.67578125 898.250976562 631.689453125 909.928710938 c 0,28,29
 620.263671875 919.765625 620.263671875 919.765625 614.96875 923.3203125 c 0,28,29
 611.959960938 925.827148438 611.959960938 925.827148438 583.624023438 932.7421875 c 0,30,31
 579.385742188 934.015625 579.385742188 934.015625 577.248046875 934.799804688 c 0,30,31
 542.610351562 951.12109375 542.610351562 951.12109375 523.12890625 985.639648438 c 0,32,33
 511.661132812 1008.578125 511.661132812 1008.578125 511.6484375 1054.51953125 c 0,34,35
 512.310546875 1112.37109375 512.310546875 1112.37109375 523.12890625 1138.16015625 c 1,36,37
 555.813476562 1203.54492188 555.813476562 1203.54492188 647.768554688 1207.04003906 c 1,38,39
 700.135742188 1206.63769531 700.135742188 1206.63769531 705.16796875 1205.40039062 c 1,40,41
 671.809570312 1262.109375 671.809570312 1262.109375 659.64453125 1273.15429688 c 0,42,43
 651.452148438 1279.99804688 651.452148438 1279.99804688 644.48828125 1284.12011719 c 0,42,43
 624.935546875 1295.58496094 624.935546875 1295.58496094 575.608398438 1295.59960938 c 0,44,45
 476.2578125 1295.59960938 476.2578125 1295.59960938 414.591796875 1205.03320312 c 0,46,47
 377.981445312 1149.59960938 377.981445312 1149.59960938 375.528320312 1087.3203125 c 0,46,47
 374.719726562 1033.49023438 374.719726562 1033.49023438 423.088867188 949.559570312 c 0,48,49
 436.177734375 925.658203125 436.177734375 925.658203125 463.584960938 878.172851562 c 0,50,51
 515.586914062 787.786132812 515.586914062 787.786132812 537.888671875 741.280273438 c 0,50,51
 543.62890625 727.33984375 543.62890625 727.33984375 554.288085938 698.639648438 c 0,52,53
 565.19921875 669.43359375 565.19921875 669.43359375 570.688476562 656 c 0,52,53
 616.706054688 541.262695312 616.706054688 541.262695312 619.888671875 492 c 0,54,55
 623.0390625 443.6953125 623.0390625 443.6953125 599.396484375 304.620117188 c 0,56,57
 595.752929688 282.845703125 595.752929688 282.845703125 593.6484375 267.3203125 c 1,56,-1
 532.96875 267.3203125 l 1,57,-1
 536.248046875 309.959960938 l 1,58,-1
 452.608398438 309.959960938 l 1,0,1
718.288085938 1136.51953125 m 1,59,60
 673.166992188 1160.11621094 673.166992188 1160.11621094 655.96875 1159.48046875 c 0,61,62
 608.025390625 1156.38671875 608.025390625 1156.38671875 576.252929688 1106.44433594 c 0,63,64
 555.426757812 1071.32910156 555.426757812 1071.32910156 564.12890625 1041.40039062 c 1,63,64
 579.143554688 998.499023438 579.143554688 998.499023438 622.4765625 980.053710938 c 0,65,66
 637.08203125 974.514648438 637.08203125 974.514648438 649.408203125 974.16015625 c 0,65,66
 701.887695312 978.014648438 701.887695312 978.014648438 739.608398438 1029.91992188 c 0,67,68
 809.560546875 1125.30859375 809.560546875 1125.30859375 760.916015625 1240.96484375 c 0,69,70
 753.334960938 1258.99023438 753.334960938 1258.99023438 742.888671875 1275.91992188 c 0,69,70
 711.685546875 1323.78320312 711.685546875 1323.78320312 667.448242188 1356.28027344 c 0,71,72
 579.899414062 1423.40039062 579.899414062 1423.40039062 488.688476562 1418.59960938 c 1,73,74
 342.672851562 1413.83886719 342.672851562 1413.83886719 240.32421875 1285.05566406 c 0,75,76
 192.640625 1223.9765625 192.640625 1223.9765625 170.528320312 1152.91992188 c 1,75,76
 150.534179688 1079.60839844 150.534179688 1079.60839844 154.12890625 1036.48046875 c 0,77,78
 167.612304688 911.771484375 167.612304688 911.771484375 247.608398438 813.440429688 c 0,79,80
 265.4609375 791.530273438 265.4609375 791.530273438 355.764648438 704.9140625 c 0,81,82
 365.487304688 695.526367188 365.487304688 695.526367188 372.248046875 688.799804688 c 0,81,82
 451.44921875 612.645507812 451.44921875 612.645507812 462.295898438 599.537109375 c 0,83,84
 480.73046875 576.647460938 480.73046875 576.647460938 491.96875 555.959960938 c 0,83,84
 515.38671875 509.123046875 515.38671875 509.123046875 506.634765625 411.119140625 c 0,85,86
 503.541992188 374.865234375 503.541992188 374.865234375 503.448242188 355.879882812 c 1,85,-1
 513.288085938 355.879882812 l 1,86,87
 515.814453125 377.985351562 515.814453125 377.985351562 525.280273438 423.82421875 c 0,88,89
 540.266601562 498.181640625 540.266601562 498.181640625 539.528320312 533 c 0,88,89
 537.215820312 589.265625 537.215820312 589.265625 491.96875 693.719726562 c 0,90,91
 477.96484375 724.838867188 477.96484375 724.838867188 388.587890625 879.302734375 c 0,92,93
 289.5234375 1050.51074219 289.5234375 1050.51074219 293.643554688 1164.50878906 c 0,94,95
 294.599609375 1190.97265625 294.599609375 1190.97265625 300.088867188 1216.87988281 c 0,92,93
 318.22265625 1303.01855469 318.22265625 1303.01855469 394.00390625 1354.58496094 c 0,94,95
 407.505859375 1363.43164062 407.505859375 1363.43164062 419.80859375 1369.40039062 c 0,94,95
 456.301757812 1384.05371094 456.301757812 1384.05371094 514.928710938 1384.16015625 c 0,96,97
 624.689453125 1383.02246094 624.689453125 1383.02246094 683.848632812 1336.59960938 c 0,98,99
 750.044921875 1282.47949219 750.044921875 1282.47949219 762.568359375 1210.3203125 c 0,100,101
 764.374023438 1195.11816406 764.374023438 1195.11816406 764.208007812 1136.51953125 c 1,102,-1
 741.248046875 1148 l 1,103,-1
 741.248046875 1136.51953125 l 1,104,-1
 718.288085938 1148 l 1,105,-1
 718.288085938 1136.51953125 l 1,59,60
449.328125 232.879882812 m 0,106,107
 568.22265625 247.966796875 568.22265625 247.966796875 608.408203125 177.120117188 c 0,108,109
 611.272460938 171.391601562 611.272460938 171.391601562 616.875976562 132.328125 c 0,110,111
 618.314453125 124.557617188 618.314453125 124.557617188 619.888671875 119.719726562 c 0,110,111
 623.512695312 110.296875 623.512695312 110.296875 634.545898438 95.3759765625 c 0,112,113
 648.052734375 75.7587890625 648.052734375 75.7587890625 651.048828125 63.9599609375 c 0,112,113
 666.935546875 0.4130859375 666.935546875 0.4130859375 614.6796875 -42.6474609375 c 0,114,115
 591.302734375 -60.6953125 591.302734375 -60.6953125 564.12890625 -65.599609375 c 1,114,115
 520.676757812 -69.9287109375 520.676757812 -69.9287109375 487.048828125 -47.5595703125 c 0,116,117
 482.567382812 -44.572265625 482.567382812 -44.572265625 475.025390625 -36.6201171875 c 0,118,119
 465.36328125 -27.345703125 465.36328125 -27.345703125 460.80859375 -24.599609375 c 0,118,119
 455.0234375 -21.7080078125 455.0234375 -21.7080078125 441.385742188 -19.3583984375 c 0,120,121
 431.680664062 -17.4736328125 431.680664062 -17.4736328125 428.008789062 -16.400390625 c 0,120,121
 386.892578125 1.796875 386.892578125 1.796875 370.608398438 39.3603515625 c 0,122,123
 362.421875 59.150390625 362.421875 59.150390625 362.408203125 93.48046875 c 0,124,125
 362.780273438 150.224609375 362.780273438 150.224609375 364.048828125 155.799804688 c 0,126,127
 380.470703125 212.104492188 380.470703125 212.104492188 435.927734375 229.65234375 c 0,128,129
 443.4140625 231.786132812 443.4140625 231.786132812 449.328125 232.879882812 c 0,106,107
488.688476562 185.3203125 m 1,128,129
 451.1953125 181.5703125 451.1953125 181.5703125 422.6015625 139.6640625 c 0,130,131
 410.59765625 120.520507812 410.59765625 120.520507812 409.96875 104.959960938 c 0,130,131
 409.96875 69.892578125 409.96875 69.892578125 452.734375 39.171875 c 0,132,133
 473.018554688 24.599609375 473.018554688 24.599609375 490.328125 24.599609375 c 0,132,133
 528.57421875 26.4208984375 528.57421875 26.4208984375 557.999023438 69.90234375 c 0,134,135
 570.060546875 89.263671875 570.060546875 89.263671875 570.688476562 104.959960938 c 0,134,135
 570.688476562 140.514648438 570.688476562 140.514648438 528.153320312 170.870117188 c 0,136,137
 506.166015625 185.411132812 506.166015625 185.411132812 488.688476562 185.3203125 c 1,128,129
EndSplineSet
EndChar

StartChar: afii57409
Encoding: 1569 1569 336
AltUni2: 00fe80.ffffffff.0
Width: 815
VWidth: 1639
GlyphClass: 2
Flags: HW
AnchorPoint: "GposMark2BaseAnchorHamzaErabAbove_01_01" 324.021 857.736 basechar 0
AnchorPoint: "GposMark2BaseAnchorHamzaErabBelow_01_01" 324.021 -233.64 basechar 0
LayerCount: 2
Fore
SplineSet
108.240234375 196.799804688 m 1,0,1
 45.14453125 227.055664062 45.14453125 227.055664062 19.6796875 280.440429688 c 0,2,3
 -11.23828125 348.901367188 -11.23828125 348.901367188 25.623046875 442.978515625 c 0,4,5
 28.6533203125 450.428710938 28.6533203125 450.428710938 31.16015625 455.919921875 c 0,6,7
 59.5654296875 515.022460938 59.5654296875 515.022460938 132.83984375 585.48046875 c 1,8,9
 214.091796875 659.310546875 214.091796875 659.310546875 278.799804688 678.959960938 c 0,10,11
 376.364257812 707.736328125 376.364257812 707.736328125 470.6796875 670.759765625 c 0,12,13
 516.868164062 651 516.868164062 651 534.639648438 624.83984375 c 0,14,15
 541.17578125 615.036132812 541.17578125 615.036132812 544.348632812 576.095703125 c 0,16,17
 545.16796875 568.810546875 545.16796875 568.810546875 546.120117188 564.16015625 c 0,18,19
 547.096679688 560.739257812 547.096679688 560.739257812 566.84765625 539.446289062 c 0,20,21
 569.573242188 536.131835938 569.573242188 536.131835938 570.719726562 534.639648438 c 0,22,23
 589.547851562 501.6328125 589.547851562 501.6328125 575.639648438 457.559570312 c 0,24,25
 561.61328125 416.059570312 561.61328125 416.059570312 501.83984375 424.759765625 c 0,26,27
 485.346679688 427.508789062 485.346679688 427.508789062 452.986328125 436.55859375 c 0,28,29
 369.9453125 458.537109375 369.9453125 458.537109375 328 439.51953125 c 0,30,31
 296.986328125 424.45703125 296.986328125 424.45703125 270.599609375 398.51953125 c 0,32,33
 257.501953125 383.348632812 257.501953125 383.348632812 257.479492188 377.200195312 c 0,34,35
 257.479492188 372.280273438 257.479492188 372.280273438 269.658203125 364.080078125 c 2,36,-1
 272.240234375 362.440429688 l 1,37,38
 294.379882812 342.759765625 294.379882812 342.759765625 321.439453125 332.919921875 c 1,39,40
 379.515625 307.716796875 379.515625 307.716796875 482.689453125 341.805664062 c 0,41,42
 553.452148438 364.901367188 553.452148438 364.901367188 578.919921875 369 c 1,43,-1
 578.919921875 362.440429688 l 1,44,-1
 601.879882812 369 l 1,45,-1
 601.879882812 362.440429688 l 1,46,-1
 624.83984375 369 l 1,47,-1
 619.919921875 346.040039062 l 1,48,49
 626.479492188 344.400390625 626.479492188 344.400390625 621.172851562 327.307617188 c 0,50,51
 619.919921875 326.360351562 619.919921875 326.360351562 619.919921875 324.719726562 c 2,52,-1
 619.919921875 323.080078125 l 1,53,54
 625.348632812 319.685546875 625.348632812 319.685546875 621.559570312 308.3203125 c 0,55,56
 619.919921875 301.759765625 619.919921875 301.759765625 616.639648438 287.8203125 c 0,57,58
 613.228515625 273.413085938 613.228515625 273.413085938 611.719726562 267.3203125 c 1,59,-1
 659.280273438 280.440429688 l 1,60,61
 658.182617188 267.270507812 658.182617188 267.270507812 634.817382812 176.649414062 c 0,62,63
 632.711914062 168.247070312 632.711914062 168.247070312 631.399414062 162.360351562 c 0,64,65
 630.426757812 158.954101562 630.426757812 158.954101562 628.69921875 149.44921875 c 0,66,67
 623.431640625 124.323242188 623.431640625 124.323242188 618.280273438 118.080078125 c 0,68,69
 614.58984375 113.65234375 614.58984375 113.65234375 573.025390625 105.858398438 c 0,70,71
 570.16796875 105.215820312 570.16796875 105.215820312 569.080078125 104.959960938 c 0,72,73
 544.047851562 99.5888671875 544.047851562 99.5888671875 454.280273438 72.16015625 c 0,74,75
 263.19921875 11.37109375 263.19921875 11.37109375 80.359375 -83.6396484375 c 1,76,-1
 80.359375 -21.3203125 l 1,77,-1
 45.919921875 -41 l 1,78,-1
 45.919921875 -27.8798828125 l 1,79,-1
 22.9599609375 -41 l 1,80,-1
 22.9599609375 -27.8798828125 l 1,81,-1
 0 -41 l 1,82,-1
 0 65.599609375 l 1,83,-1
 1.6396484375 109.879882812 l 1,84,-1
 29.51953125 137.759765625 l 1,85,-1
 108.240234375 196.799804688 l 1,0,1
564.16015625 305.040039062 m 1,86,87
 426.561523438 272.389648438 426.561523438 272.389648438 393.26953125 269.956054688 c 0,88,89
 319.084960938 265.422851562 319.084960938 265.422851562 264.040039062 291.919921875 c 1,90,91
 195.732421875 329.108398438 195.732421875 329.108398438 172.200195312 373.919921875 c 0,92,93
 170.295898438 379.717773438 170.295898438 379.717773438 167.280273438 408.360351562 c 1,94,95
 166.36328125 464.196289062 166.36328125 464.196289062 198.439453125 495.280273438 c 0,96,97
 267.283203125 557.498046875 267.283203125 557.498046875 373.919921875 536.280273438 c 0,98,99
 387.696289062 534.311523438 387.696289062 534.311523438 415.248046875 526.833984375 c 0,100,101
 434.162109375 521.788085938 434.162109375 521.788085938 442.799804688 519.879882812 c 0,102,103
 469.799804688 514.7734375 469.799804688 514.7734375 478.879882812 521.51953125 c 0,104,105
 525.506835938 554.825195312 525.506835938 554.825195312 462.446289062 604.157226562 c 0,106,107
 451.296875 612.532226562 451.296875 612.532226562 441.16015625 618.280273438 c 0,108,109
 391.23046875 643.244140625 391.23046875 643.244140625 359.16015625 641.240234375 c 0,110,111
 326.393554688 638.598632812 326.393554688 638.598632812 278.799804688 613.360351562 c 0,112,113
 195.921875 569.833007812 195.921875 569.833007812 119.719726562 477.240234375 c 1,114,115
 55.1572265625 393.565429688 55.1572265625 393.565429688 59.0400390625 347.6796875 c 1,116,117
 65.9814453125 290.754882812 65.9814453125 290.754882812 155.71875 242.286132812 c 0,118,119
 162.171875 238.80078125 162.171875 238.80078125 174.8125 232.197265625 c 0,120,121
 189.189453125 224.6484375 189.189453125 224.6484375 195.16015625 221.400390625 c 1,122,-1
 173.83984375 209.919921875 l 1,123,-1
 195.16015625 200.080078125 l 1,124,-1
 195.16015625 198.440429688 l 1,125,-1
 173.83984375 186.959960938 l 1,126,-1
 195.16015625 177.120117188 l 1,127,-1
 195.16015625 175.48046875 l 1,128,-1
 155.799804688 152.51953125 l 1,129,-1
 82 96.759765625 l 1,130,-1
 47.5595703125 63.9599609375 l 1,131,-1
 45.919921875 31.16015625 l 1,132,133
 57.9853515625 34.607421875 57.9853515625 34.607421875 139.6328125 73.390625 c 0,134,135
 144.561523438 75.6953125 144.561523438 75.6953125 147.599609375 77.080078125 c 0,136,137
 258.299804688 123.8203125 258.299804688 123.8203125 373.919921875 160.719726562 c 0,138,139
 439.235351562 181.408203125 439.235351562 181.408203125 485.439453125 193.51953125 c 0,140,141
 489.748046875 194.596679688 489.748046875 194.596679688 501.975585938 196.096679688 c 0,142,143
 529.267578125 200.084960938 529.267578125 200.084960938 536.280273438 205 c 0,144,145
 541.08203125 209.638671875 541.08203125 209.638671875 546.120117188 232.879882812 c 0,146,147
 549.399414062 245.1796875 549.399414062 245.1796875 555.139648438 268.959960938 c 0,148,149
 561.063476562 293.333984375 561.063476562 293.333984375 564.16015625 305.040039062 c 1,86,87
EndSplineSet
EndChar

StartChar: afii57410
Encoding: 1570 1570 337
AltUni2: 00fe81.ffffffff.0
Width: 319
VWidth: 1639
GlyphClass: 2
Flags: W
LayerCount: 2
Fore
SplineSet
-84.3056640625 1543.24023438 m 1,0,1
 -98.7373046875 1535.55859375 -98.7373046875 1535.55859375 -136.786132812 1536.6796875 c 0,2,3
 -160.30078125 1536.6796875 -160.30078125 1536.6796875 -164.4296875 1543.87890625 c 0,4,5
 -165.750976562 1546.81347656 -165.750976562 1546.81347656 -166.305664062 1548.16015625 c 0,4,5
 -168.30078125 1555.91113281 -168.30078125 1555.91113281 -167.946289062 1576.04003906 c 0,6,7
 -168.98046875 1628.29296875 -168.98046875 1628.29296875 -138.42578125 1700.6796875 c 1,8,9
 -117.821289062 1743.37109375 -117.821289062 1743.37109375 -99.06640625 1754.79980469 c 0,10,11
 -89.8681640625 1758.61523438 -89.8681640625 1758.61523438 -51.505859375 1758.08007812 c 0,12,13
 -47.51171875 1757.94238281 -47.51171875 1757.94238281 74.7744140625 1741.97167969 c 0,14,15
 84.171875 1740.78613281 84.171875 1740.78613281 91.173828125 1740.04003906 c 0,14,15
 162.260742188 1732.1015625 162.260742188 1732.1015625 261.734375 1746.59960938 c 0,16,17
 271.868164062 1748.62695312 271.868164062 1748.62695312 292.250976562 1754.3828125 c 0,18,19
 322.346679688 1762.625 322.346679688 1762.625 337.173828125 1764.63964844 c 0,18,19
 341.599609375 1764.94921875 341.599609375 1764.94921875 383.09375 1764.63964844 c 0,20,21
 397.235351562 1763.35253906 397.235351562 1763.35253906 399.494140625 1761.36035156 c 1,22,23
 399.494140625 1756.44042969 399.494140625 1756.44042969 400.314453125 1754.79980469 c 0,24,25
 401.133789062 1753.16015625 401.133789062 1753.16015625 396.213867188 1747.41992188 c 2,26,-1
 391.293945312 1741.6796875 l 1,24,25
 406.478515625 1738.19042969 406.478515625 1738.19042969 391.293945312 1718.71972656 c 1,26,27
 405.580078125 1714.66015625 405.580078125 1714.66015625 394.57421875 1699.04003906 c 0,28,29
 386.322265625 1689.75683594 386.322265625 1689.75683594 366.021484375 1673.859375 c 0,30,31
 354.130859375 1664.54882812 354.130859375 1664.54882812 348.654296875 1659.6796875 c 1,30,31
 412.614257812 1674.44042969 l 2,32,33
 429.899414062 1678.65722656 429.899414062 1678.65722656 433.93359375 1672.79980469 c 1,34,35
 438.530273438 1660.35351562 438.530273438 1660.35351562 406.053710938 1635.08007812 c 0,36,37
 346.11328125 1588.99902344 346.11328125 1588.99902344 281.4140625 1567.83984375 c 0,38,39
 209.958007812 1546.12304688 209.958007812 1546.12304688 115.774414062 1551.44042969 c 0,40,41
 102.802734375 1552.08886719 102.802734375 1552.08886719 75.7255859375 1556.48144531 c 0,42,43
 33.4560546875 1562.93457031 33.4560546875 1562.93457031 14.09375 1561.28027344 c 0,42,43
 -5.0205078125 1558.54980469 -5.0205078125 1558.54980469 -30.89453125 1522.66796875 c 0,44,45
 -47.9716796875 1500.68164062 -47.9716796875 1500.68164062 -59.7060546875 1494.04003906 c 0,44,45
 -85.5927734375 1481.77734375 -85.5927734375 1481.77734375 -87.6630859375 1517.24023438 c 0,46,47
 -88.560546875 1532.60351562 -88.560546875 1532.60351562 -84.3056640625 1543.24023438 c 1,0,1
289.614257812 1699.04003906 m 1,46,47
 271.174804688 1696.15429688 271.174804688 1696.15429688 202.694335938 1692.48046875 c 0,48,49
 115.555664062 1686.74707031 115.555664062 1686.74707031 58.3740234375 1692.48046875 c 0,50,51
 33.365234375 1695.52050781 33.365234375 1695.52050781 -23.6259765625 1705.59960938 c 0,52,53
 -51.642578125 1709.390625 -51.642578125 1709.390625 -56.42578125 1707.24023438 c 0,54,55
 -79.689453125 1692.98535156 -79.689453125 1692.98535156 -107.265625 1618.6796875 c 1,56,57
 -102.334960938 1622.37890625 -102.334960938 1622.37890625 -93.9482421875 1631.07714844 c 0,58,59
 -79.40625 1644.85546875 -79.40625 1644.85546875 -71.185546875 1648.20019531 c 0,58,59
 -64.2470703125 1650.53222656 -64.2470703125 1650.53222656 -31.826171875 1649.83984375 c 0,60,61
 -11.326171875 1649.83984375 -11.326171875 1649.83984375 28.8544921875 1644.91992188 c 0,62,63
 69.609375 1640.12792969 69.609375 1640.12792969 89.5341796875 1640 c 0,62,63
 193.7109375 1640.88378906 193.7109375 1640.88378906 289.614257812 1697.40039062 c 1,64,-1
 289.614257812 1699.04003906 l 1,46,47
-107.265625 1617.04003906 m 1,65,-1
 -108.90625 1615.40039062 l 1,66,-1
 -107.265625 1617.04003906 l 1,65,-1
161.694335938 -36.080078125 m 1,67,68
 157.860351562 -51.4150390625 157.860351562 -51.4150390625 148.317382812 -51.5322265625 c 1,69,70
 144.213867188 -49.666015625 144.213867188 -49.666015625 142.013671875 -47.5595703125 c 0,69,70
 138.392578125 -39.845703125 138.392578125 -39.845703125 138.734375 -18.0400390625 c 1,71,72
 136.9453125 -1.2119140625 136.9453125 -1.2119140625 137.09375 67.240234375 c 0,73,74
 136.96484375 154.088867188 136.96484375 154.088867188 123.973632812 316.51953125 c 1,75,76
 85.4931640625 884.778320312 85.4931640625 884.778320312 41.9736328125 1333.3203125 c 0,77,78
 39.513671875 1357.91992188 39.513671875 1357.91992188 41.9736328125 1382.51953125 c 1,79,80
 41.9736328125 1398.91992188 l 1,81,82
 44.400390625 1404.58105469 44.400390625 1404.58105469 64.93359375 1422.14941406 c 0,83,84
 67.4287109375 1424.44140625 67.4287109375 1424.44140625 68.2138671875 1425.16015625 c 0,83,84
 78.8740234375 1435 78.8740234375 1435 100.194335938 1455.5 c 0,85,86
 122.060546875 1476.46582031 122.060546875 1476.46582031 132.173828125 1485.83984375 c 0,85,86
 140.374023438 1493.21972656 140.374023438 1493.21972656 155.954101562 1507.98046875 c 0,87,88
 172.150390625 1523.24902344 172.150390625 1523.24902344 179.734375 1530.12011719 c 1,87,88
 197.725585938 1541.03808594 197.725585938 1541.03808594 201.053710938 1528.48046875 c 1,89,90
 220.928710938 1540.83886719 220.928710938 1540.83886719 224.013671875 1528.48046875 c 1,91,92
 240.830078125 1538.36328125 240.830078125 1538.36328125 243.694335938 1538.3203125 c 0,93,94
 245.333984375 1536.6796875 245.333984375 1536.6796875 246.973632812 1535.04003906 c 0,95,96
 248.614257812 1533.40039062 248.614257812 1533.40039062 248.614257812 1529.29980469 c 0,97,98
 248.614257812 1525.20019531 248.614257812 1525.20019531 248.614257812 1522.74023438 c 0,99,100
 248.614257812 1520.28027344 248.614257812 1520.28027344 248.614257812 1516.1796875 c 2,101,-1
 248.614257812 1512.08007812 l 2,95,96
 249.98046875 1501.83398438 249.98046875 1501.83398438 249.8671875 1480.10742188 c 0,97,98
 250.114257812 1448.90820312 250.114257812 1448.90820312 253.534179688 1435 c 1,97,98
 271.10546875 1452.57128906 271.10546875 1452.57128906 278.133789062 1449.75976562 c 1,99,100
 282.973632812 1445.26269531 282.973632812 1445.26269531 283.053710938 1428.44042969 c 0,101,102
 283.053710938 1417.78027344 283.053710938 1417.78027344 284.694335938 1397.28027344 c 0,103,104
 286.254882812 1376.17871094 286.254882812 1376.17871094 286.333984375 1366.12011719 c 0,103,104
 286.333984375 1319.37988281 286.333984375 1319.37988281 290.43359375 1226.71972656 c 0,105,106
 294.486328125 1133.50097656 294.486328125 1133.50097656 294.534179688 1087.3203125 c 0,105,106
 294.534179688 939.719726562 294.534179688 939.719726562 297.814453125 644.51953125 c 0,107,108
 301.08203125 348.7734375 301.08203125 348.7734375 301.09375 201.719726562 c 0,107,108
 300.430664062 45.439453125 300.430664062 45.439453125 269.93359375 -27.8798828125 c 1,109,110
 247.888671875 -71.4912109375 247.888671875 -71.4912109375 245.333984375 -75.4404296875 c 0,111,112
 236.626953125 -90.4443359375 236.626953125 -90.4443359375 232.213867188 -93.48046875 c 1,113,114
 221.690429688 -94.623046875 221.690429688 -94.623046875 220.734375 -78.7197265625 c 1,115,116
 217.459960938 -59.115234375 217.459960938 -59.115234375 217.454101562 -22.9599609375 c 1,117,-1
 215.814453125 -22.9599609375 l 1,118,119
 206.2109375 -48.568359375 206.2109375 -48.568359375 193.583007812 -50.171875 c 0,120,121
 187.890625 -50.89453125 187.890625 -50.89453125 186.579101562 -39.6064453125 c 0,122,123
 186.388671875 -37.966796875 186.388671875 -37.966796875 186.293945312 -36.080078125 c 1,120,-1
 184.654296875 -36.080078125 l 1,121,122
 179.509765625 -53.228515625 179.509765625 -53.228515625 169.7421875 -49.158203125 c 1,123,124
 164.708984375 -44.5078125 164.708984375 -44.5078125 163.333984375 -36.080078125 c 1,123,-1
 161.694335938 -36.080078125 l 1,67,68
204.333984375 1461.24023438 m 1,124,125
 192.497070312 1454.63183594 192.497070312 1454.63183594 168.25390625 1430.08007812 c 0,126,127
 160.053710938 1421.87988281 160.053710938 1421.87988281 143.654296875 1407.12011719 c 0,128,129
 126.70703125 1391.71484375 126.70703125 1391.71484375 119.053710938 1384.16015625 c 0,128,129
 116.620117188 1381.72558594 116.620117188 1381.72558594 110.489257812 1376.77148438 c 0,130,131
 95.1201171875 1364.35253906 95.1201171875 1364.35253906 92.814453125 1356.28027344 c 0,130,131
 89.7412109375 1345.78710938 89.7412109375 1345.78710938 96.09375 1297.24023438 c 0,132,133
 98.5537109375 1273.45996094 98.5537109375 1273.45996094 101.833984375 1226.71972656 c 0,134,135
 105.208007812 1179.40820312 105.208007812 1179.40820312 107.57421875 1156.20019531 c 0,134,135
 118.908203125 1061.59179688 118.908203125 1061.59179688 132.173828125 869.200195312 c 0,136,137
 137.9140625 787.200195312 137.9140625 787.200195312 151.034179688 623.200195312 c 0,138,139
 164.181640625 458.653320312 164.181640625 458.653320312 169.89453125 377.200195312 c 0,138,139
 179.697265625 232.333007812 179.697265625 232.333007812 181.374023438 160.719726562 c 0,140,141
 181.374023438 148.419921875 181.374023438 148.419921875 182.194335938 123.8203125 c 0,142,143
 182.98046875 98.6728515625 182.98046875 98.6728515625 183.013671875 86.919921875 c 0,142,143
 183.610351562 51.7646484375 183.610351562 51.7646484375 184.654296875 49.2001953125 c 1,144,145
 188.465820312 63.1767578125 188.465820312 63.1767578125 197.541992188 89.5830078125 c 0,146,147
 211.747070312 131.758789062 211.747070312 131.758789062 215.814453125 154.16015625 c 0,146,147
 222.6875 209.728515625 222.6875 209.728515625 219.09375 347.6796875 c 0,148,149
 217.454101562 347.6796875 217.454101562 347.6796875 218.274414062 451 c 2,150,-1
 219.09375 554.3203125 l 1,150,151
 219.052734375 946.81640625 219.052734375 946.81640625 214.173828125 1141.44042969 c 2,152,153
 204.333984375 1461.24023438 l 1,124,125
EndSplineSet
AlternateSubs2: "gsub_alternate_dfl_aalt_arab_FAR_Lookup_01_Subtable_01" uniFE82 afii57410
Substitution2: "gsub_single_rtl_fina_arab_FAR_Lookup_01_Subtable_01" uniFE82
PairPos2: "gpos_pair_dfl_kern_arab_FAR_Lookup_01_Subtable_01" gafarabic dx=0 dy=0 dh=0 dv=0 dx=0 dy=0 dh=0 dv=0
EndChar

StartChar: uniFE83
Encoding: 1571 1571 339
AltUni2: 00fe83.ffffffff.0
Width: 536
VWidth: 1639
GlyphClass: 2
Flags: W
LayerCount: 2
Fore
SplineSet
216.379882812 -37.7197265625 m 1,0,1
 205.858398438 -58.7626953125 205.858398438 -58.7626953125 197.748046875 -48.3369140625 c 0,2,3
 195.935546875 -44.8779296875 195.935546875 -44.8779296875 195.059570312 -42.6396484375 c 0,2,3
 191.786132812 -24.6826171875 191.786132812 -24.6826171875 191.779296875 8.2001953125 c 0,4,5
 191.708984375 48.150390625 191.708984375 48.150390625 183.580078125 237.799804688 c 0,6,7
 167.265625 594.865234375 167.265625 594.865234375 117.979492188 1105.36035156 c 0,8,9
 114.69921875 1138.98046875 114.69921875 1138.98046875 108.959960938 1207.04003906 c 0,10,11
 103.153320312 1275.62890625 103.153320312 1275.62890625 99.939453125 1308.71972656 c 0,10,11
 99.119140625 1318.55957031 99.119140625 1318.55957031 98.2998046875 1337.41992188 c 0,12,13
 97.3896484375 1356.88476562 97.3896484375 1356.88476562 96.6591796875 1366.12011719 c 2,12,13
 96.6591796875 1398.91992188 l 1,14,15
 99.7763671875 1403.50683594 99.7763671875 1403.50683594 122.899414062 1425.16015625 c 0,16,17
 156.541015625 1458.56445312 156.541015625 1458.56445312 190.139648438 1487.48046875 c 0,18,19
 195.211914062 1492.09179688 195.211914062 1492.09179688 205.819335938 1503.34472656 c 0,20,21
 235.569335938 1533.59667969 235.569335938 1533.59667969 252.459960938 1539.95996094 c 1,20,-1
 255.739257812 1528.48046875 l 1,21,-1
 275.419921875 1539.95996094 l 1,22,-1
 278.69921875 1528.48046875 l 1,23,-1
 298.379882812 1539.95996094 l 1,24,25
 307.001953125 1522.71484375 307.001953125 1522.71484375 307.358398438 1454.33691406 c 0,26,27
 307.559570312 1442.47070312 307.559570312 1442.47070312 308.219726562 1435 c 1,26,-1
 332.819335938 1451.40039062 l 1,27,28
 340.631835938 1435.77539062 340.631835938 1435.77539062 340.734375 1368.66503906 c 0,29,30
 340.826171875 1361.99511719 340.826171875 1361.99511719 341.01953125 1357.91992188 c 0,29,30
 343.833007812 1312.91308594 343.833007812 1312.91308594 345.170898438 1223.89355469 c 0,31,32
 346.2265625 1156.55273438 346.2265625 1156.55273438 347.580078125 1123.40039062 c 0,31,32
 349.088867188 1093.58886719 349.088867188 1093.58886719 352.302734375 751.0546875 c 0,33,34
 352.401367188 741.05859375 352.401367188 741.05859375 352.5 733.080078125 c 0,33,34
 355.768554688 417.653320312 355.768554688 417.653320312 355.779296875 260.759765625 c 0,35,36
 355.779296875 99.6064453125 355.779296875 99.6064453125 347.477539062 52.505859375 c 0,37,38
 340.708007812 15.861328125 340.708007812 15.861328125 329.540039062 -14.759765625 c 1,37,38
 310.678710938 -59.259765625 310.678710938 -59.259765625 301.659179688 -73.7998046875 c 0,39,40
 292.662109375 -89.5341796875 292.662109375 -89.5341796875 286.899414062 -93.48046875 c 1,41,42
 277.369140625 -92.3271484375 277.369140625 -92.3271484375 275.419921875 -78.7197265625 c 0,43,44
 272.145507812 -59.115234375 272.145507812 -59.115234375 272.139648438 -22.9599609375 c 1,45,-1
 270.5 -22.9599609375 l 1,46,47
 263.301757812 -49.3525390625 263.301757812 -49.3525390625 250.783203125 -48.8369140625 c 1,48,49
 243.819335938 -45.552734375 243.819335938 -45.552734375 239.33984375 -37.7197265625 c 1,48,49
 226.154296875 -57.9677734375 226.154296875 -57.9677734375 216.379882812 -37.7197265625 c 1,0,1
259.01953125 1462.87988281 m 1,50,51
 244.6953125 1451.83496094 244.6953125 1451.83496094 177.01953125 1387.44042969 c 0,52,53
 174.681640625 1385.1015625 174.681640625 1385.1015625 168.173828125 1379.70019531 c 0,54,55
 150.62109375 1363.90625 150.62109375 1363.90625 147.5 1356.28027344 c 0,54,55
 144.272460938 1347.87792969 144.272460938 1347.87792969 149.139648438 1321.83984375 c 1,56,57
 154.059570312 1262.79980469 l 2,58,59
 173.19140625 1043.19042969 173.19140625 1043.19042969 173.739257812 1038.12011719 c 0,60,61
 195.657226562 803.114257812 195.657226562 803.114257812 214.739257812 511.6796875 c 1,62,63
 237.618164062 202.813476562 237.618164062 202.813476562 237.69921875 49.2001953125 c 1,64,-1
 239.33984375 49.2001953125 l 1,65,66
 266.030273438 126.811523438 266.030273438 126.811523438 272.139648438 162.360351562 c 1,67,68
 275.509765625 194.314453125 275.509765625 194.314453125 275.419921875 296.83984375 c 0,69,70
 275.419921875 337.01953125 275.419921875 337.01953125 274.599609375 416.559570312 c 0,71,72
 273.791015625 496.661132812 273.791015625 496.661132812 273.779296875 536.280273438 c 0,71,72
 273.740234375 945.197265625 273.740234375 945.197265625 268.859375 1149.63964844 c 0,73,74
 267.758789062 1184.86816406 267.758789062 1184.86816406 264.8203125 1254.89355469 c 0,75,76
 259.01953125 1393.1484375 259.01953125 1393.1484375 259.01953125 1462.87988281 c 1,50,51
71.2392578125 1808.91992188 m 1,0,1
 -1.6220703125 1846.93457031 -1.6220703125 1846.93457031 6.611328125 1937.93359375 c 0,2,3
 10.95703125 1977.71679688 10.95703125 1977.71679688 30.2392578125 2010.63964844 c 0,2,3
 99.763671875 2125.83886719 99.763671875 2125.83886719 182.759765625 2150.04003906 c 0,4,5
 195.407226562 2153.72949219 195.407226562 2153.72949219 245.080078125 2153.3203125 c 0,6,7
 288.344726562 2152.70507812 288.344726562 2152.70507812 309.040039062 2145.12011719 c 0,8,9
 362.862304688 2122.74902344 362.862304688 2122.74902344 382.83984375 2066.40039062 c 0,10,11
 384.864257812 2060.32519531 384.864257812 2060.32519531 385.024414062 2047.68457031 c 0,12,13
 386.28125 2029.47753906 386.28125 2029.47753906 391.040039062 2022.12011719 c 0,12,13
 434.509765625 1964.15917969 434.509765625 1964.15917969 414 1949.95996094 c 0,14,15
 402.891601562 1941.07324219 402.891601562 1941.07324219 348.018554688 1958.45605469 c 0,16,17
 340.556640625 1960.65527344 340.556640625 1960.65527344 336.919921875 1961.44042969 c 0,16,17
 241.233398438 1975.39941406 241.233398438 1975.39941406 190.959960938 1928.63964844 c 1,18,19
 200.37109375 1924.60644531 200.37109375 1924.60644531 218.392578125 1915.10546875 c 0,20,21
 266.510742188 1890.84375 266.510742188 1890.84375 294.279296875 1892.55957031 c 0,20,21
 311.668945312 1893.47558594 311.668945312 1893.47558594 347.409179688 1900.40136719 c 0,22,23
 376.142578125 1905.83300781 376.142578125 1905.83300781 389.399414062 1907.3203125 c 1,22,23
 422.630859375 1906.48535156 422.630859375 1906.48535156 425.479492188 1904.04003906 c 0,24,25
 426.963867188 1902.55566406 426.963867188 1902.55566406 426.770507812 1887.75390625 c 0,26,27
 427.03515625 1885.19238281 427.03515625 1885.19238281 427.119140625 1884.36035156 c 0,26,27
 429.345703125 1863.45898438 429.345703125 1863.45898438 418.919921875 1812.20019531 c 1,28,29
 421.303710938 1812.59765625 421.303710938 1812.59765625 428.206054688 1814.46289062 c 0,30,31
 454.94921875 1821.69335938 454.94921875 1821.69335938 459.919921875 1815.48046875 c 0,30,31
 464.340820312 1811.05957031 464.340820312 1811.05957031 460.458984375 1796.25 c 0,32,33
 460.0859375 1794.82519531 460.0859375 1794.82519531 459.919921875 1794.16015625 c 0,32,33
 457.459960938 1785.13964844 457.459960938 1785.13964844 452.540039062 1767.91992188 c 0,34,35
 447.465820312 1750.08984375 447.465820312 1750.08984375 445.159179688 1741.6796875 c 0,34,35
 439.456054688 1723.9453125 439.456054688 1723.9453125 436.959960938 1722 c 0,36,37
 429.569335938 1717.77734375 429.569335938 1717.77734375 411.297851562 1714.86132812 c 0,38,39
 401.326171875 1713.10644531 401.326171875 1713.10644531 397.599609375 1712.16015625 c 0,38,39
 375.6875 1707.94628906 375.6875 1707.94628906 320.51953125 1694.12011719 c 0,40,41
 187.469726562 1661.31542969 187.469726562 1661.31542969 84.359375 1621.95996094 c 1,42,-1
 84.359375 1677.71972656 l 1,43,-1
 49.919921875 1664.59960938 l 1,44,-1
 49.919921875 1672.79980469 l 1,45,-1
 26.9599609375 1664.59960938 l 1,46,-1
 26.9599609375 1672.79980469 l 1,47,-1
 4 1664.59960938 l 1,48,-1
 4 1738.40039062 l 1,49,-1
 5.6396484375 1767.91992188 l 1,50,-1
 25.3193359375 1782.6796875 l 1,51,-1
 71.2392578125 1808.91992188 l 1,0,1
322.159179688 2046.71972656 m 1,52,53
 315.889648438 2059.50878906 315.889648438 2059.50878906 299.19921875 2076.24023438 c 0,54,55
 269.1640625 2104.61230469 269.1640625 2104.61230469 236.879882812 2105.75976562 c 0,56,57
 189.1875 2105.75976562 189.1875 2105.75976562 135.764648438 2043.06542969 c 0,58,59
 130.447265625 2036.60351562 130.447265625 2036.60351562 127 2031.95996094 c 1,58,59
 133.399414062 2034.28710938 133.399414062 2034.28710938 145.7265625 2039.74023438 c 0,60,61
 168.465820312 2049.37988281 168.465820312 2049.37988281 179.479492188 2051.63964844 c 0,60,61
 224.475585938 2060.71582031 224.475585938 2060.71582031 322.159179688 2046.71972656 c 1,52,53
102.399414062 2000.79980469 m 1,62,63
 81.4912109375 1982.94628906 81.4912109375 1982.94628906 64.6796875 1943.40039062 c 0,64,65
 56.7529296875 1927.546875 56.7529296875 1927.546875 58.119140625 1922.08007812 c 0,66,67
 60.701171875 1910.11816406 60.701171875 1910.11816406 76.1591796875 1890.91992188 c 1,68,69
 119.774414062 1845.01074219 119.774414062 1845.01074219 153.239257812 1828.59960938 c 1,70,-1
 135.19921875 1818.75976562 l 1,71,-1
 153.239257812 1805.63964844 l 1,72,-1
 135.19921875 1795.79980469 l 1,73,-1
 153.239257812 1782.6796875 l 1,74,-1
 67.9599609375 1735.12011719 l 1,75,-1
 67.9599609375 1733.48046875 l 1,76,77
 106.3828125 1742.8515625 106.3828125 1742.8515625 183.228515625 1765.87792969 c 0,78,79
 241.409179688 1783.26171875 241.409179688 1783.26171875 269.6796875 1790.87988281 c 0,78,79
 279.51953125 1793.33984375 279.51953125 1793.33984375 300.01953125 1797.44042969 c 0,80,81
 321.010742188 1801.71386719 321.010742188 1801.71386719 330.359375 1804 c 0,80,81
 356.450195312 1809.21777344 356.450195312 1809.21777344 358.239257812 1810.55957031 c 0,82,83
 362.189453125 1815.74023438 362.189453125 1815.74023438 371.359375 1851.55957031 c 1,84,85
 226.693359375 1825.8828125 226.693359375 1825.8828125 151.599609375 1879.44042969 c 1,86,87
 110.471679688 1911.98632812 110.471679688 1911.98632812 104.040039062 1938.48046875 c 0,88,89
 96.2568359375 1967.015625 96.2568359375 1967.015625 102.399414062 2000.79980469 c 1,62,63
EndSplineSet
AlternateSubs2: "gsub_alternate_dfl_aalt_arab_FAR_Lookup_01_Subtable_01" uniFE84 uniFE83
Substitution2: "gsub_single_rtl_fina_arab_FAR_Lookup_01_Subtable_01" uniFE84
EndChar

StartChar: uniFE84
Encoding: 65156 65156 340
Width: 448
VWidth: 1639
GlyphClass: 2
Flags: W
LayerCount: 2
Fore
SplineSet
477.77734375 -65.599609375 m 1,0,1
 362.875976562 -65.599609375 362.875976562 -65.599609375 321.673828125 -51.9833984375 c 0,2,3
 316.875976562 -50.33203125 316.875976562 -50.33203125 313.77734375 -49.2001953125 c 0,2,3
 309.530273438 -47.607421875 309.530273438 -47.607421875 254.759765625 -16.6640625 c 0,4,5
 246.987304688 -12.4248046875 246.987304688 -12.4248046875 241.6171875 -9.83984375 c 0,4,5
 234.237304688 -5.740234375 234.237304688 -5.740234375 218.657226562 0 c 0,6,7
 202.602539062 6.1904296875 202.602539062 6.1904296875 195.697265625 9.83984375 c 0,6,7
 141.677734375 42.6640625 141.677734375 42.6640625 103.857421875 106.599609375 c 1,8,9
 68.6435546875 174.450195312 68.6435546875 174.450195312 56.296875 290.280273438 c 0,10,11
 47.8583984375 375.181640625 47.8583984375 375.181640625 51.376953125 580.559570312 c 0,12,13
 55.638671875 920.530273438 55.638671875 920.530273438 15.296875 1330.04003906 c 0,14,15
 10.703125 1381.97070312 10.703125 1381.97070312 15.296875 1394 c 0,16,17
 18.5830078125 1399.953125 18.5830078125 1399.953125 36.6171875 1416.95996094 c 0,18,19
 44.8173828125 1425.98046875 44.8173828125 1425.98046875 62.037109375 1444.01953125 c 0,20,21
 79.708984375 1462.60644531 79.708984375 1462.60644531 87.45703125 1471.08007812 c 0,20,21
 90.1689453125 1473.79101562 90.1689453125 1473.79101562 96.5693359375 1481.65625 c 0,22,23
 126.90234375 1515.35546875 126.90234375 1515.35546875 143.217773438 1503.87988281 c 1,22,23
 155.456054688 1512.85742188 155.456054688 1512.85742188 164.537109375 1503.87988281 c 1,24,-1
 166.177734375 1503.87988281 l 1,25,26
 182.272460938 1516.51464844 182.272460938 1516.51464844 189.137695312 1497.3203125 c 1,27,28
 200.338867188 1453.72558594 200.338867188 1453.72558594 200.6171875 1416.95996094 c 1,29,30
 223.50390625 1430.20996094 223.50390625 1430.20996094 230.21484375 1384.44042969 c 0,31,32
 231.028320312 1378.40527344 231.028320312 1378.40527344 233.416992188 1346.44042969 c 0,31,32
 251.010742188 1192.58984375 251.010742188 1192.58984375 253.09765625 1087.3203125 c 0,33,34
 253.643554688 1021.17285156 253.643554688 1021.17285156 255.1015625 888.879882812 c 0,35,36
 258.004882812 623.747070312 258.004882812 623.747070312 258.017578125 492 c 2,35,-1
 258.017578125 332.919921875 l 2,36,37
 258.017578125 279.221679688 258.017578125 279.221679688 261.666015625 270.918945312 c 0,38,39
 263.541015625 267.39453125 263.541015625 267.39453125 264.577148438 265.6796875 c 0,38,39
 301.830078125 205.501953125 301.830078125 205.501953125 433.296875 206.16796875 c 0,40,41
 440.538085938 206.205078125 440.538085938 206.205078125 454.578125 206.409179688 c 0,42,43
 470.857421875 206.625976562 470.857421875 206.625976562 477.77734375 206.639648438 c 1,40,-1
 477.77734375 160.719726562 l 1,41,42
 464.373046875 160.719726562 464.373046875 160.719726562 436.038085938 159.883789062 c 0,43,44
 306.083984375 156.048828125 306.083984375 156.048828125 254.596679688 186.518554688 c 0,45,46
 230.159179688 201.99609375 230.159179688 201.99609375 213.737304688 223.040039062 c 0,43,44
 177.732421875 272.721679688 177.732421875 272.721679688 177.657226562 382.120117188 c 2,45,-1
 177.657226562 578.919921875 l 2,46,47
 177.588867188 1012.13183594 177.588867188 1012.13183594 171.09765625 1167.6796875 c 0,48,49
 167.418945312 1233.08300781 167.418945312 1233.08300781 157.977539062 1346.44042969 c 0,50,51
 156.646484375 1359.08203125 156.646484375 1359.08203125 152.913085938 1383.77441406 c 0,52,53
 147.54296875 1420.35253906 147.54296875 1420.35253906 146.497070312 1438.28027344 c 1,52,53
 136.657226562 1427.62011719 136.657226562 1427.62011719 116.157226562 1406.29980469 c 0,54,55
 95.19140625 1384.43359375 95.19140625 1384.43359375 85.8173828125 1374.3203125 c 0,54,55
 83.630859375 1371.58691406 83.630859375 1371.58691406 78.5283203125 1366.484375 c 0,56,57
 68.599609375 1355.39355469 68.599609375 1355.39355469 66.1376953125 1349.71972656 c 0,56,57
 66.1376953125 1348.08007812 66.1376953125 1348.08007812 65.3173828125 1344.79980469 c 0,58,59
 64.4970703125 1341.51953125 64.4970703125 1341.51953125 64.4970703125 1339.05957031 c 0,60,61
 64.4970703125 1336.59960938 64.4970703125 1336.59960938 65.3173828125 1332.5 c 0,62,63
 66.1376953125 1328.40039062 66.1376953125 1328.40039062 66.1376953125 1326.75976562 c 0,64,65
 66.1376953125 1325.12011719 66.1376953125 1325.12011719 66.95703125 1320.20019531 c 2,66,-1
 67.77734375 1315.28027344 l 2,58,59
 68.59765625 1302.16015625 68.59765625 1302.16015625 71.0576171875 1276.74023438 c 0,60,61
 73.51953125 1250.72949219 73.51953125 1250.72949219 74.3369140625 1238.20019531 c 0,60,61
 76.57421875 1204.64160156 76.57421875 1204.64160156 81.42578125 1137.96582031 c 0,62,63
 90.779296875 1008.91894531 90.779296875 1008.91894531 94.017578125 944.639648438 c 0,62,63
 97.36328125 875.239257812 97.36328125 875.239257812 97.296875 544.48046875 c 0,64,65
 97.5361328125 365.53125 97.5361328125 365.53125 105.497070312 309.959960938 c 0,66,67
 132.747070312 118.110351562 132.747070312 118.110351562 244.897460938 55.759765625 c 0,68,69
 307.973632812 21.3544921875 307.973632812 21.3544921875 442.6796875 22.69921875 c 0,70,71
 469.397460938 22.9501953125 469.397460938 22.9501953125 477.77734375 22.9599609375 c 1,70,-1
 477.77734375 -65.599609375 l 1,0,1
89.09765625 1790.87988281 m 1,0,1
 16.236328125 1828.89453125 16.236328125 1828.89453125 24.46875 1919.89355469 c 0,2,3
 28.814453125 1959.67675781 28.814453125 1959.67675781 48.09765625 1992.59960938 c 0,2,3
 117.622070312 2107.79882812 117.622070312 2107.79882812 200.6171875 2132 c 0,4,5
 213.265625 2135.68945312 213.265625 2135.68945312 262.9375 2135.28027344 c 0,6,7
 306.203125 2134.66503906 306.203125 2134.66503906 326.897460938 2127.08007812 c 0,8,9
 380.719726562 2104.70898438 380.719726562 2104.70898438 400.697265625 2048.36035156 c 0,10,11
 402.72265625 2042.28515625 402.72265625 2042.28515625 402.881835938 2029.64453125 c 0,12,13
 404.138671875 2011.4375 404.138671875 2011.4375 408.897460938 2004.08007812 c 0,12,13
 449.540039062 1947.01367188 449.540039062 1947.01367188 431.857421875 1931.91992188 c 0,14,15
 420.749023438 1923.03417969 420.749023438 1923.03417969 365.876953125 1940.41601562 c 0,16,17
 358.415039062 1942.61523438 358.415039062 1942.61523438 354.77734375 1943.40039062 c 0,16,17
 259.090820312 1957.359375 259.090820312 1957.359375 208.817382812 1910.59960938 c 1,18,19
 218.228515625 1906.56640625 218.228515625 1906.56640625 236.25 1897.06542969 c 0,20,21
 284.368164062 1872.80371094 284.368164062 1872.80371094 312.137695312 1874.51953125 c 0,20,21
 329.526367188 1875.43554688 329.526367188 1875.43554688 365.266601562 1882.36132812 c 0,22,23
 394.000976562 1887.79296875 394.000976562 1887.79296875 407.256835938 1889.28027344 c 1,22,23
 440.489257812 1888.4453125 440.489257812 1888.4453125 443.336914062 1886 c 0,24,25
 444.821289062 1884.515625 444.821289062 1884.515625 444.627929688 1869.71386719 c 0,26,27
 444.892578125 1867.15234375 444.892578125 1867.15234375 444.977539062 1866.3203125 c 0,26,27
 447.203125 1845.41894531 447.203125 1845.41894531 436.77734375 1794.16015625 c 1,28,29
 439.162109375 1794.55761719 439.162109375 1794.55761719 446.064453125 1796.42382812 c 0,30,31
 472.806640625 1803.65332031 472.806640625 1803.65332031 477.77734375 1797.44042969 c 0,30,31
 481.057617188 1794.16015625 481.057617188 1794.16015625 478.317382812 1778.20996094 c 2,32,-1
 477.77734375 1776.12011719 l 2,32,33
 475.317382812 1767.09960938 475.317382812 1767.09960938 470.397460938 1749.87988281 c 0,34,35
 465.323242188 1732.04980469 465.323242188 1732.04980469 463.017578125 1723.63964844 c 0,34,35
 457.313476562 1705.90527344 457.313476562 1705.90527344 454.817382812 1703.95996094 c 0,36,37
 447.427734375 1699.73730469 447.427734375 1699.73730469 429.155273438 1696.82128906 c 0,38,39
 419.18359375 1695.06640625 419.18359375 1695.06640625 415.45703125 1694.12011719 c 0,38,39
 393.544921875 1689.90625 393.544921875 1689.90625 338.376953125 1676.08007812 c 0,40,41
 205.327148438 1643.27539062 205.327148438 1643.27539062 102.217773438 1603.91992188 c 1,42,-1
 102.217773438 1659.6796875 l 1,43,-1
 67.77734375 1646.55957031 l 1,44,-1
 67.77734375 1654.75976562 l 1,45,-1
 44.8173828125 1646.55957031 l 1,46,-1
 44.8173828125 1654.75976562 l 1,47,-1
 21.857421875 1646.55957031 l 1,48,-1
 21.857421875 1720.36035156 l 1,49,-1
 23.4970703125 1749.87988281 l 1,50,-1
 43.177734375 1764.63964844 l 1,51,-1
 89.09765625 1790.87988281 l 1,0,1
340.017578125 2028.6796875 m 1,52,53
 333.748046875 2041.46875 333.748046875 2041.46875 317.057617188 2058.20019531 c 0,54,55
 287.022460938 2086.57226562 287.022460938 2086.57226562 254.737304688 2087.71972656 c 0,56,57
 207.044921875 2087.71972656 207.044921875 2087.71972656 153.623046875 2025.02539062 c 0,58,59
 148.3046875 2018.56347656 148.3046875 2018.56347656 144.857421875 2013.91992188 c 1,58,59
 151.256835938 2016.24707031 151.256835938 2016.24707031 163.583984375 2021.70019531 c 0,60,61
 186.32421875 2031.33984375 186.32421875 2031.33984375 197.336914062 2033.59960938 c 0,60,61
 242.333007812 2042.67578125 242.333007812 2042.67578125 340.017578125 2028.6796875 c 1,52,53
120.256835938 1982.75976562 m 1,62,63
 99.3486328125 1964.90625 99.3486328125 1964.90625 82.537109375 1925.36035156 c 0,64,65
 74.6103515625 1909.50683594 74.6103515625 1909.50683594 75.9775390625 1904.04003906 c 0,66,67
 77.6171875 1894.20019531 77.6171875 1894.20019531 92.55078125 1874.70507812 c 2,68,-1
 94.017578125 1872.87988281 l 1,68,69
 137.6328125 1826.97070312 137.6328125 1826.97070312 171.09765625 1810.55957031 c 1,70,-1
 153.057617188 1800.71972656 l 1,71,-1
 171.09765625 1787.59960938 l 1,72,-1
 153.057617188 1777.75976562 l 1,73,-1
 171.09765625 1764.63964844 l 1,74,-1
 85.8173828125 1717.08007812 l 1,75,-1
 85.8173828125 1715.44042969 l 1,76,77
 124.240234375 1724.81152344 124.240234375 1724.81152344 201.0859375 1747.83789062 c 0,78,79
 259.266601562 1765.22167969 259.266601562 1765.22167969 287.537109375 1772.83984375 c 0,78,79
 297.376953125 1775.29980469 297.376953125 1775.29980469 317.876953125 1779.40039062 c 0,80,81
 338.868164062 1783.67382812 338.868164062 1783.67382812 348.217773438 1785.95996094 c 0,80,81
 375.067382812 1791.90429688 375.067382812 1791.90429688 376.09765625 1792.51953125 c 0,82,83
 380.046875 1797.70019531 380.046875 1797.70019531 389.217773438 1833.51953125 c 1,84,85
 244.551757812 1807.84277344 244.551757812 1807.84277344 169.45703125 1861.40039062 c 1,86,87
 128.329101562 1893.94628906 128.329101562 1893.94628906 121.897460938 1920.44042969 c 0,88,89
 114.115234375 1948.97558594 114.115234375 1948.97558594 120.256835938 1982.75976562 c 1,62,63
EndSplineSet
EndChar

StartChar: uniFE85
Encoding: 1572 1572 341
AltUni2: 00fe85.ffffffff.0
Width: 848
VWidth: 1639
GlyphClass: 2
Flags: W
LayerCount: 2
Fore
SplineSet
508.375976562 -59.0400390625 m 1,0,1
 486.309570312 -59.0400390625 486.309570312 -59.0400390625 441.515625 -61.68359375 c 0,2,3
 335.438476562 -67.4208984375 335.438476562 -67.4208984375 285.3359375 -54.1201171875 c 0,2,3
 259.637695312 -46.537109375 259.637695312 -46.537109375 236.135742188 -31.16015625 c 0,4,5
 232.994140625 -29.275390625 232.994140625 -29.275390625 226.618164062 -23.9833984375 c 0,6,7
 215.263671875 -15.36328125 215.263671875 -15.36328125 209.895507812 -13.1201171875 c 0,6,7
 146.307617188 18.6748046875 146.307617188 18.6748046875 136.942382812 26.5224609375 c 0,8,9
 121.256835938 40.728515625 121.256835938 40.728515625 111.49609375 57.400390625 c 0,8,9
 86.9833984375 101.083007812 86.9833984375 101.083007812 86.8955078125 188.599609375 c 0,10,11
 87.8212890625 354.495117188 87.8212890625 354.495117188 178.736328125 501.83984375 c 0,12,13
 244.903320312 607.548828125 244.903320312 607.548828125 327.975585938 615 c 1,14,15
 394.470703125 617.71484375 394.470703125 617.71484375 432.935546875 608.440429688 c 1,16,17
 532.873046875 578.728515625 532.873046875 578.728515625 594.802734375 429.43359375 c 0,18,19
 598.359375 420.708984375 598.359375 420.708984375 633.015625 328 c 0,18,19
 678.048828125 210.6953125 678.048828125 210.6953125 683.856445312 50.83984375 c 1,20,21
 701.287109375 -322.68359375 701.287109375 -322.68359375 467.444335938 -583.776367188 c 0,22,23
 456.171875 -596.244140625 456.171875 -596.244140625 446.055664062 -606.799804688 c 0,22,23
 440.28125 -612.57421875 440.28125 -612.57421875 427.814453125 -626.016601562 c 0,24,25
 378.391601562 -678.044921875 378.391601562 -678.044921875 350.935546875 -688.799804688 c 0,24,25
 328.552734375 -696.505859375 328.552734375 -696.505859375 255.81640625 -687.16015625 c 1,26,27
 127.380859375 -676.893554688 127.380859375 -676.893554688 67.2158203125 -667.48046875 c 0,28,29
 61.236328125 -666.682617188 61.236328125 -666.682617188 46.40234375 -665.630859375 c 0,30,31
 -6.630859375 -661.088867188 -6.630859375 -661.088867188 -22.984375 -649.440429688 c 0,30,31
 -31.9501953125 -641.754882812 -31.9501953125 -641.754882812 -3.447265625 -628.268554688 c 0,32,33
 -0.806640625 -626.88671875 -0.806640625 -626.88671875 -0.0244140625 -626.48046875 c 1,32,33
 -30.8486328125 -626.086914062 -30.8486328125 -626.086914062 -82.0244140625 -613.360351562 c 0,34,35
 -118.334960938 -604.282226562 -118.334960938 -604.282226562 -94.650390625 -591.012695312 c 0,36,37
 -91.646484375 -589.467773438 -91.646484375 -589.467773438 -90.2236328125 -588.759765625 c 1,36,37
 -115.88671875 -580.206054688 -115.88671875 -580.206054688 -93.5341796875 -567.556640625 c 0,38,39
 -91.0625 -566.244140625 -91.0625 -566.244140625 -90.2236328125 -565.799804688 c 1,38,39
 -122.84375 -552.478515625 -122.84375 -552.478515625 -72.18359375 -536.280273438 c 0,40,41
 42.8720703125 -497.7265625 42.8720703125 -497.7265625 59.015625 -490.360351562 c 0,42,43
 288.486328125 -391.639648438 288.486328125 -391.639648438 428.015625 -206.639648438 c 0,44,45
 499.514648438 -111.188476562 499.514648438 -111.188476562 508.375976562 -59.0400390625 c 1,0,1
1.6162109375 -575.639648438 m 1,46,47
 4.9267578125 -575.868164062 4.9267578125 -575.868164062 73.7763671875 -585.48046875 c 0,48,49
 119.540039062 -590.905273438 119.540039062 -590.905273438 195.135742188 -596.959960938 c 1,50,51
 260.725585938 -605.400390625 260.725585938 -605.400390625 278.776367188 -595.3203125 c 0,52,53
 341.381835938 -556.8359375 341.381835938 -556.8359375 428.015625 -446.080078125 c 0,54,55
 625.55078125 -191.196289062 625.55078125 -191.196289062 599.737304688 143.629882812 c 0,56,57
 595.744140625 193.209960938 595.744140625 193.209960938 587.095703125 241.080078125 c 0,56,57
 540.954101562 496.694335938 540.954101562 496.694335938 408.3359375 554.3203125 c 0,58,59
 378.345703125 566.939453125 378.345703125 566.939453125 359.135742188 567.440429688 c 1,60,61
 300.153320312 561.919921875 300.153320312 561.919921875 242.696289062 483.799804688 c 1,62,63
 169.099609375 379.529296875 169.099609375 379.529296875 142.65625 249.280273438 c 1,64,65
 126.127929688 157.885742188 126.127929688 157.885742188 157.416015625 101.6796875 c 1,66,67
 194.173828125 44.7412109375 194.173828125 44.7412109375 278.776367188 29.51953125 c 0,68,69
 292.600585938 27.607421875 292.600585938 27.607421875 373.895507812 27.8798828125 c 1,70,71
 560.856445312 32.7998046875 560.856445312 32.7998046875 560.856445312 32.7998046875 c 1,72,73
 560.856445312 -70.97265625 560.856445312 -70.97265625 559.958984375 -77.916015625 c 0,74,75
 557.223632812 -96.7822265625 557.223632812 -96.7822265625 552.65625 -111.51953125 c 0,74,75
 535.359375 -170.5546875 535.359375 -170.5546875 472.295898438 -255.83984375 c 0,76,77
 344.314453125 -424.872070312 344.314453125 -424.872070312 134.456054688 -523.16015625 c 0,78,79
 127.014648438 -526.880859375 127.014648438 -526.880859375 18.08203125 -567.587890625 c 0,80,81
 8.5849609375 -571.188476562 8.5849609375 -571.188476562 1.6162109375 -574 c 1,80,-1
 1.6162109375 -575.639648438 l 1,46,47
298.456054688 429.6796875 m 0,81,82
 437.221679688 446.721679688 437.221679688 446.721679688 505.084960938 331.62890625 c 0,83,84
 509.784179688 323.416015625 509.784179688 323.416015625 513.295898438 316.51953125 c 0,83,84
 533.247070312 278.6484375 533.247070312 278.6484375 536.255859375 214.83984375 c 1,85,86
 541.170898438 186.33984375 541.170898438 186.33984375 536.255859375 177.120117188 c 1,87,88
 532.258789062 173.262695312 532.258789062 173.262695312 510.015625 168.919921875 c 0,89,90
 433.124023438 156.426757812 433.124023438 156.426757812 331.255859375 159.080078125 c 1,91,92
 249.735351562 163.517578125 249.735351562 163.517578125 214.81640625 191.879882812 c 1,93,94
 188.5 216.62109375 188.5 216.62109375 185.295898438 277.16015625 c 1,95,96
 185.865234375 328.263671875 185.865234375 328.263671875 191.856445312 346.040039062 c 0,97,98
 212.200195312 411.592773438 212.200195312 411.592773438 287.55078125 427.760742188 c 0,99,100
 293.799804688 428.984375 293.799804688 428.984375 298.456054688 429.6796875 c 0,81,82
487.055664062 219.759765625 m 1,99,100
 470.506835938 274.951171875 470.506835938 274.951171875 439.49609375 313.240234375 c 0,101,102
 423.541992188 334.836914062 423.541992188 334.836914062 411.616210938 339.48046875 c 1,103,104
 342.604492188 353.282226562 342.604492188 353.282226562 292.97265625 295.798828125 c 0,105,106
 287.473632812 289.090820312 287.473632812 289.090820312 283.696289062 283.719726562 c 0,105,106
 263.024414062 250.479492188 263.024414062 250.479492188 268.935546875 234.51953125 c 0,107,108
 274.801757812 222.193359375 274.801757812 222.193359375 318.135742188 211.559570312 c 0,109,110
 379.826171875 197.760742188 379.826171875 197.760742188 487.055664062 219.759765625 c 1,99,100
301.736328125 885.599609375 m 1,0,1
 228.875 923.614257812 228.875 923.614257812 237.107421875 1014.61328125 c 0,2,3
 241.453125 1054.39648438 241.453125 1054.39648438 260.736328125 1087.3203125 c 0,2,3
 330.260742188 1202.51953125 330.260742188 1202.51953125 413.255859375 1226.71972656 c 0,4,5
 425.904296875 1230.40917969 425.904296875 1230.40917969 475.576171875 1230 c 0,6,7
 518.841796875 1229.38574219 518.841796875 1229.38574219 539.536132812 1221.79980469 c 0,8,9
 593.358398438 1199.4296875 593.358398438 1199.4296875 613.3359375 1143.08007812 c 0,10,11
 615.361328125 1137.00488281 615.361328125 1137.00488281 615.520507812 1124.36425781 c 0,12,13
 616.77734375 1106.15722656 616.77734375 1106.15722656 621.536132812 1098.79980469 c 0,12,13
 665.006835938 1040.83984375 665.006835938 1040.83984375 644.49609375 1026.63964844 c 0,14,15
 633.387695312 1017.75390625 633.387695312 1017.75390625 578.515625 1035.13574219 c 0,16,17
 571.053710938 1037.33496094 571.053710938 1037.33496094 567.416015625 1038.12011719 c 0,16,17
 471.778320312 1053.54589844 471.778320312 1053.54589844 421.456054688 1005.3203125 c 1,18,19
 430.8671875 1001.28710938 430.8671875 1001.28710938 448.888671875 991.78515625 c 0,20,21
 496.171875 966.856445312 496.171875 966.856445312 524.776367188 969.240234375 c 0,20,21
 542.165039062 970.155273438 542.165039062 970.155273438 577.905273438 977.081054688 c 0,22,23
 606.639648438 982.512695312 606.639648438 982.512695312 619.895507812 984 c 1,22,23
 653.127929688 983.165039062 653.127929688 983.165039062 655.975585938 980.719726562 c 0,24,25
 657.459960938 979.235351562 657.459960938 979.235351562 657.266601562 964.43359375 c 0,26,27
 657.2421875 962.536132812 657.2421875 962.536132812 657.616210938 961.040039062 c 0,26,27
 659.841796875 940.138671875 659.841796875 940.138671875 649.416015625 888.879882812 c 1,28,29
 651.80078125 889.27734375 651.80078125 889.27734375 658.703125 891.143554688 c 0,30,31
 685.4453125 898.373046875 685.4453125 898.373046875 690.416015625 892.16015625 c 0,30,31
 693.696289062 888.879882812 693.696289062 888.879882812 690.956054688 872.9296875 c 2,32,-1
 690.416015625 870.83984375 l 2,32,33
 687.956054688 861.8203125 687.956054688 861.8203125 683.036132812 844.599609375 c 0,34,35
 678.116210938 827.379882812 678.116210938 827.379882812 675.65625 818.360351562 c 0,34,35
 669.952148438 800.625 669.952148438 800.625 667.456054688 798.6796875 c 0,36,37
 660.06640625 794.45703125 660.06640625 794.45703125 641.793945312 791.541992188 c 0,38,39
 631.822265625 789.786132812 631.822265625 789.786132812 628.095703125 788.83984375 c 0,38,39
 606.18359375 784.625976562 606.18359375 784.625976562 551.015625 770.799804688 c 0,40,41
 417.965820312 737.995117188 417.965820312 737.995117188 314.856445312 698.639648438 c 1,42,-1
 314.856445312 754.400390625 l 1,43,-1
 280.416015625 741.280273438 l 1,44,-1
 280.416015625 749.48046875 l 1,45,-1
 257.456054688 741.280273438 l 1,46,-1
 257.456054688 749.48046875 l 1,47,-1
 234.49609375 741.280273438 l 1,48,-1
 234.49609375 815.080078125 l 1,49,-1
 236.135742188 844.599609375 l 1,50,-1
 255.81640625 859.360351562 l 1,51,-1
 301.736328125 885.599609375 l 1,0,1
552.65625 1123.40039062 m 1,52,53
 546.38671875 1136.18945312 546.38671875 1136.18945312 529.696289062 1152.91992188 c 0,54,55
 499.661132812 1181.29199219 499.661132812 1181.29199219 467.375976562 1182.44042969 c 0,56,57
 419.68359375 1182.44042969 419.68359375 1182.44042969 366.26171875 1119.74511719 c 0,58,59
 360.943359375 1113.28320312 360.943359375 1113.28320312 357.49609375 1108.63964844 c 1,58,59
 363.895507812 1110.96679688 363.895507812 1110.96679688 376.22265625 1116.42089844 c 0,60,61
 398.962890625 1126.05957031 398.962890625 1126.05957031 409.975585938 1128.3203125 c 0,60,61
 454.971679688 1137.39550781 454.971679688 1137.39550781 552.65625 1123.40039062 c 1,52,53
332.895507812 1077.48046875 m 1,62,63
 311.987304688 1059.62597656 311.987304688 1059.62597656 295.17578125 1020.08007812 c 0,64,65
 287.249023438 1004.2265625 287.249023438 1004.2265625 288.616210938 998.759765625 c 0,66,67
 290.255859375 988.919921875 290.255859375 988.919921875 305.189453125 969.424804688 c 2,68,-1
 306.65625 967.599609375 l 1,68,69
 350.271484375 921.69140625 350.271484375 921.69140625 383.736328125 905.280273438 c 1,70,-1
 365.696289062 895.440429688 l 1,71,-1
 383.736328125 882.3203125 l 1,72,-1
 365.696289062 872.48046875 l 1,73,-1
 383.736328125 859.360351562 l 1,74,-1
 298.456054688 811.799804688 l 1,75,-1
 298.456054688 810.16015625 l 1,76,77
 336.87890625 819.53125 336.87890625 819.53125 413.724609375 842.55859375 c 0,78,79
 471.905273438 859.942382812 471.905273438 859.942382812 500.17578125 867.559570312 c 0,78,79
 510.015625 870.01953125 510.015625 870.01953125 530.515625 874.120117188 c 0,80,81
 551.506835938 878.393554688 551.506835938 878.393554688 560.856445312 880.6796875 c 0,80,81
 586.947265625 885.8984375 586.947265625 885.8984375 588.736328125 887.240234375 c 0,82,83
 592.685546875 892.419921875 592.685546875 892.419921875 601.856445312 928.240234375 c 1,84,85
 457.190429688 902.5625 457.190429688 902.5625 382.095703125 956.120117188 c 1,86,87
 340.967773438 988.666015625 340.967773438 988.666015625 334.536132812 1015.16015625 c 0,88,89
 326.75390625 1043.69628906 326.75390625 1043.69628906 332.895507812 1077.48046875 c 1,62,63
EndSplineSet
AlternateSubs2: "gsub_alternate_dfl_aalt_arab_FAR_Lookup_01_Subtable_01" uniFE86 uniFE85
Substitution2: "gsub_single_rtl_fina_arab_FAR_Lookup_01_Subtable_01" uniFE86
EndChar

